M48
;GenerationSoftware,Autodesk,EAGLE,9.6.2*%
;CreationDate,2021-02-24T18:49:13Z*%
FMAT,2
ICI,OFF
METRIC,TZ,000.000
T12C0.350
T11C0.600
T10C0.635
T9C1.000
T8C1.274
T7C1.400
T6C1.422
T5C1.778
T4C1.824
T3C2.000
T2C3.000
T1C3.048
%
G90
M71
T1
X3048Y98552
X98552Y98552
T2
X94930Y13271
X94930Y25844
X8194Y54610
X8194Y16828
X8194Y46164
X93660Y43942
X93660Y33782
T3
X82118Y25844
X87630Y13271
X87630Y21654
X87630Y17463
X87630Y25844
X82118Y13271
X82118Y17463
X82118Y21654
T4
X98278Y68052
X98278Y52852
X98278Y76474
X98278Y91674
T5
X87376Y77216
T6
X80848Y31686
X80848Y35878
X86360Y35878
X86360Y41847
X80848Y46037
X80848Y41847
X15494Y56705
X15494Y52514
X21006Y56705
X21006Y52514
X21006Y25209
X15494Y21019
X15494Y25209
X15494Y29400
X15494Y33592
X15494Y37783
X15494Y41974
X15494Y46164
X21006Y16828
X21006Y21019
X21006Y37783
X21006Y29400
X21006Y33592
X86360Y46037
X15494Y16828
X86360Y31686
X21006Y46164
X21006Y41974
T7
X10922Y84310
X10922Y80110
X5422Y80110
X10922Y75910
X10922Y71710
X5422Y67510
X5422Y88510
X10922Y92710
X5422Y84310
X5422Y92710
X10922Y88510
X10922Y67510
X5422Y71710
X5422Y75910
T8
X98278Y60452
X98278Y56652
X70378Y76474
X70378Y84074
X70378Y91674
X98278Y84074
X98278Y80274
X70378Y60452
X70378Y52852
X70378Y68052
T9
X78994Y66040
X86106Y57658
X82804Y74930
X87122Y71882
X81280Y56642
X81788Y61976
X85344Y63246
X27167Y29972
X31750Y28194
X81534Y67310
X92710Y79756
X92710Y75184
X84582Y66802
T10
X53340Y29718
X46990Y36322
X29972Y28194
X68326Y84074
X68627Y11176
X53315Y31496
X64770Y84328
X60452Y80518
X49530Y78994
X67564Y65786
X32749Y7620
X62992Y80264
X70612Y31242
X63732Y32258
X55880Y85852
X54610Y87122
X45466Y79248
X47752Y79248
X48471Y7245
X49022Y8382
X37084Y12192
X26670Y11938
X78994Y61214
X92710Y58928
X92456Y54102
X29464Y15240
X54610Y84582
X69596Y39116
X49276Y36867
X28702Y47498
X66737Y12765
T11
X79248Y10160
X74676Y10922
X73660Y9652
X77978Y9652
T12
X72898Y21844
X84559Y43688
X65471Y35753
X65532Y36830
X73660Y19558
X53236Y24384
X41148Y18796
X30734Y80518
X26416Y48006
X28448Y29718
X47498Y10668
X41656Y10922
X80264Y39720
X77847Y33528
X26670Y38608
X41910Y39878
X50038Y77470
X52483Y80613
X57908Y81186
X62230Y86614
X73914Y84836
X71882Y80264
X72898Y28956
X43434Y43180
X70866Y81430
X72644Y83312
X64008Y85852
X59286Y79863
X53594Y79863
X52067Y77470
X44450Y46228
X74315Y29995
X69050Y36176
X68179Y38996
X67499Y30734
X69342Y27178
X65278Y13716
X90932Y38027
X84074Y38027
X85344Y8382
X99822Y10160
X90932Y38935
X84074Y38935
X81534Y28425
X42672Y9906
X62484Y9906
X62992Y13462
X63754Y19304
X44704Y87884
X75184Y31242
X70358Y29972
X64783Y32512
X64516Y7874
X69850Y42164
X84074Y27686
X92710Y37242
X53340Y21082
X43434Y13208
X49022Y12192
X63500Y12024
X72136Y9398
X59690Y89662
X70866Y80521
X73287Y83955
X63365Y86495
X58778Y80772
X53594Y80772
X51158Y77470
X63167Y36147
X63769Y35306
X82550Y30711
X68834Y25515
X63754Y24130
X66802Y25654
X75438Y12192
X70358Y22098
X74168Y40386
M30