G04 EAGLE Gerber RS-274X export*
G75*
%MOMM*%
%FSLAX34Y34*%
%LPD*%
%IN*%
%IPPOS*%
%AMOC8*
5,1,8,0,0,1.08239X$1,22.5*%
G01*
%ADD10C,0.254000*%


D10*
X0Y78740D02*
X139700Y78740D01*
X139700Y0D01*
X876300Y0D01*
X876300Y78740D01*
X1016000Y78740D01*
X1016000Y1016000D01*
X0Y1016000D01*
X0Y78740D01*
X45720Y984976D02*
X45642Y983890D01*
X45487Y982812D01*
X45256Y981749D01*
X44949Y980704D01*
X44569Y979684D01*
X44117Y978694D01*
X43595Y977739D01*
X43006Y976823D01*
X42354Y975951D01*
X41641Y975129D01*
X40871Y974359D01*
X40049Y973646D01*
X39177Y972994D01*
X38261Y972405D01*
X37306Y971883D01*
X36316Y971431D01*
X35296Y971051D01*
X34251Y970744D01*
X33188Y970513D01*
X32110Y970358D01*
X31024Y970280D01*
X29936Y970280D01*
X28850Y970358D01*
X27772Y970513D01*
X26709Y970744D01*
X25664Y971051D01*
X24644Y971431D01*
X23654Y971883D01*
X22699Y972405D01*
X21783Y972994D01*
X20911Y973646D01*
X20089Y974359D01*
X19319Y975129D01*
X18606Y975951D01*
X17954Y976823D01*
X17365Y977739D01*
X16843Y978694D01*
X16391Y979684D01*
X16011Y980704D01*
X15704Y981749D01*
X15473Y982812D01*
X15318Y983890D01*
X15240Y984976D01*
X15240Y986064D01*
X15318Y987150D01*
X15473Y988228D01*
X15704Y989291D01*
X16011Y990336D01*
X16391Y991356D01*
X16843Y992346D01*
X17365Y993301D01*
X17954Y994217D01*
X18606Y995089D01*
X19319Y995911D01*
X20089Y996681D01*
X20911Y997394D01*
X21783Y998046D01*
X22699Y998635D01*
X23654Y999157D01*
X24644Y999609D01*
X25664Y999989D01*
X26709Y1000296D01*
X27772Y1000527D01*
X28850Y1000682D01*
X29936Y1000760D01*
X31024Y1000760D01*
X32110Y1000682D01*
X33188Y1000527D01*
X34251Y1000296D01*
X35296Y999989D01*
X36316Y999609D01*
X37306Y999157D01*
X38261Y998635D01*
X39177Y998046D01*
X40049Y997394D01*
X40871Y996681D01*
X41641Y995911D01*
X42354Y995089D01*
X43006Y994217D01*
X43595Y993301D01*
X44117Y992346D01*
X44569Y991356D01*
X44949Y990336D01*
X45256Y989291D01*
X45487Y988228D01*
X45642Y987150D01*
X45720Y986064D01*
X45720Y984976D01*
X1000760Y984976D02*
X1000682Y983890D01*
X1000527Y982812D01*
X1000296Y981749D01*
X999989Y980704D01*
X999609Y979684D01*
X999157Y978694D01*
X998635Y977739D01*
X998046Y976823D01*
X997394Y975951D01*
X996681Y975129D01*
X995911Y974359D01*
X995089Y973646D01*
X994217Y972994D01*
X993301Y972405D01*
X992346Y971883D01*
X991356Y971431D01*
X990336Y971051D01*
X989291Y970744D01*
X988228Y970513D01*
X987150Y970358D01*
X986064Y970280D01*
X984976Y970280D01*
X983890Y970358D01*
X982812Y970513D01*
X981749Y970744D01*
X980704Y971051D01*
X979684Y971431D01*
X978694Y971883D01*
X977739Y972405D01*
X976823Y972994D01*
X975951Y973646D01*
X975129Y974359D01*
X974359Y975129D01*
X973646Y975951D01*
X972994Y976823D01*
X972405Y977739D01*
X971883Y978694D01*
X971431Y979684D01*
X971051Y980704D01*
X970744Y981749D01*
X970513Y982812D01*
X970358Y983890D01*
X970280Y984976D01*
X970280Y986064D01*
X970358Y987150D01*
X970513Y988228D01*
X970744Y989291D01*
X971051Y990336D01*
X971431Y991356D01*
X971883Y992346D01*
X972405Y993301D01*
X972994Y994217D01*
X973646Y995089D01*
X974359Y995911D01*
X975129Y996681D01*
X975951Y997394D01*
X976823Y998046D01*
X977739Y998635D01*
X978694Y999157D01*
X979684Y999609D01*
X980704Y999989D01*
X981749Y1000296D01*
X982812Y1000527D01*
X983890Y1000682D01*
X984976Y1000760D01*
X986064Y1000760D01*
X987150Y1000682D01*
X988228Y1000527D01*
X989291Y1000296D01*
X990336Y999989D01*
X991356Y999609D01*
X992346Y999157D01*
X993301Y998635D01*
X994217Y998046D01*
X995089Y997394D01*
X995911Y996681D01*
X996681Y995911D01*
X997394Y995089D01*
X998046Y994217D01*
X998635Y993301D01*
X999157Y992346D01*
X999609Y991356D01*
X999989Y990336D01*
X1000296Y989291D01*
X1000527Y988228D01*
X1000682Y987150D01*
X1000760Y986064D01*
X1000760Y984976D01*
X81404Y446645D02*
X80336Y446721D01*
X79275Y446874D01*
X78228Y447102D01*
X77200Y447404D01*
X76196Y447778D01*
X75221Y448223D01*
X74281Y448737D01*
X73380Y449316D01*
X72522Y449958D01*
X71712Y450660D01*
X70955Y451417D01*
X70253Y452227D01*
X69611Y453085D01*
X69032Y453986D01*
X68518Y454926D01*
X68073Y455901D01*
X67699Y456905D01*
X67397Y457933D01*
X67169Y458980D01*
X67016Y460041D01*
X66940Y461109D01*
X66940Y462181D01*
X67016Y463249D01*
X67169Y464310D01*
X67397Y465357D01*
X67699Y466385D01*
X68073Y467389D01*
X68518Y468364D01*
X69032Y469304D01*
X69611Y470205D01*
X70253Y471063D01*
X70955Y471873D01*
X71712Y472630D01*
X72522Y473332D01*
X73380Y473974D01*
X74281Y474553D01*
X75221Y475067D01*
X76196Y475512D01*
X77200Y475886D01*
X78228Y476188D01*
X79275Y476416D01*
X80336Y476569D01*
X81404Y476645D01*
X82476Y476645D01*
X83544Y476569D01*
X84605Y476416D01*
X85652Y476188D01*
X86680Y475886D01*
X87684Y475512D01*
X88659Y475067D01*
X89599Y474553D01*
X90500Y473974D01*
X91358Y473332D01*
X92168Y472630D01*
X92925Y471873D01*
X93627Y471063D01*
X94269Y470205D01*
X94848Y469304D01*
X95362Y468364D01*
X95807Y467389D01*
X96181Y466385D01*
X96483Y465357D01*
X96711Y464310D01*
X96864Y463249D01*
X96940Y462181D01*
X96940Y461109D01*
X96864Y460041D01*
X96711Y458980D01*
X96483Y457933D01*
X96181Y456905D01*
X95807Y455901D01*
X95362Y454926D01*
X94848Y453986D01*
X94269Y453085D01*
X93627Y452227D01*
X92925Y451417D01*
X92168Y450660D01*
X91358Y449958D01*
X90500Y449316D01*
X89599Y448737D01*
X88659Y448223D01*
X87684Y447778D01*
X86680Y447404D01*
X85652Y447102D01*
X84605Y446874D01*
X83544Y446721D01*
X82476Y446645D01*
X81404Y446645D01*
X81404Y153275D02*
X80336Y153351D01*
X79275Y153504D01*
X78228Y153732D01*
X77200Y154034D01*
X76196Y154408D01*
X75221Y154853D01*
X74281Y155367D01*
X73380Y155946D01*
X72522Y156588D01*
X71712Y157290D01*
X70955Y158047D01*
X70253Y158857D01*
X69611Y159715D01*
X69032Y160616D01*
X68518Y161556D01*
X68073Y162531D01*
X67699Y163535D01*
X67397Y164563D01*
X67169Y165610D01*
X67016Y166671D01*
X66940Y167739D01*
X66940Y168811D01*
X67016Y169879D01*
X67169Y170940D01*
X67397Y171987D01*
X67699Y173015D01*
X68073Y174019D01*
X68518Y174994D01*
X69032Y175934D01*
X69611Y176835D01*
X70253Y177693D01*
X70955Y178503D01*
X71712Y179260D01*
X72522Y179962D01*
X73380Y180604D01*
X74281Y181183D01*
X75221Y181697D01*
X76196Y182142D01*
X77200Y182516D01*
X78228Y182818D01*
X79275Y183046D01*
X80336Y183199D01*
X81404Y183275D01*
X82476Y183275D01*
X83544Y183199D01*
X84605Y183046D01*
X85652Y182818D01*
X86680Y182516D01*
X87684Y182142D01*
X88659Y181697D01*
X89599Y181183D01*
X90500Y180604D01*
X91358Y179962D01*
X92168Y179260D01*
X92925Y178503D01*
X93627Y177693D01*
X94269Y176835D01*
X94848Y175934D01*
X95362Y174994D01*
X95807Y174019D01*
X96181Y173015D01*
X96483Y171987D01*
X96711Y170940D01*
X96864Y169879D01*
X96940Y168811D01*
X96940Y167739D01*
X96864Y166671D01*
X96711Y165610D01*
X96483Y164563D01*
X96181Y163535D01*
X95807Y162531D01*
X95362Y161556D01*
X94848Y160616D01*
X94269Y159715D01*
X93627Y158857D01*
X92925Y158047D01*
X92168Y157290D01*
X91358Y156588D01*
X90500Y155946D01*
X89599Y155367D01*
X88659Y154853D01*
X87684Y154408D01*
X86680Y154034D01*
X85652Y153732D01*
X84605Y153504D01*
X83544Y153351D01*
X82476Y153275D01*
X81404Y153275D01*
X81404Y561100D02*
X80336Y561024D01*
X79275Y560871D01*
X78228Y560643D01*
X77200Y560341D01*
X76196Y559967D01*
X75221Y559522D01*
X74281Y559008D01*
X73380Y558429D01*
X72522Y557787D01*
X71712Y557085D01*
X70955Y556328D01*
X70253Y555518D01*
X69611Y554660D01*
X69032Y553759D01*
X68518Y552819D01*
X68073Y551844D01*
X67699Y550840D01*
X67397Y549812D01*
X67169Y548765D01*
X67016Y547704D01*
X66940Y546636D01*
X66940Y545564D01*
X67016Y544496D01*
X67169Y543435D01*
X67397Y542388D01*
X67699Y541360D01*
X68073Y540356D01*
X68518Y539381D01*
X69032Y538441D01*
X69611Y537540D01*
X70253Y536682D01*
X70955Y535872D01*
X71712Y535115D01*
X72522Y534413D01*
X73380Y533771D01*
X74281Y533192D01*
X75221Y532678D01*
X76196Y532233D01*
X77200Y531859D01*
X78228Y531557D01*
X79275Y531329D01*
X80336Y531176D01*
X81404Y531100D01*
X82476Y531100D01*
X83544Y531176D01*
X84605Y531329D01*
X85652Y531557D01*
X86680Y531859D01*
X87684Y532233D01*
X88659Y532678D01*
X89599Y533192D01*
X90500Y533771D01*
X91358Y534413D01*
X92168Y535115D01*
X92925Y535872D01*
X93627Y536682D01*
X94269Y537540D01*
X94848Y538441D01*
X95362Y539381D01*
X95807Y540356D01*
X96181Y541360D01*
X96483Y542388D01*
X96711Y543435D01*
X96864Y544496D01*
X96940Y545564D01*
X96940Y546636D01*
X96864Y547704D01*
X96711Y548765D01*
X96483Y549812D01*
X96181Y550840D01*
X95807Y551844D01*
X95362Y552819D01*
X94848Y553759D01*
X94269Y554660D01*
X93627Y555518D01*
X92925Y556328D01*
X92168Y557085D01*
X91358Y557787D01*
X90500Y558429D01*
X89599Y559008D01*
X88659Y559522D01*
X87684Y559967D01*
X86680Y560341D01*
X85652Y560643D01*
X84605Y560871D01*
X83544Y561024D01*
X82476Y561100D01*
X81404Y561100D01*
X949836Y243445D02*
X950904Y243521D01*
X951965Y243674D01*
X953012Y243902D01*
X954040Y244204D01*
X955044Y244578D01*
X956019Y245023D01*
X956959Y245537D01*
X957860Y246116D01*
X958718Y246758D01*
X959528Y247460D01*
X960285Y248217D01*
X960987Y249027D01*
X961629Y249885D01*
X962208Y250786D01*
X962722Y251726D01*
X963167Y252701D01*
X963541Y253705D01*
X963843Y254733D01*
X964071Y255780D01*
X964224Y256841D01*
X964300Y257909D01*
X964300Y258981D01*
X964224Y260049D01*
X964071Y261110D01*
X963843Y262157D01*
X963541Y263185D01*
X963167Y264189D01*
X962722Y265164D01*
X962208Y266104D01*
X961629Y267005D01*
X960987Y267863D01*
X960285Y268673D01*
X959528Y269430D01*
X958718Y270132D01*
X957860Y270774D01*
X956959Y271353D01*
X956019Y271867D01*
X955044Y272312D01*
X954040Y272686D01*
X953012Y272988D01*
X951965Y273216D01*
X950904Y273369D01*
X949836Y273445D01*
X948764Y273445D01*
X947696Y273369D01*
X946635Y273216D01*
X945588Y272988D01*
X944560Y272686D01*
X943556Y272312D01*
X942581Y271867D01*
X941641Y271353D01*
X940740Y270774D01*
X939882Y270132D01*
X939072Y269430D01*
X938315Y268673D01*
X937613Y267863D01*
X936971Y267005D01*
X936392Y266104D01*
X935878Y265164D01*
X935433Y264189D01*
X935059Y263185D01*
X934757Y262157D01*
X934529Y261110D01*
X934376Y260049D01*
X934300Y258981D01*
X934300Y257909D01*
X934376Y256841D01*
X934529Y255780D01*
X934757Y254733D01*
X935059Y253705D01*
X935433Y252701D01*
X935878Y251726D01*
X936392Y250786D01*
X936971Y249885D01*
X937613Y249027D01*
X938315Y248217D01*
X939072Y247460D01*
X939882Y246758D01*
X940740Y246116D01*
X941641Y245537D01*
X942581Y245023D01*
X943556Y244578D01*
X944560Y244204D01*
X945588Y243902D01*
X946635Y243674D01*
X947696Y243521D01*
X948764Y243445D01*
X949836Y243445D01*
X949836Y117715D02*
X950904Y117791D01*
X951965Y117944D01*
X953012Y118172D01*
X954040Y118474D01*
X955044Y118848D01*
X956019Y119293D01*
X956959Y119807D01*
X957860Y120386D01*
X958718Y121028D01*
X959528Y121730D01*
X960285Y122487D01*
X960987Y123297D01*
X961629Y124155D01*
X962208Y125056D01*
X962722Y125996D01*
X963167Y126971D01*
X963541Y127975D01*
X963843Y129003D01*
X964071Y130050D01*
X964224Y131111D01*
X964300Y132179D01*
X964300Y133251D01*
X964224Y134319D01*
X964071Y135380D01*
X963843Y136427D01*
X963541Y137455D01*
X963167Y138459D01*
X962722Y139434D01*
X962208Y140374D01*
X961629Y141275D01*
X960987Y142133D01*
X960285Y142943D01*
X959528Y143700D01*
X958718Y144402D01*
X957860Y145044D01*
X956959Y145623D01*
X956019Y146137D01*
X955044Y146582D01*
X954040Y146956D01*
X953012Y147258D01*
X951965Y147486D01*
X950904Y147639D01*
X949836Y147715D01*
X948764Y147715D01*
X947696Y147639D01*
X946635Y147486D01*
X945588Y147258D01*
X944560Y146956D01*
X943556Y146582D01*
X942581Y146137D01*
X941641Y145623D01*
X940740Y145044D01*
X939882Y144402D01*
X939072Y143700D01*
X938315Y142943D01*
X937613Y142133D01*
X936971Y141275D01*
X936392Y140374D01*
X935878Y139434D01*
X935433Y138459D01*
X935059Y137455D01*
X934757Y136427D01*
X934529Y135380D01*
X934376Y134319D01*
X934300Y133251D01*
X934300Y132179D01*
X934376Y131111D01*
X934529Y130050D01*
X934757Y129003D01*
X935059Y127975D01*
X935433Y126971D01*
X935878Y125996D01*
X936392Y125056D01*
X936971Y124155D01*
X937613Y123297D01*
X938315Y122487D01*
X939072Y121730D01*
X939882Y121028D01*
X940740Y120386D01*
X941641Y119807D01*
X942581Y119293D01*
X943556Y118848D01*
X944560Y118474D01*
X945588Y118172D01*
X946635Y117944D01*
X947696Y117791D01*
X948764Y117715D01*
X949836Y117715D01*
X937136Y454420D02*
X938204Y454344D01*
X939265Y454191D01*
X940312Y453963D01*
X941340Y453661D01*
X942344Y453287D01*
X943319Y452842D01*
X944259Y452328D01*
X945160Y451749D01*
X946018Y451107D01*
X946828Y450405D01*
X947585Y449648D01*
X948287Y448838D01*
X948929Y447980D01*
X949508Y447079D01*
X950022Y446139D01*
X950467Y445164D01*
X950841Y444160D01*
X951143Y443132D01*
X951371Y442085D01*
X951524Y441024D01*
X951600Y439956D01*
X951600Y438884D01*
X951524Y437816D01*
X951371Y436755D01*
X951143Y435708D01*
X950841Y434680D01*
X950467Y433676D01*
X950022Y432701D01*
X949508Y431761D01*
X948929Y430860D01*
X948287Y430002D01*
X947585Y429192D01*
X946828Y428435D01*
X946018Y427733D01*
X945160Y427091D01*
X944259Y426512D01*
X943319Y425998D01*
X942344Y425553D01*
X941340Y425179D01*
X940312Y424877D01*
X939265Y424649D01*
X938204Y424496D01*
X937136Y424420D01*
X936064Y424420D01*
X934996Y424496D01*
X933935Y424649D01*
X932888Y424877D01*
X931860Y425179D01*
X930856Y425553D01*
X929881Y425998D01*
X928941Y426512D01*
X928040Y427091D01*
X927182Y427733D01*
X926372Y428435D01*
X925615Y429192D01*
X924913Y430002D01*
X924271Y430860D01*
X923692Y431761D01*
X923178Y432701D01*
X922733Y433676D01*
X922359Y434680D01*
X922057Y435708D01*
X921829Y436755D01*
X921676Y437816D01*
X921600Y438884D01*
X921600Y439956D01*
X921676Y441024D01*
X921829Y442085D01*
X922057Y443132D01*
X922359Y444160D01*
X922733Y445164D01*
X923178Y446139D01*
X923692Y447079D01*
X924271Y447980D01*
X924913Y448838D01*
X925615Y449648D01*
X926372Y450405D01*
X927182Y451107D01*
X928040Y451749D01*
X928941Y452328D01*
X929881Y452842D01*
X930856Y453287D01*
X931860Y453661D01*
X932888Y453963D01*
X933935Y454191D01*
X934996Y454344D01*
X936064Y454420D01*
X937136Y454420D01*
X937136Y322820D02*
X938204Y322896D01*
X939265Y323049D01*
X940312Y323277D01*
X941340Y323579D01*
X942344Y323953D01*
X943319Y324398D01*
X944259Y324912D01*
X945160Y325491D01*
X946018Y326133D01*
X946828Y326835D01*
X947585Y327592D01*
X948287Y328402D01*
X948929Y329260D01*
X949508Y330161D01*
X950022Y331101D01*
X950467Y332076D01*
X950841Y333080D01*
X951143Y334108D01*
X951371Y335155D01*
X951524Y336216D01*
X951600Y337284D01*
X951600Y338356D01*
X951524Y339424D01*
X951371Y340485D01*
X951143Y341532D01*
X950841Y342560D01*
X950467Y343564D01*
X950022Y344539D01*
X949508Y345479D01*
X948929Y346380D01*
X948287Y347238D01*
X947585Y348048D01*
X946828Y348805D01*
X946018Y349507D01*
X945160Y350149D01*
X944259Y350728D01*
X943319Y351242D01*
X942344Y351687D01*
X941340Y352061D01*
X940312Y352363D01*
X939265Y352591D01*
X938204Y352744D01*
X937136Y352820D01*
X936064Y352820D01*
X934996Y352744D01*
X933935Y352591D01*
X932888Y352363D01*
X931860Y352061D01*
X930856Y351687D01*
X929881Y351242D01*
X928941Y350728D01*
X928040Y350149D01*
X927182Y349507D01*
X926372Y348805D01*
X925615Y348048D01*
X924913Y347238D01*
X924271Y346380D01*
X923692Y345479D01*
X923178Y344539D01*
X922733Y343564D01*
X922359Y342560D01*
X922057Y341532D01*
X921829Y340485D01*
X921676Y339424D01*
X921600Y338356D01*
X921600Y337284D01*
X921676Y336216D01*
X921829Y335155D01*
X922057Y334108D01*
X922359Y333080D01*
X922733Y332076D01*
X923178Y331101D01*
X923692Y330161D01*
X924271Y329260D01*
X924913Y328402D01*
X925615Y327592D01*
X926372Y326835D01*
X927182Y326133D01*
X928040Y325491D01*
X928941Y324912D01*
X929881Y324398D01*
X930856Y323953D01*
X931860Y323579D01*
X932888Y323277D01*
X933935Y323049D01*
X934996Y322896D01*
X936064Y322820D01*
X937136Y322820D01*
M02*
