G04 EAGLE Gerber RS-274X export*
G75*
%MOMM*%
%FSLAX34Y34*%
%LPD*%
%INSilkscreen Bottom*%
%IPPOS*%
%AMOC8*
5,1,8,0,0,1.08239X$1,22.5*%
G01*
%ADD10C,0.152400*%
%ADD11C,0.076200*%
%ADD12C,0.101600*%
%ADD13C,0.127000*%
%ADD14C,0.203200*%
%ADD15R,0.762000X0.863600*%
%ADD16R,0.863600X0.762000*%
%ADD17C,0.200000*%
%ADD18R,1.500000X2.500000*%
%ADD19C,0.177800*%
%ADD20C,0.100000*%
%ADD21C,0.200000*%


D10*
X160726Y580341D02*
X164338Y584857D01*
X148082Y584857D01*
X148082Y589372D02*
X148082Y580341D01*
X164338Y600940D02*
X164336Y601065D01*
X164330Y601190D01*
X164321Y601315D01*
X164307Y601439D01*
X164290Y601563D01*
X164269Y601687D01*
X164244Y601809D01*
X164215Y601931D01*
X164183Y602052D01*
X164147Y602172D01*
X164107Y602291D01*
X164064Y602408D01*
X164017Y602524D01*
X163966Y602639D01*
X163912Y602751D01*
X163854Y602863D01*
X163794Y602972D01*
X163729Y603079D01*
X163662Y603185D01*
X163591Y603288D01*
X163517Y603389D01*
X163440Y603488D01*
X163360Y603584D01*
X163277Y603678D01*
X163192Y603769D01*
X163103Y603858D01*
X163012Y603943D01*
X162918Y604026D01*
X162822Y604106D01*
X162723Y604183D01*
X162622Y604257D01*
X162519Y604328D01*
X162413Y604395D01*
X162306Y604460D01*
X162197Y604520D01*
X162085Y604578D01*
X161973Y604632D01*
X161858Y604683D01*
X161742Y604730D01*
X161625Y604773D01*
X161506Y604813D01*
X161386Y604849D01*
X161265Y604881D01*
X161143Y604910D01*
X161021Y604935D01*
X160897Y604956D01*
X160773Y604973D01*
X160649Y604987D01*
X160524Y604996D01*
X160399Y605002D01*
X160274Y605004D01*
X164338Y600940D02*
X164336Y600797D01*
X164330Y600655D01*
X164320Y600512D01*
X164307Y600370D01*
X164289Y600229D01*
X164268Y600087D01*
X164243Y599947D01*
X164214Y599807D01*
X164181Y599668D01*
X164144Y599530D01*
X164104Y599393D01*
X164060Y599258D01*
X164012Y599123D01*
X163960Y598990D01*
X163905Y598858D01*
X163846Y598728D01*
X163784Y598600D01*
X163718Y598473D01*
X163649Y598348D01*
X163577Y598225D01*
X163501Y598105D01*
X163422Y597986D01*
X163339Y597869D01*
X163254Y597755D01*
X163165Y597643D01*
X163074Y597534D01*
X162979Y597427D01*
X162882Y597322D01*
X162781Y597221D01*
X162678Y597122D01*
X162573Y597026D01*
X162464Y596933D01*
X162353Y596843D01*
X162240Y596756D01*
X162125Y596672D01*
X162007Y596592D01*
X161887Y596514D01*
X161765Y596440D01*
X161641Y596370D01*
X161515Y596302D01*
X161387Y596239D01*
X161258Y596178D01*
X161127Y596121D01*
X160995Y596068D01*
X160861Y596019D01*
X160726Y595973D01*
X157113Y603649D02*
X157205Y603743D01*
X157299Y603833D01*
X157396Y603921D01*
X157496Y604006D01*
X157598Y604088D01*
X157703Y604167D01*
X157810Y604242D01*
X157919Y604314D01*
X158030Y604383D01*
X158144Y604449D01*
X158259Y604511D01*
X158376Y604570D01*
X158495Y604625D01*
X158615Y604676D01*
X158737Y604724D01*
X158860Y604769D01*
X158984Y604809D01*
X159110Y604846D01*
X159237Y604879D01*
X159364Y604908D01*
X159493Y604934D01*
X159622Y604955D01*
X159752Y604973D01*
X159882Y604986D01*
X160012Y604996D01*
X160143Y605002D01*
X160274Y605004D01*
X157113Y603649D02*
X148082Y595973D01*
X148082Y605004D01*
X148082Y616119D02*
X164338Y610701D01*
X164338Y621538D02*
X148082Y616119D01*
X203962Y595461D02*
X220218Y590042D01*
X220218Y600879D02*
X203962Y595461D01*
X210284Y606715D02*
X210284Y617553D01*
X215702Y612134D02*
X204865Y612134D01*
D11*
X352679Y421259D02*
X352679Y411861D01*
X352679Y421259D02*
X350068Y421259D01*
X349967Y421257D01*
X349866Y421251D01*
X349765Y421241D01*
X349665Y421228D01*
X349565Y421210D01*
X349466Y421189D01*
X349368Y421163D01*
X349271Y421134D01*
X349175Y421102D01*
X349081Y421065D01*
X348988Y421025D01*
X348896Y420981D01*
X348807Y420934D01*
X348719Y420883D01*
X348633Y420829D01*
X348550Y420772D01*
X348468Y420712D01*
X348390Y420648D01*
X348313Y420582D01*
X348240Y420512D01*
X348169Y420440D01*
X348101Y420365D01*
X348036Y420287D01*
X347974Y420207D01*
X347915Y420125D01*
X347859Y420040D01*
X347807Y419954D01*
X347758Y419865D01*
X347712Y419774D01*
X347671Y419682D01*
X347632Y419588D01*
X347598Y419493D01*
X347567Y419397D01*
X347540Y419299D01*
X347516Y419201D01*
X347497Y419101D01*
X347481Y419001D01*
X347469Y418901D01*
X347461Y418800D01*
X347457Y418699D01*
X347457Y418597D01*
X347461Y418496D01*
X347469Y418395D01*
X347481Y418295D01*
X347497Y418195D01*
X347516Y418095D01*
X347540Y417997D01*
X347567Y417899D01*
X347598Y417803D01*
X347632Y417708D01*
X347671Y417614D01*
X347712Y417522D01*
X347758Y417431D01*
X347807Y417343D01*
X347859Y417256D01*
X347915Y417171D01*
X347974Y417089D01*
X348036Y417009D01*
X348101Y416931D01*
X348169Y416856D01*
X348240Y416784D01*
X348313Y416714D01*
X348390Y416648D01*
X348468Y416584D01*
X348550Y416524D01*
X348633Y416467D01*
X348719Y416413D01*
X348807Y416362D01*
X348896Y416315D01*
X348988Y416271D01*
X349081Y416231D01*
X349175Y416194D01*
X349271Y416162D01*
X349368Y416133D01*
X349466Y416107D01*
X349565Y416086D01*
X349665Y416068D01*
X349765Y416055D01*
X349866Y416045D01*
X349967Y416039D01*
X350068Y416037D01*
X350068Y416038D02*
X352679Y416038D01*
X349546Y416038D02*
X347458Y411861D01*
X343592Y413949D02*
X341504Y421259D01*
X343592Y413949D02*
X338371Y413949D01*
X339937Y416038D02*
X339937Y411861D01*
X334448Y419171D02*
X331838Y421259D01*
X331838Y411861D01*
X334448Y411861D02*
X329227Y411861D01*
X383159Y411861D02*
X383159Y421259D01*
X380548Y421259D01*
X380447Y421257D01*
X380346Y421251D01*
X380245Y421241D01*
X380145Y421228D01*
X380045Y421210D01*
X379946Y421189D01*
X379848Y421163D01*
X379751Y421134D01*
X379655Y421102D01*
X379561Y421065D01*
X379468Y421025D01*
X379376Y420981D01*
X379287Y420934D01*
X379199Y420883D01*
X379113Y420829D01*
X379030Y420772D01*
X378948Y420712D01*
X378870Y420648D01*
X378793Y420582D01*
X378720Y420512D01*
X378649Y420440D01*
X378581Y420365D01*
X378516Y420287D01*
X378454Y420207D01*
X378395Y420125D01*
X378339Y420040D01*
X378287Y419954D01*
X378238Y419865D01*
X378192Y419774D01*
X378151Y419682D01*
X378112Y419588D01*
X378078Y419493D01*
X378047Y419397D01*
X378020Y419299D01*
X377996Y419201D01*
X377977Y419101D01*
X377961Y419001D01*
X377949Y418901D01*
X377941Y418800D01*
X377937Y418699D01*
X377937Y418597D01*
X377941Y418496D01*
X377949Y418395D01*
X377961Y418295D01*
X377977Y418195D01*
X377996Y418095D01*
X378020Y417997D01*
X378047Y417899D01*
X378078Y417803D01*
X378112Y417708D01*
X378151Y417614D01*
X378192Y417522D01*
X378238Y417431D01*
X378287Y417343D01*
X378339Y417256D01*
X378395Y417171D01*
X378454Y417089D01*
X378516Y417009D01*
X378581Y416931D01*
X378649Y416856D01*
X378720Y416784D01*
X378793Y416714D01*
X378870Y416648D01*
X378948Y416584D01*
X379030Y416524D01*
X379113Y416467D01*
X379199Y416413D01*
X379287Y416362D01*
X379376Y416315D01*
X379468Y416271D01*
X379561Y416231D01*
X379655Y416194D01*
X379751Y416162D01*
X379848Y416133D01*
X379946Y416107D01*
X380045Y416086D01*
X380145Y416068D01*
X380245Y416055D01*
X380346Y416045D01*
X380447Y416039D01*
X380548Y416037D01*
X380548Y416038D02*
X383159Y416038D01*
X380026Y416038D02*
X377938Y411861D01*
X374072Y413949D02*
X371984Y421259D01*
X374072Y413949D02*
X368851Y413949D01*
X370417Y416038D02*
X370417Y411861D01*
X364928Y413949D02*
X362840Y421259D01*
X364928Y413949D02*
X359707Y413949D01*
X361273Y416038D02*
X361273Y411861D01*
X428879Y395859D02*
X428879Y386461D01*
X428879Y395859D02*
X426268Y395859D01*
X426167Y395857D01*
X426066Y395851D01*
X425965Y395841D01*
X425865Y395828D01*
X425765Y395810D01*
X425666Y395789D01*
X425568Y395763D01*
X425471Y395734D01*
X425375Y395702D01*
X425281Y395665D01*
X425188Y395625D01*
X425096Y395581D01*
X425007Y395534D01*
X424919Y395483D01*
X424833Y395429D01*
X424750Y395372D01*
X424668Y395312D01*
X424590Y395248D01*
X424513Y395182D01*
X424440Y395112D01*
X424369Y395040D01*
X424301Y394965D01*
X424236Y394887D01*
X424174Y394807D01*
X424115Y394725D01*
X424059Y394640D01*
X424007Y394554D01*
X423958Y394465D01*
X423912Y394374D01*
X423871Y394282D01*
X423832Y394188D01*
X423798Y394093D01*
X423767Y393997D01*
X423740Y393899D01*
X423716Y393801D01*
X423697Y393701D01*
X423681Y393601D01*
X423669Y393501D01*
X423661Y393400D01*
X423657Y393299D01*
X423657Y393197D01*
X423661Y393096D01*
X423669Y392995D01*
X423681Y392895D01*
X423697Y392795D01*
X423716Y392695D01*
X423740Y392597D01*
X423767Y392499D01*
X423798Y392403D01*
X423832Y392308D01*
X423871Y392214D01*
X423912Y392122D01*
X423958Y392031D01*
X424007Y391943D01*
X424059Y391856D01*
X424115Y391771D01*
X424174Y391689D01*
X424236Y391609D01*
X424301Y391531D01*
X424369Y391456D01*
X424440Y391384D01*
X424513Y391314D01*
X424590Y391248D01*
X424668Y391184D01*
X424750Y391124D01*
X424833Y391067D01*
X424919Y391013D01*
X425007Y390962D01*
X425096Y390915D01*
X425188Y390871D01*
X425281Y390831D01*
X425375Y390794D01*
X425471Y390762D01*
X425568Y390733D01*
X425666Y390707D01*
X425765Y390686D01*
X425865Y390668D01*
X425965Y390655D01*
X426066Y390645D01*
X426167Y390639D01*
X426268Y390637D01*
X426268Y390638D02*
X428879Y390638D01*
X425746Y390638D02*
X423658Y386461D01*
X419792Y386461D02*
X416659Y386461D01*
X416570Y386463D01*
X416482Y386469D01*
X416394Y386478D01*
X416306Y386491D01*
X416219Y386508D01*
X416133Y386528D01*
X416048Y386553D01*
X415963Y386580D01*
X415880Y386612D01*
X415799Y386646D01*
X415719Y386685D01*
X415641Y386726D01*
X415564Y386771D01*
X415490Y386819D01*
X415417Y386870D01*
X415347Y386924D01*
X415280Y386982D01*
X415214Y387042D01*
X415152Y387104D01*
X415092Y387170D01*
X415034Y387237D01*
X414980Y387307D01*
X414929Y387380D01*
X414881Y387454D01*
X414836Y387531D01*
X414795Y387609D01*
X414756Y387689D01*
X414722Y387770D01*
X414690Y387853D01*
X414663Y387938D01*
X414638Y388023D01*
X414618Y388109D01*
X414601Y388196D01*
X414588Y388284D01*
X414579Y388372D01*
X414573Y388460D01*
X414571Y388549D01*
X414571Y389594D01*
X414573Y389683D01*
X414579Y389771D01*
X414588Y389859D01*
X414601Y389947D01*
X414618Y390034D01*
X414638Y390120D01*
X414663Y390205D01*
X414690Y390290D01*
X414722Y390373D01*
X414756Y390454D01*
X414795Y390534D01*
X414836Y390612D01*
X414881Y390689D01*
X414929Y390763D01*
X414980Y390836D01*
X415034Y390906D01*
X415092Y390973D01*
X415152Y391039D01*
X415214Y391101D01*
X415280Y391161D01*
X415347Y391219D01*
X415417Y391273D01*
X415490Y391324D01*
X415564Y391372D01*
X415641Y391417D01*
X415719Y391458D01*
X415799Y391497D01*
X415880Y391531D01*
X415963Y391563D01*
X416048Y391590D01*
X416133Y391615D01*
X416219Y391635D01*
X416306Y391652D01*
X416394Y391665D01*
X416482Y391674D01*
X416570Y391680D01*
X416659Y391682D01*
X419792Y391682D01*
X419792Y395859D01*
X414571Y395859D01*
X649859Y843661D02*
X649859Y853059D01*
X647248Y853059D01*
X647147Y853057D01*
X647046Y853051D01*
X646945Y853041D01*
X646845Y853028D01*
X646745Y853010D01*
X646646Y852989D01*
X646548Y852963D01*
X646451Y852934D01*
X646355Y852902D01*
X646261Y852865D01*
X646168Y852825D01*
X646076Y852781D01*
X645987Y852734D01*
X645899Y852683D01*
X645813Y852629D01*
X645730Y852572D01*
X645648Y852512D01*
X645570Y852448D01*
X645493Y852382D01*
X645420Y852312D01*
X645349Y852240D01*
X645281Y852165D01*
X645216Y852087D01*
X645154Y852007D01*
X645095Y851925D01*
X645039Y851840D01*
X644987Y851754D01*
X644938Y851665D01*
X644892Y851574D01*
X644851Y851482D01*
X644812Y851388D01*
X644778Y851293D01*
X644747Y851197D01*
X644720Y851099D01*
X644696Y851001D01*
X644677Y850901D01*
X644661Y850801D01*
X644649Y850701D01*
X644641Y850600D01*
X644637Y850499D01*
X644637Y850397D01*
X644641Y850296D01*
X644649Y850195D01*
X644661Y850095D01*
X644677Y849995D01*
X644696Y849895D01*
X644720Y849797D01*
X644747Y849699D01*
X644778Y849603D01*
X644812Y849508D01*
X644851Y849414D01*
X644892Y849322D01*
X644938Y849231D01*
X644987Y849143D01*
X645039Y849056D01*
X645095Y848971D01*
X645154Y848889D01*
X645216Y848809D01*
X645281Y848731D01*
X645349Y848656D01*
X645420Y848584D01*
X645493Y848514D01*
X645570Y848448D01*
X645648Y848384D01*
X645730Y848324D01*
X645813Y848267D01*
X645899Y848213D01*
X645987Y848162D01*
X646076Y848115D01*
X646168Y848071D01*
X646261Y848031D01*
X646355Y847994D01*
X646451Y847962D01*
X646548Y847933D01*
X646646Y847907D01*
X646745Y847886D01*
X646845Y847868D01*
X646945Y847855D01*
X647046Y847845D01*
X647147Y847839D01*
X647248Y847837D01*
X647248Y847838D02*
X649859Y847838D01*
X646726Y847838D02*
X644638Y843661D01*
X640772Y845749D02*
X638684Y853059D01*
X640772Y845749D02*
X635551Y845749D01*
X637117Y847838D02*
X637117Y843661D01*
X631628Y843661D02*
X628495Y843661D01*
X628406Y843663D01*
X628318Y843669D01*
X628230Y843678D01*
X628142Y843691D01*
X628055Y843708D01*
X627969Y843728D01*
X627884Y843753D01*
X627799Y843780D01*
X627716Y843812D01*
X627635Y843846D01*
X627555Y843885D01*
X627477Y843926D01*
X627400Y843971D01*
X627326Y844019D01*
X627253Y844070D01*
X627183Y844124D01*
X627116Y844182D01*
X627050Y844242D01*
X626988Y844304D01*
X626928Y844370D01*
X626870Y844437D01*
X626816Y844507D01*
X626765Y844580D01*
X626717Y844654D01*
X626672Y844731D01*
X626631Y844809D01*
X626592Y844889D01*
X626558Y844970D01*
X626526Y845053D01*
X626499Y845138D01*
X626474Y845223D01*
X626454Y845309D01*
X626437Y845396D01*
X626424Y845484D01*
X626415Y845572D01*
X626409Y845660D01*
X626407Y845749D01*
X626407Y846794D01*
X626409Y846883D01*
X626415Y846971D01*
X626424Y847059D01*
X626437Y847147D01*
X626454Y847234D01*
X626474Y847320D01*
X626499Y847405D01*
X626526Y847490D01*
X626558Y847573D01*
X626592Y847654D01*
X626631Y847734D01*
X626672Y847812D01*
X626717Y847889D01*
X626765Y847963D01*
X626816Y848036D01*
X626870Y848106D01*
X626928Y848173D01*
X626988Y848239D01*
X627050Y848301D01*
X627116Y848361D01*
X627183Y848419D01*
X627253Y848473D01*
X627326Y848524D01*
X627400Y848572D01*
X627477Y848617D01*
X627555Y848658D01*
X627635Y848697D01*
X627716Y848731D01*
X627799Y848763D01*
X627884Y848790D01*
X627969Y848815D01*
X628055Y848835D01*
X628142Y848852D01*
X628230Y848865D01*
X628318Y848874D01*
X628406Y848880D01*
X628495Y848882D01*
X631628Y848882D01*
X631628Y853059D01*
X626407Y853059D01*
X652399Y832739D02*
X652399Y823341D01*
X652399Y832739D02*
X649788Y832739D01*
X649687Y832737D01*
X649586Y832731D01*
X649485Y832721D01*
X649385Y832708D01*
X649285Y832690D01*
X649186Y832669D01*
X649088Y832643D01*
X648991Y832614D01*
X648895Y832582D01*
X648801Y832545D01*
X648708Y832505D01*
X648616Y832461D01*
X648527Y832414D01*
X648439Y832363D01*
X648353Y832309D01*
X648270Y832252D01*
X648188Y832192D01*
X648110Y832128D01*
X648033Y832062D01*
X647960Y831992D01*
X647889Y831920D01*
X647821Y831845D01*
X647756Y831767D01*
X647694Y831687D01*
X647635Y831605D01*
X647579Y831520D01*
X647527Y831434D01*
X647478Y831345D01*
X647432Y831254D01*
X647391Y831162D01*
X647352Y831068D01*
X647318Y830973D01*
X647287Y830877D01*
X647260Y830779D01*
X647236Y830681D01*
X647217Y830581D01*
X647201Y830481D01*
X647189Y830381D01*
X647181Y830280D01*
X647177Y830179D01*
X647177Y830077D01*
X647181Y829976D01*
X647189Y829875D01*
X647201Y829775D01*
X647217Y829675D01*
X647236Y829575D01*
X647260Y829477D01*
X647287Y829379D01*
X647318Y829283D01*
X647352Y829188D01*
X647391Y829094D01*
X647432Y829002D01*
X647478Y828911D01*
X647527Y828823D01*
X647579Y828736D01*
X647635Y828651D01*
X647694Y828569D01*
X647756Y828489D01*
X647821Y828411D01*
X647889Y828336D01*
X647960Y828264D01*
X648033Y828194D01*
X648110Y828128D01*
X648188Y828064D01*
X648270Y828004D01*
X648353Y827947D01*
X648439Y827893D01*
X648527Y827842D01*
X648616Y827795D01*
X648708Y827751D01*
X648801Y827711D01*
X648895Y827674D01*
X648991Y827642D01*
X649088Y827613D01*
X649186Y827587D01*
X649285Y827566D01*
X649385Y827548D01*
X649485Y827535D01*
X649586Y827525D01*
X649687Y827519D01*
X649788Y827517D01*
X649788Y827518D02*
X652399Y827518D01*
X649266Y827518D02*
X647178Y823341D01*
X643312Y825429D02*
X641224Y832739D01*
X643312Y825429D02*
X638091Y825429D01*
X639657Y827518D02*
X639657Y823341D01*
X634168Y828562D02*
X631035Y828562D01*
X630946Y828560D01*
X630858Y828554D01*
X630770Y828545D01*
X630682Y828532D01*
X630595Y828515D01*
X630509Y828495D01*
X630424Y828470D01*
X630339Y828443D01*
X630256Y828411D01*
X630175Y828377D01*
X630095Y828338D01*
X630017Y828297D01*
X629940Y828252D01*
X629866Y828204D01*
X629793Y828153D01*
X629723Y828099D01*
X629656Y828041D01*
X629590Y827981D01*
X629528Y827919D01*
X629468Y827853D01*
X629410Y827786D01*
X629356Y827716D01*
X629305Y827643D01*
X629257Y827569D01*
X629212Y827492D01*
X629171Y827414D01*
X629132Y827334D01*
X629098Y827253D01*
X629066Y827170D01*
X629039Y827085D01*
X629014Y827000D01*
X628994Y826914D01*
X628977Y826827D01*
X628964Y826739D01*
X628955Y826651D01*
X628949Y826563D01*
X628947Y826474D01*
X628947Y825952D01*
X628949Y825851D01*
X628955Y825750D01*
X628965Y825649D01*
X628978Y825549D01*
X628996Y825449D01*
X629017Y825350D01*
X629043Y825252D01*
X629072Y825155D01*
X629104Y825059D01*
X629141Y824965D01*
X629181Y824872D01*
X629225Y824780D01*
X629272Y824691D01*
X629323Y824603D01*
X629377Y824517D01*
X629434Y824434D01*
X629494Y824352D01*
X629558Y824274D01*
X629624Y824197D01*
X629694Y824124D01*
X629766Y824053D01*
X629841Y823985D01*
X629919Y823920D01*
X629999Y823858D01*
X630081Y823799D01*
X630166Y823743D01*
X630253Y823691D01*
X630341Y823642D01*
X630432Y823596D01*
X630524Y823555D01*
X630618Y823516D01*
X630713Y823482D01*
X630809Y823451D01*
X630907Y823424D01*
X631005Y823400D01*
X631105Y823381D01*
X631205Y823365D01*
X631305Y823353D01*
X631406Y823345D01*
X631507Y823341D01*
X631609Y823341D01*
X631710Y823345D01*
X631811Y823353D01*
X631911Y823365D01*
X632011Y823381D01*
X632111Y823400D01*
X632209Y823424D01*
X632307Y823451D01*
X632403Y823482D01*
X632498Y823516D01*
X632592Y823555D01*
X632684Y823596D01*
X632775Y823642D01*
X632864Y823691D01*
X632950Y823743D01*
X633035Y823799D01*
X633117Y823858D01*
X633197Y823920D01*
X633275Y823985D01*
X633350Y824053D01*
X633422Y824124D01*
X633492Y824197D01*
X633558Y824274D01*
X633622Y824352D01*
X633682Y824434D01*
X633739Y824517D01*
X633793Y824603D01*
X633844Y824691D01*
X633891Y824780D01*
X633935Y824872D01*
X633975Y824965D01*
X634012Y825059D01*
X634044Y825155D01*
X634073Y825252D01*
X634099Y825350D01*
X634120Y825449D01*
X634138Y825549D01*
X634151Y825649D01*
X634161Y825750D01*
X634167Y825851D01*
X634169Y825952D01*
X634168Y825952D02*
X634168Y828562D01*
X634166Y828688D01*
X634160Y828814D01*
X634151Y828940D01*
X634138Y829065D01*
X634120Y829190D01*
X634100Y829315D01*
X634075Y829439D01*
X634047Y829562D01*
X634015Y829684D01*
X633979Y829805D01*
X633940Y829925D01*
X633897Y830043D01*
X633850Y830160D01*
X633800Y830276D01*
X633746Y830391D01*
X633690Y830503D01*
X633629Y830614D01*
X633566Y830723D01*
X633499Y830830D01*
X633429Y830935D01*
X633355Y831038D01*
X633279Y831138D01*
X633200Y831236D01*
X633118Y831332D01*
X633032Y831425D01*
X632945Y831516D01*
X632854Y831603D01*
X632761Y831689D01*
X632665Y831771D01*
X632567Y831850D01*
X632467Y831926D01*
X632364Y832000D01*
X632259Y832070D01*
X632152Y832137D01*
X632043Y832200D01*
X631932Y832261D01*
X631820Y832317D01*
X631705Y832371D01*
X631589Y832421D01*
X631472Y832468D01*
X631354Y832511D01*
X631234Y832550D01*
X631113Y832586D01*
X630991Y832618D01*
X630868Y832646D01*
X630744Y832671D01*
X630619Y832691D01*
X630494Y832709D01*
X630369Y832722D01*
X630243Y832731D01*
X630117Y832737D01*
X629991Y832739D01*
X433959Y811827D02*
X424561Y811827D01*
X433959Y811827D02*
X433959Y814438D01*
X433957Y814539D01*
X433951Y814640D01*
X433941Y814741D01*
X433928Y814841D01*
X433910Y814941D01*
X433889Y815040D01*
X433863Y815138D01*
X433834Y815235D01*
X433802Y815331D01*
X433765Y815425D01*
X433725Y815518D01*
X433681Y815610D01*
X433634Y815699D01*
X433583Y815787D01*
X433529Y815873D01*
X433472Y815956D01*
X433412Y816038D01*
X433348Y816116D01*
X433282Y816193D01*
X433212Y816266D01*
X433140Y816337D01*
X433065Y816405D01*
X432987Y816470D01*
X432907Y816532D01*
X432825Y816591D01*
X432740Y816647D01*
X432654Y816699D01*
X432565Y816748D01*
X432474Y816794D01*
X432382Y816835D01*
X432288Y816874D01*
X432193Y816908D01*
X432097Y816939D01*
X431999Y816966D01*
X431901Y816990D01*
X431801Y817009D01*
X431701Y817025D01*
X431601Y817037D01*
X431500Y817045D01*
X431399Y817049D01*
X431297Y817049D01*
X431196Y817045D01*
X431095Y817037D01*
X430995Y817025D01*
X430895Y817009D01*
X430795Y816990D01*
X430697Y816966D01*
X430599Y816939D01*
X430503Y816908D01*
X430408Y816874D01*
X430314Y816835D01*
X430222Y816794D01*
X430131Y816748D01*
X430043Y816699D01*
X429956Y816647D01*
X429871Y816591D01*
X429789Y816532D01*
X429709Y816470D01*
X429631Y816405D01*
X429556Y816337D01*
X429484Y816266D01*
X429414Y816193D01*
X429348Y816116D01*
X429284Y816038D01*
X429224Y815956D01*
X429167Y815873D01*
X429113Y815787D01*
X429062Y815699D01*
X429015Y815610D01*
X428971Y815518D01*
X428931Y815425D01*
X428894Y815331D01*
X428862Y815235D01*
X428833Y815138D01*
X428807Y815040D01*
X428786Y814941D01*
X428768Y814841D01*
X428755Y814741D01*
X428745Y814640D01*
X428739Y814539D01*
X428737Y814438D01*
X428738Y814438D02*
X428738Y811827D01*
X428738Y814960D02*
X424561Y817048D01*
X424561Y820914D02*
X424561Y823524D01*
X424563Y823625D01*
X424569Y823726D01*
X424579Y823827D01*
X424592Y823927D01*
X424610Y824027D01*
X424631Y824126D01*
X424657Y824224D01*
X424686Y824321D01*
X424718Y824417D01*
X424755Y824511D01*
X424795Y824604D01*
X424839Y824696D01*
X424886Y824785D01*
X424937Y824873D01*
X424991Y824959D01*
X425048Y825042D01*
X425108Y825124D01*
X425172Y825202D01*
X425238Y825279D01*
X425308Y825352D01*
X425380Y825423D01*
X425455Y825491D01*
X425533Y825556D01*
X425613Y825618D01*
X425695Y825677D01*
X425780Y825733D01*
X425867Y825785D01*
X425955Y825834D01*
X426046Y825880D01*
X426138Y825921D01*
X426232Y825960D01*
X426327Y825994D01*
X426423Y826025D01*
X426521Y826052D01*
X426619Y826076D01*
X426719Y826095D01*
X426819Y826111D01*
X426919Y826123D01*
X427020Y826131D01*
X427121Y826135D01*
X427223Y826135D01*
X427324Y826131D01*
X427425Y826123D01*
X427525Y826111D01*
X427625Y826095D01*
X427725Y826076D01*
X427823Y826052D01*
X427921Y826025D01*
X428017Y825994D01*
X428112Y825960D01*
X428206Y825921D01*
X428298Y825880D01*
X428389Y825834D01*
X428478Y825785D01*
X428564Y825733D01*
X428649Y825677D01*
X428731Y825618D01*
X428811Y825556D01*
X428889Y825491D01*
X428964Y825423D01*
X429036Y825352D01*
X429106Y825279D01*
X429172Y825202D01*
X429236Y825124D01*
X429296Y825042D01*
X429353Y824959D01*
X429407Y824873D01*
X429458Y824785D01*
X429505Y824696D01*
X429549Y824604D01*
X429589Y824511D01*
X429626Y824417D01*
X429658Y824321D01*
X429687Y824224D01*
X429713Y824126D01*
X429734Y824027D01*
X429752Y823927D01*
X429765Y823827D01*
X429775Y823726D01*
X429781Y823625D01*
X429783Y823524D01*
X433959Y824047D02*
X433959Y820914D01*
X433959Y824047D02*
X433957Y824137D01*
X433951Y824226D01*
X433942Y824316D01*
X433928Y824405D01*
X433911Y824493D01*
X433890Y824580D01*
X433865Y824667D01*
X433836Y824752D01*
X433804Y824836D01*
X433769Y824918D01*
X433729Y824999D01*
X433687Y825078D01*
X433641Y825155D01*
X433591Y825230D01*
X433539Y825303D01*
X433483Y825374D01*
X433425Y825442D01*
X433363Y825507D01*
X433299Y825570D01*
X433232Y825630D01*
X433163Y825687D01*
X433091Y825741D01*
X433017Y825792D01*
X432941Y825840D01*
X432863Y825884D01*
X432783Y825925D01*
X432701Y825963D01*
X432618Y825997D01*
X432533Y826027D01*
X432447Y826054D01*
X432361Y826077D01*
X432273Y826096D01*
X432184Y826111D01*
X432095Y826123D01*
X432006Y826131D01*
X431916Y826135D01*
X431826Y826135D01*
X431736Y826131D01*
X431647Y826123D01*
X431558Y826111D01*
X431469Y826096D01*
X431381Y826077D01*
X431295Y826054D01*
X431209Y826027D01*
X431124Y825997D01*
X431041Y825963D01*
X430959Y825925D01*
X430879Y825884D01*
X430801Y825840D01*
X430725Y825792D01*
X430651Y825741D01*
X430579Y825687D01*
X430510Y825630D01*
X430443Y825570D01*
X430379Y825507D01*
X430317Y825442D01*
X430259Y825374D01*
X430203Y825303D01*
X430151Y825230D01*
X430101Y825155D01*
X430055Y825078D01*
X430013Y824999D01*
X429973Y824918D01*
X429938Y824836D01*
X429906Y824752D01*
X429877Y824667D01*
X429852Y824580D01*
X429831Y824493D01*
X429814Y824405D01*
X429800Y824316D01*
X429791Y824226D01*
X429785Y824137D01*
X429783Y824047D01*
X429782Y824047D02*
X429782Y821958D01*
X428738Y832146D02*
X428738Y835279D01*
X428738Y832146D02*
X428740Y832057D01*
X428746Y831969D01*
X428755Y831881D01*
X428768Y831793D01*
X428785Y831706D01*
X428805Y831620D01*
X428830Y831535D01*
X428857Y831450D01*
X428889Y831367D01*
X428923Y831286D01*
X428962Y831206D01*
X429003Y831128D01*
X429048Y831051D01*
X429096Y830977D01*
X429147Y830904D01*
X429201Y830834D01*
X429259Y830767D01*
X429319Y830701D01*
X429381Y830639D01*
X429447Y830579D01*
X429514Y830521D01*
X429584Y830467D01*
X429657Y830416D01*
X429731Y830368D01*
X429808Y830323D01*
X429886Y830282D01*
X429966Y830243D01*
X430047Y830209D01*
X430130Y830177D01*
X430215Y830150D01*
X430300Y830125D01*
X430386Y830105D01*
X430473Y830088D01*
X430561Y830075D01*
X430649Y830066D01*
X430737Y830060D01*
X430826Y830058D01*
X431348Y830058D01*
X431348Y830057D02*
X431449Y830059D01*
X431550Y830065D01*
X431651Y830075D01*
X431751Y830088D01*
X431851Y830106D01*
X431950Y830127D01*
X432048Y830153D01*
X432145Y830182D01*
X432241Y830214D01*
X432335Y830251D01*
X432428Y830291D01*
X432520Y830335D01*
X432609Y830382D01*
X432697Y830433D01*
X432783Y830487D01*
X432866Y830544D01*
X432948Y830604D01*
X433026Y830668D01*
X433103Y830734D01*
X433176Y830804D01*
X433247Y830876D01*
X433315Y830951D01*
X433380Y831029D01*
X433442Y831109D01*
X433501Y831191D01*
X433557Y831276D01*
X433609Y831363D01*
X433658Y831451D01*
X433704Y831542D01*
X433745Y831634D01*
X433784Y831728D01*
X433818Y831823D01*
X433849Y831919D01*
X433876Y832017D01*
X433900Y832115D01*
X433919Y832215D01*
X433935Y832315D01*
X433947Y832415D01*
X433955Y832516D01*
X433959Y832617D01*
X433959Y832719D01*
X433955Y832820D01*
X433947Y832921D01*
X433935Y833021D01*
X433919Y833121D01*
X433900Y833221D01*
X433876Y833319D01*
X433849Y833417D01*
X433818Y833513D01*
X433784Y833608D01*
X433745Y833702D01*
X433704Y833794D01*
X433658Y833885D01*
X433609Y833974D01*
X433557Y834060D01*
X433501Y834145D01*
X433442Y834227D01*
X433380Y834307D01*
X433315Y834385D01*
X433247Y834460D01*
X433176Y834532D01*
X433103Y834602D01*
X433026Y834668D01*
X432948Y834732D01*
X432866Y834792D01*
X432783Y834849D01*
X432697Y834903D01*
X432609Y834954D01*
X432520Y835001D01*
X432428Y835045D01*
X432335Y835085D01*
X432241Y835122D01*
X432145Y835154D01*
X432048Y835183D01*
X431950Y835209D01*
X431851Y835230D01*
X431751Y835248D01*
X431651Y835261D01*
X431550Y835271D01*
X431449Y835277D01*
X431348Y835279D01*
X428738Y835279D01*
X428612Y835277D01*
X428486Y835271D01*
X428360Y835262D01*
X428235Y835249D01*
X428110Y835231D01*
X427985Y835211D01*
X427861Y835186D01*
X427738Y835158D01*
X427616Y835126D01*
X427495Y835090D01*
X427375Y835051D01*
X427257Y835008D01*
X427140Y834961D01*
X427024Y834911D01*
X426909Y834857D01*
X426797Y834801D01*
X426686Y834740D01*
X426577Y834677D01*
X426470Y834610D01*
X426365Y834540D01*
X426262Y834466D01*
X426162Y834390D01*
X426064Y834311D01*
X425968Y834229D01*
X425875Y834143D01*
X425784Y834056D01*
X425697Y833965D01*
X425611Y833872D01*
X425529Y833776D01*
X425450Y833678D01*
X425374Y833578D01*
X425300Y833475D01*
X425230Y833370D01*
X425163Y833263D01*
X425100Y833154D01*
X425039Y833043D01*
X424983Y832931D01*
X424929Y832816D01*
X424879Y832700D01*
X424832Y832583D01*
X424789Y832465D01*
X424750Y832345D01*
X424714Y832224D01*
X424682Y832102D01*
X424654Y831979D01*
X424629Y831855D01*
X424609Y831730D01*
X424591Y831605D01*
X424578Y831480D01*
X424569Y831354D01*
X424563Y831228D01*
X424561Y831102D01*
X444881Y811827D02*
X454279Y811827D01*
X454279Y814438D01*
X454277Y814539D01*
X454271Y814640D01*
X454261Y814741D01*
X454248Y814841D01*
X454230Y814941D01*
X454209Y815040D01*
X454183Y815138D01*
X454154Y815235D01*
X454122Y815331D01*
X454085Y815425D01*
X454045Y815518D01*
X454001Y815610D01*
X453954Y815699D01*
X453903Y815787D01*
X453849Y815873D01*
X453792Y815956D01*
X453732Y816038D01*
X453668Y816116D01*
X453602Y816193D01*
X453532Y816266D01*
X453460Y816337D01*
X453385Y816405D01*
X453307Y816470D01*
X453227Y816532D01*
X453145Y816591D01*
X453060Y816647D01*
X452974Y816699D01*
X452885Y816748D01*
X452794Y816794D01*
X452702Y816835D01*
X452608Y816874D01*
X452513Y816908D01*
X452417Y816939D01*
X452319Y816966D01*
X452221Y816990D01*
X452121Y817009D01*
X452021Y817025D01*
X451921Y817037D01*
X451820Y817045D01*
X451719Y817049D01*
X451617Y817049D01*
X451516Y817045D01*
X451415Y817037D01*
X451315Y817025D01*
X451215Y817009D01*
X451115Y816990D01*
X451017Y816966D01*
X450919Y816939D01*
X450823Y816908D01*
X450728Y816874D01*
X450634Y816835D01*
X450542Y816794D01*
X450451Y816748D01*
X450363Y816699D01*
X450276Y816647D01*
X450191Y816591D01*
X450109Y816532D01*
X450029Y816470D01*
X449951Y816405D01*
X449876Y816337D01*
X449804Y816266D01*
X449734Y816193D01*
X449668Y816116D01*
X449604Y816038D01*
X449544Y815956D01*
X449487Y815873D01*
X449433Y815787D01*
X449382Y815699D01*
X449335Y815610D01*
X449291Y815518D01*
X449251Y815425D01*
X449214Y815331D01*
X449182Y815235D01*
X449153Y815138D01*
X449127Y815040D01*
X449106Y814941D01*
X449088Y814841D01*
X449075Y814741D01*
X449065Y814640D01*
X449059Y814539D01*
X449057Y814438D01*
X449058Y814438D02*
X449058Y811827D01*
X449058Y814960D02*
X444881Y817048D01*
X446969Y820914D02*
X454279Y823002D01*
X446969Y820914D02*
X446969Y826135D01*
X449058Y824569D02*
X444881Y824569D01*
X449580Y830058D02*
X449765Y830060D01*
X449950Y830067D01*
X450134Y830078D01*
X450318Y830093D01*
X450502Y830113D01*
X450686Y830137D01*
X450868Y830166D01*
X451050Y830199D01*
X451231Y830236D01*
X451411Y830278D01*
X451591Y830324D01*
X451769Y830374D01*
X451945Y830428D01*
X452121Y830487D01*
X452295Y830549D01*
X452467Y830616D01*
X452638Y830687D01*
X452807Y830762D01*
X452974Y830841D01*
X452974Y830840D02*
X453054Y830870D01*
X453133Y830903D01*
X453210Y830940D01*
X453286Y830980D01*
X453360Y831023D01*
X453432Y831069D01*
X453501Y831119D01*
X453569Y831171D01*
X453634Y831227D01*
X453697Y831285D01*
X453756Y831347D01*
X453814Y831410D01*
X453868Y831477D01*
X453919Y831545D01*
X453967Y831616D01*
X454012Y831689D01*
X454054Y831763D01*
X454092Y831840D01*
X454127Y831918D01*
X454159Y831997D01*
X454187Y832078D01*
X454211Y832160D01*
X454232Y832244D01*
X454249Y832327D01*
X454262Y832412D01*
X454271Y832497D01*
X454277Y832582D01*
X454279Y832668D01*
X454277Y832754D01*
X454271Y832839D01*
X454262Y832924D01*
X454249Y833009D01*
X454232Y833092D01*
X454211Y833176D01*
X454187Y833258D01*
X454159Y833339D01*
X454127Y833418D01*
X454092Y833496D01*
X454054Y833573D01*
X454012Y833647D01*
X453967Y833720D01*
X453919Y833791D01*
X453868Y833859D01*
X453814Y833926D01*
X453756Y833989D01*
X453697Y834051D01*
X453634Y834109D01*
X453569Y834165D01*
X453501Y834217D01*
X453432Y834267D01*
X453360Y834313D01*
X453286Y834356D01*
X453210Y834396D01*
X453133Y834433D01*
X453054Y834466D01*
X452974Y834496D01*
X452807Y834575D01*
X452638Y834650D01*
X452467Y834721D01*
X452295Y834788D01*
X452121Y834850D01*
X451945Y834909D01*
X451769Y834963D01*
X451591Y835013D01*
X451411Y835059D01*
X451231Y835101D01*
X451050Y835138D01*
X450868Y835171D01*
X450686Y835200D01*
X450502Y835224D01*
X450318Y835244D01*
X450134Y835259D01*
X449950Y835270D01*
X449765Y835277D01*
X449580Y835279D01*
X449580Y830058D02*
X449395Y830060D01*
X449210Y830067D01*
X449026Y830078D01*
X448842Y830093D01*
X448658Y830113D01*
X448474Y830137D01*
X448292Y830166D01*
X448110Y830199D01*
X447929Y830236D01*
X447749Y830278D01*
X447569Y830324D01*
X447391Y830374D01*
X447215Y830428D01*
X447039Y830487D01*
X446865Y830549D01*
X446693Y830616D01*
X446522Y830687D01*
X446353Y830762D01*
X446186Y830841D01*
X446186Y830840D02*
X446106Y830870D01*
X446027Y830903D01*
X445950Y830940D01*
X445874Y830980D01*
X445800Y831023D01*
X445728Y831069D01*
X445659Y831119D01*
X445591Y831172D01*
X445526Y831227D01*
X445463Y831286D01*
X445404Y831347D01*
X445346Y831410D01*
X445292Y831477D01*
X445241Y831545D01*
X445193Y831616D01*
X445148Y831689D01*
X445106Y831763D01*
X445068Y831840D01*
X445033Y831918D01*
X445001Y831997D01*
X444973Y832078D01*
X444949Y832160D01*
X444928Y832244D01*
X444911Y832327D01*
X444898Y832412D01*
X444889Y832497D01*
X444883Y832582D01*
X444881Y832668D01*
X446186Y834496D02*
X446353Y834575D01*
X446522Y834650D01*
X446693Y834721D01*
X446865Y834788D01*
X447039Y834850D01*
X447215Y834909D01*
X447391Y834963D01*
X447569Y835013D01*
X447749Y835059D01*
X447929Y835101D01*
X448110Y835138D01*
X448292Y835171D01*
X448474Y835200D01*
X448658Y835224D01*
X448842Y835244D01*
X449026Y835259D01*
X449210Y835270D01*
X449395Y835277D01*
X449580Y835279D01*
X446186Y834496D02*
X446106Y834466D01*
X446027Y834433D01*
X445950Y834396D01*
X445874Y834356D01*
X445800Y834313D01*
X445728Y834267D01*
X445659Y834217D01*
X445591Y834165D01*
X445526Y834109D01*
X445463Y834051D01*
X445404Y833989D01*
X445346Y833926D01*
X445292Y833859D01*
X445241Y833791D01*
X445193Y833720D01*
X445148Y833647D01*
X445106Y833573D01*
X445068Y833496D01*
X445033Y833418D01*
X445001Y833339D01*
X444973Y833258D01*
X444949Y833176D01*
X444928Y833092D01*
X444911Y833009D01*
X444898Y832924D01*
X444889Y832839D01*
X444883Y832754D01*
X444881Y832668D01*
X446969Y830580D02*
X452191Y834757D01*
X497459Y902081D02*
X497459Y911479D01*
X494848Y911479D01*
X494747Y911477D01*
X494646Y911471D01*
X494545Y911461D01*
X494445Y911448D01*
X494345Y911430D01*
X494246Y911409D01*
X494148Y911383D01*
X494051Y911354D01*
X493955Y911322D01*
X493861Y911285D01*
X493768Y911245D01*
X493676Y911201D01*
X493587Y911154D01*
X493499Y911103D01*
X493413Y911049D01*
X493330Y910992D01*
X493248Y910932D01*
X493170Y910868D01*
X493093Y910802D01*
X493020Y910732D01*
X492949Y910660D01*
X492881Y910585D01*
X492816Y910507D01*
X492754Y910427D01*
X492695Y910345D01*
X492639Y910260D01*
X492587Y910174D01*
X492538Y910085D01*
X492492Y909994D01*
X492451Y909902D01*
X492412Y909808D01*
X492378Y909713D01*
X492347Y909617D01*
X492320Y909519D01*
X492296Y909421D01*
X492277Y909321D01*
X492261Y909221D01*
X492249Y909121D01*
X492241Y909020D01*
X492237Y908919D01*
X492237Y908817D01*
X492241Y908716D01*
X492249Y908615D01*
X492261Y908515D01*
X492277Y908415D01*
X492296Y908315D01*
X492320Y908217D01*
X492347Y908119D01*
X492378Y908023D01*
X492412Y907928D01*
X492451Y907834D01*
X492492Y907742D01*
X492538Y907651D01*
X492587Y907563D01*
X492639Y907476D01*
X492695Y907391D01*
X492754Y907309D01*
X492816Y907229D01*
X492881Y907151D01*
X492949Y907076D01*
X493020Y907004D01*
X493093Y906934D01*
X493170Y906868D01*
X493248Y906804D01*
X493330Y906744D01*
X493413Y906687D01*
X493499Y906633D01*
X493587Y906582D01*
X493676Y906535D01*
X493768Y906491D01*
X493861Y906451D01*
X493955Y906414D01*
X494051Y906382D01*
X494148Y906353D01*
X494246Y906327D01*
X494345Y906306D01*
X494445Y906288D01*
X494545Y906275D01*
X494646Y906265D01*
X494747Y906259D01*
X494848Y906257D01*
X494848Y906258D02*
X497459Y906258D01*
X494326Y906258D02*
X492238Y902081D01*
X488372Y904169D02*
X486284Y911479D01*
X488372Y904169D02*
X483151Y904169D01*
X484717Y906258D02*
X484717Y902081D01*
X479228Y910435D02*
X479228Y911479D01*
X474007Y911479D01*
X476618Y902081D01*
X497459Y875919D02*
X497459Y866521D01*
X497459Y875919D02*
X494848Y875919D01*
X494747Y875917D01*
X494646Y875911D01*
X494545Y875901D01*
X494445Y875888D01*
X494345Y875870D01*
X494246Y875849D01*
X494148Y875823D01*
X494051Y875794D01*
X493955Y875762D01*
X493861Y875725D01*
X493768Y875685D01*
X493676Y875641D01*
X493587Y875594D01*
X493499Y875543D01*
X493413Y875489D01*
X493330Y875432D01*
X493248Y875372D01*
X493170Y875308D01*
X493093Y875242D01*
X493020Y875172D01*
X492949Y875100D01*
X492881Y875025D01*
X492816Y874947D01*
X492754Y874867D01*
X492695Y874785D01*
X492639Y874700D01*
X492587Y874614D01*
X492538Y874525D01*
X492492Y874434D01*
X492451Y874342D01*
X492412Y874248D01*
X492378Y874153D01*
X492347Y874057D01*
X492320Y873959D01*
X492296Y873861D01*
X492277Y873761D01*
X492261Y873661D01*
X492249Y873561D01*
X492241Y873460D01*
X492237Y873359D01*
X492237Y873257D01*
X492241Y873156D01*
X492249Y873055D01*
X492261Y872955D01*
X492277Y872855D01*
X492296Y872755D01*
X492320Y872657D01*
X492347Y872559D01*
X492378Y872463D01*
X492412Y872368D01*
X492451Y872274D01*
X492492Y872182D01*
X492538Y872091D01*
X492587Y872003D01*
X492639Y871916D01*
X492695Y871831D01*
X492754Y871749D01*
X492816Y871669D01*
X492881Y871591D01*
X492949Y871516D01*
X493020Y871444D01*
X493093Y871374D01*
X493170Y871308D01*
X493248Y871244D01*
X493330Y871184D01*
X493413Y871127D01*
X493499Y871073D01*
X493587Y871022D01*
X493676Y870975D01*
X493768Y870931D01*
X493861Y870891D01*
X493955Y870854D01*
X494051Y870822D01*
X494148Y870793D01*
X494246Y870767D01*
X494345Y870746D01*
X494445Y870728D01*
X494545Y870715D01*
X494646Y870705D01*
X494747Y870699D01*
X494848Y870697D01*
X494848Y870698D02*
X497459Y870698D01*
X494326Y870698D02*
X492238Y866521D01*
X488372Y868609D02*
X486284Y875919D01*
X488372Y868609D02*
X483151Y868609D01*
X484717Y870698D02*
X484717Y866521D01*
X479228Y866521D02*
X476618Y866521D01*
X476517Y866523D01*
X476416Y866529D01*
X476315Y866539D01*
X476215Y866552D01*
X476115Y866570D01*
X476016Y866591D01*
X475918Y866617D01*
X475821Y866646D01*
X475725Y866678D01*
X475631Y866715D01*
X475538Y866755D01*
X475446Y866799D01*
X475357Y866846D01*
X475269Y866897D01*
X475183Y866951D01*
X475100Y867008D01*
X475018Y867068D01*
X474940Y867132D01*
X474863Y867198D01*
X474790Y867268D01*
X474719Y867340D01*
X474651Y867415D01*
X474586Y867493D01*
X474524Y867573D01*
X474465Y867655D01*
X474409Y867740D01*
X474357Y867827D01*
X474308Y867915D01*
X474262Y868006D01*
X474221Y868098D01*
X474182Y868192D01*
X474148Y868287D01*
X474117Y868383D01*
X474090Y868481D01*
X474066Y868579D01*
X474047Y868679D01*
X474031Y868779D01*
X474019Y868879D01*
X474011Y868980D01*
X474007Y869081D01*
X474007Y869183D01*
X474011Y869284D01*
X474019Y869385D01*
X474031Y869485D01*
X474047Y869585D01*
X474066Y869685D01*
X474090Y869783D01*
X474117Y869881D01*
X474148Y869977D01*
X474182Y870072D01*
X474221Y870166D01*
X474262Y870258D01*
X474308Y870349D01*
X474357Y870438D01*
X474409Y870524D01*
X474465Y870609D01*
X474524Y870691D01*
X474586Y870771D01*
X474651Y870849D01*
X474719Y870924D01*
X474790Y870996D01*
X474863Y871066D01*
X474940Y871132D01*
X475018Y871196D01*
X475100Y871256D01*
X475183Y871313D01*
X475269Y871367D01*
X475357Y871418D01*
X475446Y871465D01*
X475538Y871509D01*
X475631Y871549D01*
X475725Y871586D01*
X475821Y871618D01*
X475918Y871647D01*
X476016Y871673D01*
X476115Y871694D01*
X476215Y871712D01*
X476315Y871725D01*
X476416Y871735D01*
X476517Y871741D01*
X476618Y871743D01*
X476095Y875919D02*
X479228Y875919D01*
X476095Y875919D02*
X476005Y875917D01*
X475916Y875911D01*
X475826Y875902D01*
X475737Y875888D01*
X475649Y875871D01*
X475562Y875850D01*
X475475Y875825D01*
X475390Y875796D01*
X475306Y875764D01*
X475224Y875729D01*
X475143Y875689D01*
X475064Y875647D01*
X474987Y875601D01*
X474912Y875551D01*
X474839Y875499D01*
X474768Y875443D01*
X474700Y875385D01*
X474635Y875323D01*
X474572Y875259D01*
X474512Y875192D01*
X474455Y875123D01*
X474401Y875051D01*
X474350Y874977D01*
X474302Y874901D01*
X474258Y874823D01*
X474217Y874743D01*
X474179Y874661D01*
X474145Y874578D01*
X474115Y874493D01*
X474088Y874407D01*
X474065Y874321D01*
X474046Y874233D01*
X474031Y874144D01*
X474019Y874055D01*
X474011Y873966D01*
X474007Y873876D01*
X474007Y873786D01*
X474011Y873696D01*
X474019Y873607D01*
X474031Y873518D01*
X474046Y873429D01*
X474065Y873341D01*
X474088Y873255D01*
X474115Y873169D01*
X474145Y873084D01*
X474179Y873001D01*
X474217Y872919D01*
X474258Y872839D01*
X474302Y872761D01*
X474350Y872685D01*
X474401Y872611D01*
X474455Y872539D01*
X474512Y872470D01*
X474572Y872403D01*
X474635Y872339D01*
X474700Y872277D01*
X474768Y872219D01*
X474839Y872163D01*
X474912Y872111D01*
X474987Y872061D01*
X475064Y872015D01*
X475143Y871973D01*
X475224Y871933D01*
X475306Y871898D01*
X475390Y871866D01*
X475475Y871837D01*
X475562Y871812D01*
X475649Y871791D01*
X475737Y871774D01*
X475826Y871760D01*
X475916Y871751D01*
X476005Y871745D01*
X476095Y871743D01*
X476095Y871742D02*
X478184Y871742D01*
X494919Y832739D02*
X494919Y823341D01*
X494919Y832739D02*
X492308Y832739D01*
X492207Y832737D01*
X492106Y832731D01*
X492005Y832721D01*
X491905Y832708D01*
X491805Y832690D01*
X491706Y832669D01*
X491608Y832643D01*
X491511Y832614D01*
X491415Y832582D01*
X491321Y832545D01*
X491228Y832505D01*
X491136Y832461D01*
X491047Y832414D01*
X490959Y832363D01*
X490873Y832309D01*
X490790Y832252D01*
X490708Y832192D01*
X490630Y832128D01*
X490553Y832062D01*
X490480Y831992D01*
X490409Y831920D01*
X490341Y831845D01*
X490276Y831767D01*
X490214Y831687D01*
X490155Y831605D01*
X490099Y831520D01*
X490047Y831434D01*
X489998Y831345D01*
X489952Y831254D01*
X489911Y831162D01*
X489872Y831068D01*
X489838Y830973D01*
X489807Y830877D01*
X489780Y830779D01*
X489756Y830681D01*
X489737Y830581D01*
X489721Y830481D01*
X489709Y830381D01*
X489701Y830280D01*
X489697Y830179D01*
X489697Y830077D01*
X489701Y829976D01*
X489709Y829875D01*
X489721Y829775D01*
X489737Y829675D01*
X489756Y829575D01*
X489780Y829477D01*
X489807Y829379D01*
X489838Y829283D01*
X489872Y829188D01*
X489911Y829094D01*
X489952Y829002D01*
X489998Y828911D01*
X490047Y828823D01*
X490099Y828736D01*
X490155Y828651D01*
X490214Y828569D01*
X490276Y828489D01*
X490341Y828411D01*
X490409Y828336D01*
X490480Y828264D01*
X490553Y828194D01*
X490630Y828128D01*
X490708Y828064D01*
X490790Y828004D01*
X490873Y827947D01*
X490959Y827893D01*
X491047Y827842D01*
X491136Y827795D01*
X491228Y827751D01*
X491321Y827711D01*
X491415Y827674D01*
X491511Y827642D01*
X491608Y827613D01*
X491706Y827587D01*
X491805Y827566D01*
X491905Y827548D01*
X492005Y827535D01*
X492106Y827525D01*
X492207Y827519D01*
X492308Y827517D01*
X492308Y827518D02*
X494919Y827518D01*
X491786Y827518D02*
X489698Y823341D01*
X485832Y825429D02*
X483744Y832739D01*
X485832Y825429D02*
X480611Y825429D01*
X482177Y827518D02*
X482177Y823341D01*
X473817Y832740D02*
X473722Y832738D01*
X473628Y832732D01*
X473534Y832723D01*
X473440Y832710D01*
X473347Y832693D01*
X473255Y832672D01*
X473163Y832647D01*
X473073Y832619D01*
X472984Y832587D01*
X472896Y832552D01*
X472810Y832513D01*
X472725Y832471D01*
X472642Y832425D01*
X472561Y832376D01*
X472482Y832324D01*
X472405Y832269D01*
X472331Y832210D01*
X472259Y832149D01*
X472189Y832085D01*
X472122Y832018D01*
X472058Y831948D01*
X471997Y831876D01*
X471938Y831802D01*
X471883Y831725D01*
X471831Y831646D01*
X471782Y831565D01*
X471736Y831482D01*
X471694Y831397D01*
X471655Y831311D01*
X471620Y831223D01*
X471588Y831134D01*
X471560Y831044D01*
X471535Y830952D01*
X471514Y830860D01*
X471497Y830767D01*
X471484Y830673D01*
X471475Y830579D01*
X471469Y830485D01*
X471467Y830390D01*
X473817Y832739D02*
X473925Y832737D01*
X474034Y832731D01*
X474142Y832721D01*
X474249Y832708D01*
X474356Y832690D01*
X474463Y832669D01*
X474568Y832644D01*
X474673Y832615D01*
X474776Y832583D01*
X474878Y832546D01*
X474979Y832506D01*
X475078Y832463D01*
X475176Y832416D01*
X475272Y832365D01*
X475366Y832311D01*
X475458Y832254D01*
X475548Y832193D01*
X475636Y832129D01*
X475721Y832063D01*
X475804Y831993D01*
X475884Y831920D01*
X475962Y831844D01*
X476037Y831766D01*
X476109Y831685D01*
X476178Y831601D01*
X476244Y831515D01*
X476307Y831427D01*
X476366Y831336D01*
X476423Y831244D01*
X476476Y831149D01*
X476525Y831052D01*
X476571Y830954D01*
X476614Y830855D01*
X476653Y830753D01*
X476688Y830651D01*
X472250Y828562D02*
X472181Y828631D01*
X472115Y828702D01*
X472051Y828775D01*
X471990Y828851D01*
X471932Y828930D01*
X471878Y829010D01*
X471826Y829093D01*
X471778Y829177D01*
X471732Y829263D01*
X471691Y829351D01*
X471652Y829441D01*
X471617Y829532D01*
X471586Y829624D01*
X471558Y829717D01*
X471534Y829811D01*
X471514Y829906D01*
X471497Y830002D01*
X471484Y830099D01*
X471475Y830196D01*
X471469Y830293D01*
X471467Y830390D01*
X472250Y828562D02*
X476688Y823341D01*
X471467Y823341D01*
D12*
X587502Y374142D02*
X587502Y362458D01*
X587502Y374142D02*
X584256Y374142D01*
X584143Y374140D01*
X584030Y374134D01*
X583917Y374124D01*
X583804Y374110D01*
X583692Y374093D01*
X583581Y374071D01*
X583471Y374046D01*
X583361Y374016D01*
X583253Y373983D01*
X583146Y373946D01*
X583040Y373906D01*
X582936Y373861D01*
X582833Y373813D01*
X582732Y373762D01*
X582633Y373707D01*
X582536Y373649D01*
X582441Y373587D01*
X582348Y373522D01*
X582258Y373454D01*
X582170Y373383D01*
X582084Y373308D01*
X582001Y373231D01*
X581921Y373151D01*
X581844Y373068D01*
X581769Y372982D01*
X581698Y372894D01*
X581630Y372804D01*
X581565Y372711D01*
X581503Y372616D01*
X581445Y372519D01*
X581390Y372420D01*
X581339Y372319D01*
X581291Y372216D01*
X581246Y372112D01*
X581206Y372006D01*
X581169Y371899D01*
X581136Y371791D01*
X581106Y371681D01*
X581081Y371571D01*
X581059Y371460D01*
X581042Y371348D01*
X581028Y371235D01*
X581018Y371122D01*
X581012Y371009D01*
X581010Y370896D01*
X581012Y370783D01*
X581018Y370670D01*
X581028Y370557D01*
X581042Y370444D01*
X581059Y370332D01*
X581081Y370221D01*
X581106Y370111D01*
X581136Y370001D01*
X581169Y369893D01*
X581206Y369786D01*
X581246Y369680D01*
X581291Y369576D01*
X581339Y369473D01*
X581390Y369372D01*
X581445Y369273D01*
X581503Y369176D01*
X581565Y369081D01*
X581630Y368988D01*
X581698Y368898D01*
X581769Y368810D01*
X581844Y368724D01*
X581921Y368641D01*
X582001Y368561D01*
X582084Y368484D01*
X582170Y368409D01*
X582258Y368338D01*
X582348Y368270D01*
X582441Y368205D01*
X582536Y368143D01*
X582633Y368085D01*
X582732Y368030D01*
X582833Y367979D01*
X582936Y367931D01*
X583040Y367886D01*
X583146Y367846D01*
X583253Y367809D01*
X583361Y367776D01*
X583471Y367746D01*
X583581Y367721D01*
X583692Y367699D01*
X583804Y367682D01*
X583917Y367668D01*
X584030Y367658D01*
X584143Y367652D01*
X584256Y367650D01*
X584256Y367651D02*
X587502Y367651D01*
X583607Y367651D02*
X581011Y362458D01*
X576146Y368949D02*
X572251Y368949D01*
X572152Y368947D01*
X572052Y368941D01*
X571953Y368932D01*
X571855Y368919D01*
X571757Y368902D01*
X571659Y368881D01*
X571563Y368856D01*
X571468Y368828D01*
X571374Y368796D01*
X571281Y368761D01*
X571189Y368722D01*
X571099Y368679D01*
X571011Y368634D01*
X570924Y368584D01*
X570840Y368532D01*
X570757Y368476D01*
X570677Y368418D01*
X570599Y368356D01*
X570524Y368291D01*
X570451Y368223D01*
X570381Y368153D01*
X570313Y368080D01*
X570248Y368005D01*
X570186Y367927D01*
X570128Y367847D01*
X570072Y367764D01*
X570020Y367680D01*
X569970Y367593D01*
X569925Y367505D01*
X569882Y367415D01*
X569843Y367323D01*
X569808Y367230D01*
X569776Y367136D01*
X569748Y367041D01*
X569723Y366945D01*
X569702Y366847D01*
X569685Y366749D01*
X569672Y366651D01*
X569663Y366552D01*
X569657Y366452D01*
X569655Y366353D01*
X569655Y365704D01*
X569654Y365704D02*
X569656Y365591D01*
X569662Y365478D01*
X569672Y365365D01*
X569686Y365252D01*
X569703Y365140D01*
X569725Y365029D01*
X569750Y364919D01*
X569780Y364809D01*
X569813Y364701D01*
X569850Y364594D01*
X569890Y364488D01*
X569935Y364384D01*
X569983Y364281D01*
X570034Y364180D01*
X570089Y364081D01*
X570147Y363984D01*
X570209Y363889D01*
X570274Y363796D01*
X570342Y363706D01*
X570413Y363618D01*
X570488Y363532D01*
X570565Y363449D01*
X570645Y363369D01*
X570728Y363292D01*
X570814Y363217D01*
X570902Y363146D01*
X570992Y363078D01*
X571085Y363013D01*
X571180Y362951D01*
X571277Y362893D01*
X571376Y362838D01*
X571477Y362787D01*
X571580Y362739D01*
X571684Y362694D01*
X571790Y362654D01*
X571897Y362617D01*
X572005Y362584D01*
X572115Y362554D01*
X572225Y362529D01*
X572336Y362507D01*
X572448Y362490D01*
X572561Y362476D01*
X572674Y362466D01*
X572787Y362460D01*
X572900Y362458D01*
X573013Y362460D01*
X573126Y362466D01*
X573239Y362476D01*
X573352Y362490D01*
X573464Y362507D01*
X573575Y362529D01*
X573685Y362554D01*
X573795Y362584D01*
X573903Y362617D01*
X574010Y362654D01*
X574116Y362694D01*
X574220Y362739D01*
X574323Y362787D01*
X574424Y362838D01*
X574523Y362893D01*
X574620Y362951D01*
X574715Y363013D01*
X574808Y363078D01*
X574898Y363146D01*
X574986Y363217D01*
X575072Y363292D01*
X575155Y363369D01*
X575235Y363449D01*
X575312Y363532D01*
X575387Y363618D01*
X575458Y363706D01*
X575526Y363796D01*
X575591Y363889D01*
X575653Y363984D01*
X575711Y364081D01*
X575766Y364180D01*
X575817Y364281D01*
X575865Y364384D01*
X575910Y364488D01*
X575950Y364594D01*
X575987Y364701D01*
X576020Y364809D01*
X576050Y364919D01*
X576075Y365029D01*
X576097Y365140D01*
X576114Y365252D01*
X576128Y365365D01*
X576138Y365478D01*
X576144Y365591D01*
X576146Y365704D01*
X576146Y368949D01*
X576144Y369092D01*
X576138Y369235D01*
X576128Y369378D01*
X576114Y369520D01*
X576097Y369662D01*
X576075Y369804D01*
X576050Y369945D01*
X576020Y370085D01*
X575987Y370224D01*
X575950Y370362D01*
X575909Y370499D01*
X575865Y370635D01*
X575816Y370770D01*
X575764Y370903D01*
X575709Y371035D01*
X575649Y371165D01*
X575586Y371294D01*
X575520Y371421D01*
X575450Y371546D01*
X575377Y371668D01*
X575300Y371789D01*
X575220Y371908D01*
X575137Y372024D01*
X575051Y372139D01*
X574962Y372250D01*
X574869Y372360D01*
X574774Y372466D01*
X574675Y372570D01*
X574574Y372671D01*
X574470Y372770D01*
X574364Y372865D01*
X574254Y372958D01*
X574143Y373047D01*
X574028Y373133D01*
X573912Y373216D01*
X573793Y373296D01*
X573672Y373373D01*
X573550Y373446D01*
X573425Y373516D01*
X573298Y373582D01*
X573169Y373645D01*
X573039Y373705D01*
X572907Y373760D01*
X572774Y373812D01*
X572639Y373861D01*
X572503Y373905D01*
X572366Y373946D01*
X572228Y373983D01*
X572089Y374016D01*
X571949Y374046D01*
X571808Y374071D01*
X571666Y374093D01*
X571524Y374110D01*
X571382Y374124D01*
X571239Y374134D01*
X571096Y374140D01*
X570953Y374142D01*
X626618Y400558D02*
X638302Y400558D01*
X638302Y403804D01*
X638300Y403917D01*
X638294Y404030D01*
X638284Y404143D01*
X638270Y404256D01*
X638253Y404368D01*
X638231Y404479D01*
X638206Y404589D01*
X638176Y404699D01*
X638143Y404807D01*
X638106Y404914D01*
X638066Y405020D01*
X638021Y405124D01*
X637973Y405227D01*
X637922Y405328D01*
X637867Y405427D01*
X637809Y405524D01*
X637747Y405619D01*
X637682Y405712D01*
X637614Y405802D01*
X637543Y405890D01*
X637468Y405976D01*
X637391Y406059D01*
X637311Y406139D01*
X637228Y406216D01*
X637142Y406291D01*
X637054Y406362D01*
X636964Y406430D01*
X636871Y406495D01*
X636776Y406557D01*
X636679Y406615D01*
X636580Y406670D01*
X636479Y406721D01*
X636376Y406769D01*
X636272Y406814D01*
X636166Y406854D01*
X636059Y406891D01*
X635951Y406924D01*
X635841Y406954D01*
X635731Y406979D01*
X635620Y407001D01*
X635508Y407018D01*
X635395Y407032D01*
X635282Y407042D01*
X635169Y407048D01*
X635056Y407050D01*
X634943Y407048D01*
X634830Y407042D01*
X634717Y407032D01*
X634604Y407018D01*
X634492Y407001D01*
X634381Y406979D01*
X634271Y406954D01*
X634161Y406924D01*
X634053Y406891D01*
X633946Y406854D01*
X633840Y406814D01*
X633736Y406769D01*
X633633Y406721D01*
X633532Y406670D01*
X633433Y406615D01*
X633336Y406557D01*
X633241Y406495D01*
X633148Y406430D01*
X633058Y406362D01*
X632970Y406291D01*
X632884Y406216D01*
X632801Y406139D01*
X632721Y406059D01*
X632644Y405976D01*
X632569Y405890D01*
X632498Y405802D01*
X632430Y405712D01*
X632365Y405619D01*
X632303Y405524D01*
X632245Y405427D01*
X632190Y405328D01*
X632139Y405227D01*
X632091Y405124D01*
X632046Y405020D01*
X632006Y404914D01*
X631969Y404807D01*
X631936Y404699D01*
X631906Y404589D01*
X631881Y404479D01*
X631859Y404368D01*
X631842Y404256D01*
X631828Y404143D01*
X631818Y404030D01*
X631812Y403917D01*
X631810Y403804D01*
X631811Y403804D02*
X631811Y400558D01*
X631811Y404453D02*
X626618Y407049D01*
X629864Y411914D02*
X629977Y411916D01*
X630090Y411922D01*
X630203Y411932D01*
X630316Y411946D01*
X630428Y411963D01*
X630539Y411985D01*
X630649Y412010D01*
X630759Y412040D01*
X630867Y412073D01*
X630974Y412110D01*
X631080Y412150D01*
X631184Y412195D01*
X631287Y412243D01*
X631388Y412294D01*
X631487Y412349D01*
X631584Y412407D01*
X631679Y412469D01*
X631772Y412534D01*
X631862Y412602D01*
X631950Y412673D01*
X632036Y412748D01*
X632119Y412825D01*
X632199Y412905D01*
X632276Y412988D01*
X632351Y413074D01*
X632422Y413162D01*
X632490Y413252D01*
X632555Y413345D01*
X632617Y413440D01*
X632675Y413537D01*
X632730Y413636D01*
X632781Y413737D01*
X632829Y413840D01*
X632874Y413944D01*
X632914Y414050D01*
X632951Y414157D01*
X632984Y414265D01*
X633014Y414375D01*
X633039Y414485D01*
X633061Y414596D01*
X633078Y414708D01*
X633092Y414821D01*
X633102Y414934D01*
X633108Y415047D01*
X633110Y415160D01*
X633108Y415273D01*
X633102Y415386D01*
X633092Y415499D01*
X633078Y415612D01*
X633061Y415724D01*
X633039Y415835D01*
X633014Y415945D01*
X632984Y416055D01*
X632951Y416163D01*
X632914Y416270D01*
X632874Y416376D01*
X632829Y416480D01*
X632781Y416583D01*
X632730Y416684D01*
X632675Y416783D01*
X632617Y416880D01*
X632555Y416975D01*
X632490Y417068D01*
X632422Y417158D01*
X632351Y417246D01*
X632276Y417332D01*
X632199Y417415D01*
X632119Y417495D01*
X632036Y417572D01*
X631950Y417647D01*
X631862Y417718D01*
X631772Y417786D01*
X631679Y417851D01*
X631584Y417913D01*
X631487Y417971D01*
X631388Y418026D01*
X631287Y418077D01*
X631184Y418125D01*
X631080Y418170D01*
X630974Y418210D01*
X630867Y418247D01*
X630759Y418280D01*
X630649Y418310D01*
X630539Y418335D01*
X630428Y418357D01*
X630316Y418374D01*
X630203Y418388D01*
X630090Y418398D01*
X629977Y418404D01*
X629864Y418406D01*
X629751Y418404D01*
X629638Y418398D01*
X629525Y418388D01*
X629412Y418374D01*
X629300Y418357D01*
X629189Y418335D01*
X629079Y418310D01*
X628969Y418280D01*
X628861Y418247D01*
X628754Y418210D01*
X628648Y418170D01*
X628544Y418125D01*
X628441Y418077D01*
X628340Y418026D01*
X628241Y417971D01*
X628144Y417913D01*
X628049Y417851D01*
X627956Y417786D01*
X627866Y417718D01*
X627778Y417647D01*
X627692Y417572D01*
X627609Y417495D01*
X627529Y417415D01*
X627452Y417332D01*
X627377Y417246D01*
X627306Y417158D01*
X627238Y417068D01*
X627173Y416975D01*
X627111Y416880D01*
X627053Y416783D01*
X626998Y416684D01*
X626947Y416583D01*
X626899Y416480D01*
X626854Y416376D01*
X626814Y416270D01*
X626777Y416163D01*
X626744Y416055D01*
X626714Y415945D01*
X626689Y415835D01*
X626667Y415724D01*
X626650Y415612D01*
X626636Y415499D01*
X626626Y415386D01*
X626620Y415273D01*
X626618Y415160D01*
X626620Y415047D01*
X626626Y414934D01*
X626636Y414821D01*
X626650Y414708D01*
X626667Y414596D01*
X626689Y414485D01*
X626714Y414375D01*
X626744Y414265D01*
X626777Y414157D01*
X626814Y414050D01*
X626854Y413944D01*
X626899Y413840D01*
X626947Y413737D01*
X626998Y413636D01*
X627053Y413537D01*
X627111Y413440D01*
X627173Y413345D01*
X627238Y413252D01*
X627306Y413162D01*
X627377Y413074D01*
X627452Y412988D01*
X627529Y412905D01*
X627609Y412825D01*
X627692Y412748D01*
X627778Y412673D01*
X627866Y412602D01*
X627956Y412534D01*
X628049Y412469D01*
X628144Y412407D01*
X628241Y412349D01*
X628340Y412294D01*
X628441Y412243D01*
X628544Y412195D01*
X628648Y412150D01*
X628754Y412110D01*
X628861Y412073D01*
X628969Y412040D01*
X629079Y412010D01*
X629189Y411985D01*
X629300Y411963D01*
X629412Y411946D01*
X629525Y411932D01*
X629638Y411922D01*
X629751Y411916D01*
X629864Y411914D01*
X635706Y412564D02*
X635807Y412566D01*
X635907Y412572D01*
X636007Y412582D01*
X636107Y412595D01*
X636206Y412613D01*
X636305Y412634D01*
X636402Y412659D01*
X636499Y412688D01*
X636594Y412721D01*
X636688Y412757D01*
X636780Y412797D01*
X636871Y412840D01*
X636960Y412887D01*
X637047Y412937D01*
X637133Y412991D01*
X637216Y413048D01*
X637296Y413108D01*
X637375Y413171D01*
X637451Y413238D01*
X637524Y413307D01*
X637594Y413379D01*
X637662Y413453D01*
X637727Y413530D01*
X637788Y413610D01*
X637847Y413692D01*
X637902Y413776D01*
X637954Y413862D01*
X638003Y413950D01*
X638048Y414040D01*
X638090Y414132D01*
X638128Y414225D01*
X638162Y414320D01*
X638193Y414415D01*
X638220Y414512D01*
X638243Y414610D01*
X638263Y414709D01*
X638278Y414809D01*
X638290Y414909D01*
X638298Y415009D01*
X638302Y415110D01*
X638302Y415210D01*
X638298Y415311D01*
X638290Y415411D01*
X638278Y415511D01*
X638263Y415611D01*
X638243Y415710D01*
X638220Y415808D01*
X638193Y415905D01*
X638162Y416000D01*
X638128Y416095D01*
X638090Y416188D01*
X638048Y416280D01*
X638003Y416370D01*
X637954Y416458D01*
X637902Y416544D01*
X637847Y416628D01*
X637788Y416710D01*
X637727Y416790D01*
X637662Y416867D01*
X637594Y416941D01*
X637524Y417013D01*
X637451Y417082D01*
X637375Y417149D01*
X637296Y417212D01*
X637216Y417272D01*
X637133Y417329D01*
X637047Y417383D01*
X636960Y417433D01*
X636871Y417480D01*
X636780Y417523D01*
X636688Y417563D01*
X636594Y417599D01*
X636499Y417632D01*
X636402Y417661D01*
X636305Y417686D01*
X636206Y417707D01*
X636107Y417725D01*
X636007Y417738D01*
X635907Y417748D01*
X635807Y417754D01*
X635706Y417756D01*
X635605Y417754D01*
X635505Y417748D01*
X635405Y417738D01*
X635305Y417725D01*
X635206Y417707D01*
X635107Y417686D01*
X635010Y417661D01*
X634913Y417632D01*
X634818Y417599D01*
X634724Y417563D01*
X634632Y417523D01*
X634541Y417480D01*
X634452Y417433D01*
X634365Y417383D01*
X634279Y417329D01*
X634196Y417272D01*
X634116Y417212D01*
X634037Y417149D01*
X633961Y417082D01*
X633888Y417013D01*
X633818Y416941D01*
X633750Y416867D01*
X633685Y416790D01*
X633624Y416710D01*
X633565Y416628D01*
X633510Y416544D01*
X633458Y416458D01*
X633409Y416370D01*
X633364Y416280D01*
X633322Y416188D01*
X633284Y416095D01*
X633250Y416000D01*
X633219Y415905D01*
X633192Y415808D01*
X633169Y415710D01*
X633149Y415611D01*
X633134Y415511D01*
X633122Y415411D01*
X633114Y415311D01*
X633110Y415210D01*
X633110Y415110D01*
X633114Y415009D01*
X633122Y414909D01*
X633134Y414809D01*
X633149Y414709D01*
X633169Y414610D01*
X633192Y414512D01*
X633219Y414415D01*
X633250Y414320D01*
X633284Y414225D01*
X633322Y414132D01*
X633364Y414040D01*
X633409Y413950D01*
X633458Y413862D01*
X633510Y413776D01*
X633565Y413692D01*
X633624Y413610D01*
X633685Y413530D01*
X633750Y413453D01*
X633818Y413379D01*
X633888Y413307D01*
X633961Y413238D01*
X634037Y413171D01*
X634116Y413108D01*
X634196Y413048D01*
X634279Y412991D01*
X634365Y412937D01*
X634452Y412887D01*
X634541Y412840D01*
X634632Y412797D01*
X634724Y412757D01*
X634818Y412721D01*
X634913Y412688D01*
X635010Y412659D01*
X635107Y412634D01*
X635206Y412613D01*
X635305Y412595D01*
X635405Y412582D01*
X635505Y412572D01*
X635605Y412566D01*
X635706Y412564D01*
D13*
X678280Y490520D02*
X1008280Y490520D01*
X1008280Y719520D01*
X678280Y719520D01*
X678280Y490520D01*
D10*
X683280Y528520D02*
X683282Y528609D01*
X683288Y528698D01*
X683298Y528787D01*
X683312Y528875D01*
X683329Y528962D01*
X683351Y529048D01*
X683377Y529134D01*
X683406Y529218D01*
X683439Y529301D01*
X683475Y529382D01*
X683516Y529462D01*
X683559Y529539D01*
X683606Y529615D01*
X683657Y529688D01*
X683710Y529759D01*
X683767Y529828D01*
X683827Y529894D01*
X683890Y529958D01*
X683955Y530018D01*
X684023Y530076D01*
X684094Y530130D01*
X684167Y530181D01*
X684242Y530229D01*
X684319Y530274D01*
X684398Y530315D01*
X684479Y530352D01*
X684561Y530386D01*
X684645Y530417D01*
X684730Y530443D01*
X684816Y530466D01*
X684903Y530484D01*
X684991Y530499D01*
X685080Y530510D01*
X685169Y530517D01*
X685258Y530520D01*
X685347Y530519D01*
X685436Y530514D01*
X685524Y530505D01*
X685613Y530492D01*
X685700Y530475D01*
X685787Y530455D01*
X685873Y530430D01*
X685957Y530402D01*
X686040Y530370D01*
X686122Y530334D01*
X686202Y530295D01*
X686280Y530252D01*
X686356Y530206D01*
X686430Y530156D01*
X686502Y530103D01*
X686571Y530047D01*
X686638Y529988D01*
X686702Y529926D01*
X686763Y529862D01*
X686822Y529794D01*
X686877Y529724D01*
X686929Y529652D01*
X686978Y529577D01*
X687023Y529501D01*
X687065Y529422D01*
X687103Y529342D01*
X687138Y529260D01*
X687169Y529176D01*
X687197Y529091D01*
X687220Y529005D01*
X687240Y528918D01*
X687256Y528831D01*
X687268Y528742D01*
X687276Y528654D01*
X687280Y528565D01*
X687280Y528475D01*
X687276Y528386D01*
X687268Y528298D01*
X687256Y528209D01*
X687240Y528122D01*
X687220Y528035D01*
X687197Y527949D01*
X687169Y527864D01*
X687138Y527780D01*
X687103Y527698D01*
X687065Y527618D01*
X687023Y527539D01*
X686978Y527463D01*
X686929Y527388D01*
X686877Y527316D01*
X686822Y527246D01*
X686763Y527178D01*
X686702Y527114D01*
X686638Y527052D01*
X686571Y526993D01*
X686502Y526937D01*
X686430Y526884D01*
X686356Y526834D01*
X686280Y526788D01*
X686202Y526745D01*
X686122Y526706D01*
X686040Y526670D01*
X685957Y526638D01*
X685873Y526610D01*
X685787Y526585D01*
X685700Y526565D01*
X685613Y526548D01*
X685524Y526535D01*
X685436Y526526D01*
X685347Y526521D01*
X685258Y526520D01*
X685169Y526523D01*
X685080Y526530D01*
X684991Y526541D01*
X684903Y526556D01*
X684816Y526574D01*
X684730Y526597D01*
X684645Y526623D01*
X684561Y526654D01*
X684479Y526688D01*
X684398Y526725D01*
X684319Y526766D01*
X684242Y526811D01*
X684167Y526859D01*
X684094Y526910D01*
X684023Y526964D01*
X683955Y527022D01*
X683890Y527082D01*
X683827Y527146D01*
X683767Y527212D01*
X683710Y527281D01*
X683657Y527352D01*
X683606Y527425D01*
X683559Y527501D01*
X683516Y527578D01*
X683475Y527658D01*
X683439Y527739D01*
X683406Y527822D01*
X683377Y527906D01*
X683351Y527992D01*
X683329Y528078D01*
X683312Y528165D01*
X683298Y528253D01*
X683288Y528342D01*
X683282Y528431D01*
X683280Y528520D01*
D13*
X678280Y726740D02*
X1008280Y726740D01*
X1008280Y955740D01*
X678280Y955740D01*
X678280Y726740D01*
D10*
X683280Y764740D02*
X683282Y764829D01*
X683288Y764918D01*
X683298Y765007D01*
X683312Y765095D01*
X683329Y765182D01*
X683351Y765268D01*
X683377Y765354D01*
X683406Y765438D01*
X683439Y765521D01*
X683475Y765602D01*
X683516Y765682D01*
X683559Y765759D01*
X683606Y765835D01*
X683657Y765908D01*
X683710Y765979D01*
X683767Y766048D01*
X683827Y766114D01*
X683890Y766178D01*
X683955Y766238D01*
X684023Y766296D01*
X684094Y766350D01*
X684167Y766401D01*
X684242Y766449D01*
X684319Y766494D01*
X684398Y766535D01*
X684479Y766572D01*
X684561Y766606D01*
X684645Y766637D01*
X684730Y766663D01*
X684816Y766686D01*
X684903Y766704D01*
X684991Y766719D01*
X685080Y766730D01*
X685169Y766737D01*
X685258Y766740D01*
X685347Y766739D01*
X685436Y766734D01*
X685524Y766725D01*
X685613Y766712D01*
X685700Y766695D01*
X685787Y766675D01*
X685873Y766650D01*
X685957Y766622D01*
X686040Y766590D01*
X686122Y766554D01*
X686202Y766515D01*
X686280Y766472D01*
X686356Y766426D01*
X686430Y766376D01*
X686502Y766323D01*
X686571Y766267D01*
X686638Y766208D01*
X686702Y766146D01*
X686763Y766082D01*
X686822Y766014D01*
X686877Y765944D01*
X686929Y765872D01*
X686978Y765797D01*
X687023Y765721D01*
X687065Y765642D01*
X687103Y765562D01*
X687138Y765480D01*
X687169Y765396D01*
X687197Y765311D01*
X687220Y765225D01*
X687240Y765138D01*
X687256Y765051D01*
X687268Y764962D01*
X687276Y764874D01*
X687280Y764785D01*
X687280Y764695D01*
X687276Y764606D01*
X687268Y764518D01*
X687256Y764429D01*
X687240Y764342D01*
X687220Y764255D01*
X687197Y764169D01*
X687169Y764084D01*
X687138Y764000D01*
X687103Y763918D01*
X687065Y763838D01*
X687023Y763759D01*
X686978Y763683D01*
X686929Y763608D01*
X686877Y763536D01*
X686822Y763466D01*
X686763Y763398D01*
X686702Y763334D01*
X686638Y763272D01*
X686571Y763213D01*
X686502Y763157D01*
X686430Y763104D01*
X686356Y763054D01*
X686280Y763008D01*
X686202Y762965D01*
X686122Y762926D01*
X686040Y762890D01*
X685957Y762858D01*
X685873Y762830D01*
X685787Y762805D01*
X685700Y762785D01*
X685613Y762768D01*
X685524Y762755D01*
X685436Y762746D01*
X685347Y762741D01*
X685258Y762740D01*
X685169Y762743D01*
X685080Y762750D01*
X684991Y762761D01*
X684903Y762776D01*
X684816Y762794D01*
X684730Y762817D01*
X684645Y762843D01*
X684561Y762874D01*
X684479Y762908D01*
X684398Y762945D01*
X684319Y762986D01*
X684242Y763031D01*
X684167Y763079D01*
X684094Y763130D01*
X684023Y763184D01*
X683955Y763242D01*
X683890Y763302D01*
X683827Y763366D01*
X683767Y763432D01*
X683710Y763501D01*
X683657Y763572D01*
X683606Y763645D01*
X683559Y763721D01*
X683516Y763798D01*
X683475Y763878D01*
X683439Y763959D01*
X683406Y764042D01*
X683377Y764126D01*
X683351Y764212D01*
X683329Y764298D01*
X683312Y764385D01*
X683298Y764473D01*
X683288Y764562D01*
X683282Y764651D01*
X683280Y764740D01*
D14*
X485394Y187706D02*
X425450Y187710D01*
X425450Y122170D01*
X485394Y122174D01*
D15*
X420624Y154940D03*
D14*
X703326Y202946D02*
X703330Y262890D01*
X637790Y262890D01*
X637794Y202946D01*
D16*
X670560Y267716D03*
D12*
X676003Y179126D02*
X676003Y173934D01*
X676003Y179126D02*
X676001Y179239D01*
X675995Y179352D01*
X675985Y179465D01*
X675971Y179578D01*
X675954Y179690D01*
X675932Y179801D01*
X675907Y179911D01*
X675877Y180021D01*
X675844Y180129D01*
X675807Y180236D01*
X675767Y180342D01*
X675722Y180446D01*
X675674Y180549D01*
X675623Y180650D01*
X675568Y180749D01*
X675510Y180846D01*
X675448Y180941D01*
X675383Y181034D01*
X675315Y181124D01*
X675244Y181212D01*
X675169Y181298D01*
X675092Y181381D01*
X675012Y181461D01*
X674929Y181538D01*
X674843Y181613D01*
X674755Y181684D01*
X674665Y181752D01*
X674572Y181817D01*
X674477Y181879D01*
X674380Y181937D01*
X674281Y181992D01*
X674180Y182043D01*
X674077Y182091D01*
X673973Y182136D01*
X673867Y182176D01*
X673760Y182213D01*
X673652Y182246D01*
X673542Y182276D01*
X673432Y182301D01*
X673321Y182323D01*
X673209Y182340D01*
X673096Y182354D01*
X672983Y182364D01*
X672870Y182370D01*
X672757Y182372D01*
X672644Y182370D01*
X672531Y182364D01*
X672418Y182354D01*
X672305Y182340D01*
X672193Y182323D01*
X672082Y182301D01*
X671972Y182276D01*
X671862Y182246D01*
X671754Y182213D01*
X671647Y182176D01*
X671541Y182136D01*
X671437Y182091D01*
X671334Y182043D01*
X671233Y181992D01*
X671134Y181937D01*
X671037Y181879D01*
X670942Y181817D01*
X670849Y181752D01*
X670759Y181684D01*
X670671Y181613D01*
X670585Y181538D01*
X670502Y181461D01*
X670422Y181381D01*
X670345Y181298D01*
X670270Y181212D01*
X670199Y181124D01*
X670131Y181034D01*
X670066Y180941D01*
X670004Y180846D01*
X669946Y180749D01*
X669891Y180650D01*
X669840Y180549D01*
X669792Y180446D01*
X669747Y180342D01*
X669707Y180236D01*
X669670Y180129D01*
X669637Y180021D01*
X669607Y179911D01*
X669582Y179801D01*
X669560Y179690D01*
X669543Y179578D01*
X669529Y179465D01*
X669519Y179352D01*
X669513Y179239D01*
X669511Y179126D01*
X669512Y179126D02*
X669512Y173934D01*
X669511Y173934D02*
X669513Y173821D01*
X669519Y173708D01*
X669529Y173595D01*
X669543Y173482D01*
X669560Y173370D01*
X669582Y173259D01*
X669607Y173149D01*
X669637Y173039D01*
X669670Y172931D01*
X669707Y172824D01*
X669747Y172718D01*
X669792Y172614D01*
X669840Y172511D01*
X669891Y172410D01*
X669946Y172311D01*
X670004Y172214D01*
X670066Y172119D01*
X670131Y172026D01*
X670199Y171936D01*
X670270Y171848D01*
X670345Y171762D01*
X670422Y171679D01*
X670502Y171599D01*
X670585Y171522D01*
X670671Y171447D01*
X670759Y171376D01*
X670849Y171308D01*
X670942Y171243D01*
X671037Y171181D01*
X671134Y171123D01*
X671233Y171068D01*
X671334Y171017D01*
X671437Y170969D01*
X671541Y170924D01*
X671647Y170884D01*
X671754Y170847D01*
X671862Y170814D01*
X671972Y170784D01*
X672082Y170759D01*
X672193Y170737D01*
X672305Y170720D01*
X672418Y170706D01*
X672531Y170696D01*
X672644Y170690D01*
X672757Y170688D01*
X672870Y170690D01*
X672983Y170696D01*
X673096Y170706D01*
X673209Y170720D01*
X673321Y170737D01*
X673432Y170759D01*
X673542Y170784D01*
X673652Y170814D01*
X673760Y170847D01*
X673867Y170884D01*
X673973Y170924D01*
X674077Y170969D01*
X674180Y171017D01*
X674281Y171068D01*
X674380Y171123D01*
X674477Y171181D01*
X674572Y171243D01*
X674665Y171308D01*
X674755Y171376D01*
X674843Y171447D01*
X674929Y171522D01*
X675012Y171599D01*
X675092Y171679D01*
X675169Y171762D01*
X675244Y171848D01*
X675315Y171936D01*
X675383Y172026D01*
X675448Y172119D01*
X675510Y172214D01*
X675568Y172311D01*
X675623Y172410D01*
X675674Y172511D01*
X675722Y172614D01*
X675767Y172718D01*
X675807Y172824D01*
X675844Y172931D01*
X675877Y173039D01*
X675907Y173149D01*
X675932Y173259D01*
X675954Y173370D01*
X675971Y173482D01*
X675985Y173595D01*
X675995Y173708D01*
X676001Y173821D01*
X676003Y173934D01*
X670810Y173284D02*
X668214Y170688D01*
X664859Y173284D02*
X662263Y182372D01*
X664859Y173284D02*
X658368Y173284D01*
X660315Y175881D02*
X660315Y170688D01*
X605282Y260858D02*
X605282Y272542D01*
X602036Y272542D01*
X601923Y272540D01*
X601810Y272534D01*
X601697Y272524D01*
X601584Y272510D01*
X601472Y272493D01*
X601361Y272471D01*
X601251Y272446D01*
X601141Y272416D01*
X601033Y272383D01*
X600926Y272346D01*
X600820Y272306D01*
X600716Y272261D01*
X600613Y272213D01*
X600512Y272162D01*
X600413Y272107D01*
X600316Y272049D01*
X600221Y271987D01*
X600128Y271922D01*
X600038Y271854D01*
X599950Y271783D01*
X599864Y271708D01*
X599781Y271631D01*
X599701Y271551D01*
X599624Y271468D01*
X599549Y271382D01*
X599478Y271294D01*
X599410Y271204D01*
X599345Y271111D01*
X599283Y271016D01*
X599225Y270919D01*
X599170Y270820D01*
X599119Y270719D01*
X599071Y270616D01*
X599026Y270512D01*
X598986Y270406D01*
X598949Y270299D01*
X598916Y270191D01*
X598886Y270081D01*
X598861Y269971D01*
X598839Y269860D01*
X598822Y269748D01*
X598808Y269635D01*
X598798Y269522D01*
X598792Y269409D01*
X598790Y269296D01*
X598792Y269183D01*
X598798Y269070D01*
X598808Y268957D01*
X598822Y268844D01*
X598839Y268732D01*
X598861Y268621D01*
X598886Y268511D01*
X598916Y268401D01*
X598949Y268293D01*
X598986Y268186D01*
X599026Y268080D01*
X599071Y267976D01*
X599119Y267873D01*
X599170Y267772D01*
X599225Y267673D01*
X599283Y267576D01*
X599345Y267481D01*
X599410Y267388D01*
X599478Y267298D01*
X599549Y267210D01*
X599624Y267124D01*
X599701Y267041D01*
X599781Y266961D01*
X599864Y266884D01*
X599950Y266809D01*
X600038Y266738D01*
X600128Y266670D01*
X600221Y266605D01*
X600316Y266543D01*
X600413Y266485D01*
X600512Y266430D01*
X600613Y266379D01*
X600716Y266331D01*
X600820Y266286D01*
X600926Y266246D01*
X601033Y266209D01*
X601141Y266176D01*
X601251Y266146D01*
X601361Y266121D01*
X601472Y266099D01*
X601584Y266082D01*
X601697Y266068D01*
X601810Y266058D01*
X601923Y266052D01*
X602036Y266050D01*
X602036Y266051D02*
X605282Y266051D01*
X601387Y266051D02*
X598791Y260858D01*
X587435Y269621D02*
X587437Y269728D01*
X587443Y269834D01*
X587453Y269940D01*
X587466Y270046D01*
X587484Y270152D01*
X587505Y270256D01*
X587530Y270360D01*
X587559Y270463D01*
X587591Y270564D01*
X587628Y270664D01*
X587668Y270763D01*
X587711Y270861D01*
X587758Y270957D01*
X587809Y271051D01*
X587863Y271143D01*
X587920Y271233D01*
X587980Y271321D01*
X588044Y271406D01*
X588111Y271489D01*
X588181Y271570D01*
X588253Y271648D01*
X588329Y271724D01*
X588407Y271796D01*
X588488Y271866D01*
X588571Y271933D01*
X588656Y271997D01*
X588744Y272057D01*
X588834Y272114D01*
X588926Y272168D01*
X589020Y272219D01*
X589116Y272266D01*
X589214Y272309D01*
X589313Y272349D01*
X589413Y272386D01*
X589514Y272418D01*
X589617Y272447D01*
X589721Y272472D01*
X589825Y272493D01*
X589931Y272511D01*
X590037Y272524D01*
X590143Y272534D01*
X590249Y272540D01*
X590356Y272542D01*
X590477Y272540D01*
X590598Y272534D01*
X590718Y272524D01*
X590839Y272511D01*
X590958Y272493D01*
X591078Y272472D01*
X591196Y272447D01*
X591313Y272418D01*
X591430Y272385D01*
X591545Y272349D01*
X591659Y272308D01*
X591772Y272265D01*
X591884Y272217D01*
X591993Y272166D01*
X592101Y272111D01*
X592208Y272053D01*
X592312Y271992D01*
X592414Y271927D01*
X592514Y271859D01*
X592612Y271788D01*
X592708Y271714D01*
X592801Y271637D01*
X592891Y271556D01*
X592979Y271473D01*
X593064Y271387D01*
X593147Y271298D01*
X593226Y271207D01*
X593303Y271113D01*
X593376Y271017D01*
X593446Y270919D01*
X593513Y270818D01*
X593577Y270715D01*
X593638Y270610D01*
X593695Y270503D01*
X593748Y270395D01*
X593798Y270285D01*
X593844Y270173D01*
X593887Y270060D01*
X593926Y269945D01*
X588409Y267349D02*
X588330Y267427D01*
X588254Y267507D01*
X588181Y267590D01*
X588111Y267676D01*
X588044Y267763D01*
X587980Y267854D01*
X587920Y267946D01*
X587862Y268040D01*
X587808Y268137D01*
X587758Y268235D01*
X587711Y268335D01*
X587667Y268436D01*
X587627Y268539D01*
X587591Y268644D01*
X587559Y268749D01*
X587530Y268856D01*
X587505Y268963D01*
X587483Y269072D01*
X587466Y269181D01*
X587452Y269290D01*
X587443Y269400D01*
X587437Y269511D01*
X587435Y269621D01*
X588408Y267349D02*
X593926Y260858D01*
X587435Y260858D01*
X582496Y263454D02*
X579899Y272542D01*
X582496Y263454D02*
X576005Y263454D01*
X577952Y266051D02*
X577952Y260858D01*
X669798Y222945D02*
X681482Y222945D01*
X681482Y226190D01*
X681480Y226303D01*
X681474Y226416D01*
X681464Y226529D01*
X681450Y226642D01*
X681433Y226754D01*
X681411Y226865D01*
X681386Y226975D01*
X681356Y227085D01*
X681323Y227193D01*
X681286Y227300D01*
X681246Y227406D01*
X681201Y227510D01*
X681153Y227613D01*
X681102Y227714D01*
X681047Y227813D01*
X680989Y227910D01*
X680927Y228005D01*
X680862Y228098D01*
X680794Y228188D01*
X680723Y228276D01*
X680648Y228362D01*
X680571Y228445D01*
X680491Y228525D01*
X680408Y228602D01*
X680322Y228677D01*
X680234Y228748D01*
X680144Y228816D01*
X680051Y228881D01*
X679956Y228943D01*
X679859Y229001D01*
X679760Y229056D01*
X679659Y229107D01*
X679556Y229155D01*
X679452Y229200D01*
X679346Y229240D01*
X679239Y229277D01*
X679131Y229310D01*
X679021Y229340D01*
X678911Y229365D01*
X678800Y229387D01*
X678688Y229404D01*
X678575Y229418D01*
X678462Y229428D01*
X678349Y229434D01*
X678236Y229436D01*
X678123Y229434D01*
X678010Y229428D01*
X677897Y229418D01*
X677784Y229404D01*
X677672Y229387D01*
X677561Y229365D01*
X677451Y229340D01*
X677341Y229310D01*
X677233Y229277D01*
X677126Y229240D01*
X677020Y229200D01*
X676916Y229155D01*
X676813Y229107D01*
X676712Y229056D01*
X676613Y229001D01*
X676516Y228943D01*
X676421Y228881D01*
X676328Y228816D01*
X676238Y228748D01*
X676150Y228677D01*
X676064Y228602D01*
X675981Y228525D01*
X675901Y228445D01*
X675824Y228362D01*
X675749Y228276D01*
X675678Y228188D01*
X675610Y228098D01*
X675545Y228005D01*
X675483Y227910D01*
X675425Y227813D01*
X675370Y227714D01*
X675319Y227613D01*
X675271Y227510D01*
X675226Y227406D01*
X675186Y227300D01*
X675149Y227193D01*
X675116Y227085D01*
X675086Y226975D01*
X675061Y226865D01*
X675039Y226754D01*
X675022Y226642D01*
X675008Y226529D01*
X674998Y226416D01*
X674992Y226303D01*
X674990Y226190D01*
X674991Y226190D02*
X674991Y222945D01*
X674991Y226839D02*
X669798Y229436D01*
X678561Y240792D02*
X678668Y240790D01*
X678774Y240784D01*
X678880Y240774D01*
X678986Y240761D01*
X679092Y240743D01*
X679196Y240722D01*
X679300Y240697D01*
X679403Y240668D01*
X679504Y240636D01*
X679604Y240599D01*
X679703Y240559D01*
X679801Y240516D01*
X679897Y240469D01*
X679991Y240418D01*
X680083Y240364D01*
X680173Y240307D01*
X680261Y240247D01*
X680346Y240183D01*
X680429Y240116D01*
X680510Y240046D01*
X680588Y239974D01*
X680664Y239898D01*
X680736Y239820D01*
X680806Y239739D01*
X680873Y239656D01*
X680937Y239571D01*
X680997Y239483D01*
X681054Y239393D01*
X681108Y239301D01*
X681159Y239207D01*
X681206Y239111D01*
X681249Y239013D01*
X681289Y238914D01*
X681326Y238814D01*
X681358Y238713D01*
X681387Y238610D01*
X681412Y238506D01*
X681433Y238402D01*
X681451Y238296D01*
X681464Y238190D01*
X681474Y238084D01*
X681480Y237978D01*
X681482Y237871D01*
X681480Y237750D01*
X681474Y237629D01*
X681464Y237509D01*
X681451Y237388D01*
X681433Y237269D01*
X681412Y237149D01*
X681387Y237031D01*
X681358Y236914D01*
X681325Y236797D01*
X681289Y236682D01*
X681248Y236568D01*
X681205Y236455D01*
X681157Y236343D01*
X681106Y236234D01*
X681051Y236126D01*
X680993Y236019D01*
X680932Y235915D01*
X680867Y235813D01*
X680799Y235713D01*
X680728Y235615D01*
X680654Y235519D01*
X680577Y235426D01*
X680496Y235336D01*
X680413Y235248D01*
X680327Y235163D01*
X680238Y235080D01*
X680147Y235001D01*
X680053Y234924D01*
X679957Y234851D01*
X679859Y234781D01*
X679758Y234714D01*
X679655Y234650D01*
X679550Y234590D01*
X679443Y234533D01*
X679335Y234479D01*
X679225Y234429D01*
X679113Y234383D01*
X679000Y234340D01*
X678885Y234301D01*
X676289Y239819D02*
X676366Y239898D01*
X676447Y239974D01*
X676530Y240047D01*
X676615Y240117D01*
X676703Y240184D01*
X676793Y240248D01*
X676885Y240308D01*
X676980Y240365D01*
X677076Y240419D01*
X677174Y240470D01*
X677274Y240517D01*
X677376Y240561D01*
X677479Y240601D01*
X677583Y240637D01*
X677689Y240669D01*
X677795Y240698D01*
X677903Y240723D01*
X678011Y240745D01*
X678121Y240762D01*
X678230Y240776D01*
X678340Y240785D01*
X678451Y240791D01*
X678561Y240793D01*
X676289Y239818D02*
X669798Y234301D01*
X669798Y240792D01*
X669798Y245731D02*
X669798Y249626D01*
X669800Y249725D01*
X669806Y249825D01*
X669815Y249924D01*
X669828Y250022D01*
X669845Y250120D01*
X669866Y250218D01*
X669891Y250314D01*
X669919Y250409D01*
X669951Y250503D01*
X669986Y250596D01*
X670025Y250688D01*
X670068Y250778D01*
X670113Y250866D01*
X670163Y250953D01*
X670215Y251037D01*
X670271Y251120D01*
X670329Y251200D01*
X670391Y251278D01*
X670456Y251353D01*
X670524Y251426D01*
X670594Y251496D01*
X670667Y251564D01*
X670742Y251629D01*
X670820Y251691D01*
X670900Y251749D01*
X670983Y251805D01*
X671067Y251857D01*
X671154Y251907D01*
X671242Y251952D01*
X671332Y251995D01*
X671424Y252034D01*
X671517Y252069D01*
X671611Y252101D01*
X671706Y252129D01*
X671802Y252154D01*
X671900Y252175D01*
X671998Y252192D01*
X672096Y252205D01*
X672195Y252214D01*
X672295Y252220D01*
X672394Y252222D01*
X673693Y252222D01*
X673792Y252220D01*
X673892Y252214D01*
X673991Y252205D01*
X674089Y252192D01*
X674187Y252175D01*
X674285Y252154D01*
X674381Y252129D01*
X674476Y252101D01*
X674570Y252069D01*
X674663Y252034D01*
X674755Y251995D01*
X674845Y251952D01*
X674933Y251907D01*
X675020Y251857D01*
X675104Y251805D01*
X675187Y251749D01*
X675267Y251691D01*
X675345Y251629D01*
X675420Y251564D01*
X675493Y251496D01*
X675563Y251426D01*
X675631Y251353D01*
X675696Y251278D01*
X675758Y251200D01*
X675816Y251120D01*
X675872Y251037D01*
X675924Y250953D01*
X675974Y250866D01*
X676019Y250778D01*
X676062Y250688D01*
X676101Y250596D01*
X676136Y250503D01*
X676168Y250409D01*
X676196Y250314D01*
X676221Y250218D01*
X676242Y250120D01*
X676259Y250022D01*
X676272Y249924D01*
X676281Y249825D01*
X676287Y249725D01*
X676289Y249626D01*
X676289Y245731D01*
X681482Y245731D01*
X681482Y252222D01*
X659638Y240651D02*
X659638Y238054D01*
X659640Y237955D01*
X659646Y237855D01*
X659655Y237756D01*
X659668Y237658D01*
X659685Y237560D01*
X659706Y237462D01*
X659731Y237366D01*
X659759Y237271D01*
X659791Y237177D01*
X659826Y237084D01*
X659865Y236992D01*
X659908Y236902D01*
X659953Y236814D01*
X660003Y236727D01*
X660055Y236643D01*
X660111Y236560D01*
X660169Y236480D01*
X660231Y236402D01*
X660296Y236327D01*
X660364Y236254D01*
X660434Y236184D01*
X660507Y236116D01*
X660582Y236051D01*
X660660Y235989D01*
X660740Y235931D01*
X660823Y235875D01*
X660907Y235823D01*
X660994Y235773D01*
X661082Y235728D01*
X661172Y235685D01*
X661264Y235646D01*
X661357Y235611D01*
X661451Y235579D01*
X661546Y235551D01*
X661642Y235526D01*
X661740Y235505D01*
X661838Y235488D01*
X661936Y235475D01*
X662035Y235466D01*
X662135Y235460D01*
X662234Y235458D01*
X668726Y235458D01*
X668825Y235460D01*
X668925Y235466D01*
X669024Y235475D01*
X669122Y235488D01*
X669220Y235505D01*
X669318Y235526D01*
X669414Y235551D01*
X669509Y235579D01*
X669603Y235611D01*
X669696Y235646D01*
X669788Y235685D01*
X669878Y235728D01*
X669966Y235773D01*
X670053Y235823D01*
X670137Y235875D01*
X670220Y235931D01*
X670300Y235989D01*
X670378Y236051D01*
X670453Y236116D01*
X670526Y236184D01*
X670596Y236254D01*
X670664Y236327D01*
X670729Y236402D01*
X670791Y236480D01*
X670849Y236560D01*
X670905Y236643D01*
X670957Y236727D01*
X671007Y236814D01*
X671052Y236902D01*
X671095Y236992D01*
X671134Y237084D01*
X671169Y237176D01*
X671201Y237271D01*
X671229Y237366D01*
X671254Y237462D01*
X671275Y237560D01*
X671292Y237658D01*
X671305Y237756D01*
X671314Y237855D01*
X671320Y237955D01*
X671322Y238054D01*
X671322Y240651D01*
X668726Y245016D02*
X671322Y248262D01*
X659638Y248262D01*
X659638Y251507D02*
X659638Y245016D01*
D17*
X569720Y815270D02*
X537720Y815270D01*
X569720Y815270D02*
X569720Y901770D01*
X537720Y901770D01*
X537720Y815270D01*
X534220Y813670D02*
X518970Y813670D01*
D14*
X144499Y508055D02*
X144499Y497840D01*
X16499Y497840D01*
X16499Y594360D01*
X142499Y594360D01*
X142499Y584145D01*
D18*
X24999Y546100D03*
D19*
X90932Y599694D02*
X88138Y608076D01*
X85344Y599694D01*
X86043Y601790D02*
X90234Y601790D01*
X79502Y599694D02*
X77639Y599694D01*
X79502Y599694D02*
X79586Y599696D01*
X79669Y599702D01*
X79752Y599711D01*
X79835Y599724D01*
X79917Y599741D01*
X79998Y599761D01*
X80078Y599785D01*
X80157Y599813D01*
X80234Y599844D01*
X80310Y599878D01*
X80385Y599916D01*
X80458Y599958D01*
X80528Y600002D01*
X80597Y600050D01*
X80664Y600100D01*
X80728Y600154D01*
X80789Y600210D01*
X80849Y600270D01*
X80905Y600331D01*
X80959Y600395D01*
X81009Y600462D01*
X81057Y600531D01*
X81101Y600601D01*
X81143Y600674D01*
X81181Y600749D01*
X81215Y600825D01*
X81246Y600902D01*
X81274Y600981D01*
X81298Y601061D01*
X81318Y601142D01*
X81335Y601224D01*
X81348Y601307D01*
X81358Y601390D01*
X81363Y601473D01*
X81365Y601557D01*
X81365Y606213D01*
X81363Y606299D01*
X81357Y606385D01*
X81347Y606470D01*
X81333Y606555D01*
X81316Y606640D01*
X81294Y606723D01*
X81268Y606805D01*
X81239Y606886D01*
X81206Y606965D01*
X81170Y607043D01*
X81130Y607120D01*
X81086Y607194D01*
X81039Y607266D01*
X80989Y607336D01*
X80935Y607403D01*
X80879Y607468D01*
X80819Y607530D01*
X80757Y607590D01*
X80692Y607646D01*
X80625Y607700D01*
X80555Y607750D01*
X80483Y607797D01*
X80409Y607841D01*
X80332Y607881D01*
X80255Y607917D01*
X80175Y607950D01*
X80094Y607979D01*
X80012Y608005D01*
X79929Y608027D01*
X79844Y608044D01*
X79759Y608058D01*
X79674Y608068D01*
X79588Y608074D01*
X79502Y608076D01*
X77639Y608076D01*
X71984Y608076D02*
X71984Y599694D01*
X74312Y608076D02*
X69655Y608076D01*
X65473Y608076D02*
X65473Y602022D01*
X65471Y601927D01*
X65465Y601832D01*
X65456Y601738D01*
X65442Y601644D01*
X65425Y601550D01*
X65404Y601458D01*
X65379Y601366D01*
X65350Y601276D01*
X65318Y601186D01*
X65282Y601098D01*
X65242Y601012D01*
X65200Y600927D01*
X65153Y600844D01*
X65103Y600763D01*
X65050Y600685D01*
X64994Y600608D01*
X64935Y600534D01*
X64873Y600462D01*
X64808Y600393D01*
X64740Y600326D01*
X64670Y600263D01*
X64596Y600202D01*
X64521Y600144D01*
X64443Y600090D01*
X64363Y600038D01*
X64281Y599990D01*
X64198Y599946D01*
X64112Y599904D01*
X64025Y599867D01*
X63936Y599833D01*
X63846Y599802D01*
X63755Y599775D01*
X63663Y599752D01*
X63570Y599733D01*
X63476Y599718D01*
X63382Y599706D01*
X63287Y599698D01*
X63192Y599694D01*
X63098Y599694D01*
X63003Y599698D01*
X62908Y599706D01*
X62814Y599718D01*
X62720Y599733D01*
X62627Y599752D01*
X62535Y599775D01*
X62444Y599802D01*
X62354Y599833D01*
X62265Y599867D01*
X62178Y599904D01*
X62092Y599946D01*
X62009Y599990D01*
X61927Y600038D01*
X61847Y600090D01*
X61769Y600144D01*
X61694Y600202D01*
X61620Y600263D01*
X61550Y600326D01*
X61482Y600393D01*
X61417Y600462D01*
X61355Y600534D01*
X61296Y600608D01*
X61240Y600685D01*
X61187Y600763D01*
X61137Y600844D01*
X61090Y600927D01*
X61048Y601012D01*
X61008Y601098D01*
X60972Y601186D01*
X60940Y601276D01*
X60911Y601366D01*
X60886Y601458D01*
X60865Y601550D01*
X60848Y601644D01*
X60834Y601738D01*
X60825Y601832D01*
X60819Y601927D01*
X60817Y602022D01*
X60816Y602022D02*
X60816Y608076D01*
X53696Y608076D02*
X56490Y599694D01*
X50902Y599694D02*
X53696Y608076D01*
X55791Y601790D02*
X51600Y601790D01*
X45161Y599694D02*
X45161Y608076D01*
X42833Y608076D02*
X47490Y608076D01*
X38955Y605748D02*
X38955Y602022D01*
X38955Y605748D02*
X38953Y605843D01*
X38947Y605938D01*
X38938Y606032D01*
X38924Y606126D01*
X38907Y606220D01*
X38886Y606312D01*
X38861Y606404D01*
X38832Y606494D01*
X38800Y606584D01*
X38764Y606672D01*
X38724Y606758D01*
X38682Y606843D01*
X38635Y606926D01*
X38585Y607007D01*
X38532Y607085D01*
X38476Y607162D01*
X38417Y607236D01*
X38355Y607308D01*
X38290Y607377D01*
X38222Y607444D01*
X38152Y607507D01*
X38078Y607568D01*
X38003Y607626D01*
X37925Y607680D01*
X37845Y607732D01*
X37763Y607780D01*
X37680Y607824D01*
X37594Y607866D01*
X37507Y607903D01*
X37418Y607937D01*
X37328Y607968D01*
X37237Y607995D01*
X37145Y608018D01*
X37052Y608037D01*
X36958Y608052D01*
X36864Y608064D01*
X36769Y608072D01*
X36674Y608076D01*
X36580Y608076D01*
X36485Y608072D01*
X36390Y608064D01*
X36296Y608052D01*
X36202Y608037D01*
X36109Y608018D01*
X36017Y607995D01*
X35926Y607968D01*
X35836Y607937D01*
X35747Y607903D01*
X35660Y607866D01*
X35574Y607824D01*
X35491Y607780D01*
X35409Y607732D01*
X35329Y607680D01*
X35251Y607626D01*
X35176Y607568D01*
X35102Y607507D01*
X35032Y607444D01*
X34964Y607377D01*
X34899Y607308D01*
X34837Y607236D01*
X34778Y607162D01*
X34722Y607085D01*
X34669Y607007D01*
X34619Y606926D01*
X34572Y606843D01*
X34530Y606758D01*
X34490Y606672D01*
X34454Y606584D01*
X34422Y606494D01*
X34393Y606404D01*
X34368Y606312D01*
X34347Y606220D01*
X34330Y606126D01*
X34316Y606032D01*
X34307Y605938D01*
X34301Y605843D01*
X34299Y605748D01*
X34299Y602022D01*
X34301Y601927D01*
X34307Y601832D01*
X34316Y601738D01*
X34330Y601644D01*
X34347Y601550D01*
X34368Y601458D01*
X34393Y601366D01*
X34422Y601276D01*
X34454Y601186D01*
X34490Y601098D01*
X34530Y601012D01*
X34572Y600927D01*
X34619Y600844D01*
X34669Y600763D01*
X34722Y600685D01*
X34778Y600608D01*
X34837Y600534D01*
X34899Y600462D01*
X34964Y600393D01*
X35032Y600326D01*
X35102Y600263D01*
X35176Y600202D01*
X35251Y600144D01*
X35329Y600090D01*
X35409Y600038D01*
X35491Y599990D01*
X35574Y599946D01*
X35660Y599904D01*
X35747Y599867D01*
X35836Y599833D01*
X35926Y599802D01*
X36017Y599775D01*
X36109Y599752D01*
X36202Y599733D01*
X36296Y599718D01*
X36390Y599706D01*
X36485Y599698D01*
X36580Y599694D01*
X36674Y599694D01*
X36769Y599698D01*
X36864Y599706D01*
X36958Y599718D01*
X37052Y599733D01*
X37145Y599752D01*
X37237Y599775D01*
X37328Y599802D01*
X37418Y599833D01*
X37507Y599867D01*
X37594Y599904D01*
X37680Y599946D01*
X37763Y599990D01*
X37845Y600038D01*
X37925Y600090D01*
X38003Y600144D01*
X38078Y600202D01*
X38152Y600263D01*
X38222Y600326D01*
X38290Y600393D01*
X38355Y600462D01*
X38417Y600534D01*
X38476Y600608D01*
X38532Y600685D01*
X38585Y600763D01*
X38635Y600844D01*
X38682Y600927D01*
X38724Y601012D01*
X38764Y601098D01*
X38800Y601186D01*
X38832Y601276D01*
X38861Y601366D01*
X38886Y601458D01*
X38907Y601550D01*
X38924Y601644D01*
X38938Y601738D01*
X38947Y601832D01*
X38953Y601927D01*
X38955Y602022D01*
X29413Y599694D02*
X29413Y608076D01*
X27084Y608076D01*
X26989Y608074D01*
X26894Y608068D01*
X26800Y608059D01*
X26706Y608045D01*
X26612Y608028D01*
X26520Y608007D01*
X26428Y607982D01*
X26338Y607953D01*
X26248Y607921D01*
X26160Y607885D01*
X26074Y607845D01*
X25989Y607803D01*
X25906Y607756D01*
X25825Y607706D01*
X25747Y607653D01*
X25670Y607597D01*
X25596Y607538D01*
X25524Y607476D01*
X25455Y607411D01*
X25388Y607343D01*
X25325Y607273D01*
X25264Y607199D01*
X25206Y607124D01*
X25152Y607046D01*
X25100Y606966D01*
X25052Y606884D01*
X25008Y606801D01*
X24966Y606715D01*
X24929Y606628D01*
X24895Y606539D01*
X24864Y606449D01*
X24837Y606358D01*
X24814Y606266D01*
X24795Y606173D01*
X24780Y606079D01*
X24768Y605985D01*
X24760Y605890D01*
X24756Y605795D01*
X24756Y605701D01*
X24760Y605606D01*
X24768Y605511D01*
X24780Y605417D01*
X24795Y605323D01*
X24814Y605230D01*
X24837Y605138D01*
X24864Y605047D01*
X24895Y604957D01*
X24929Y604868D01*
X24966Y604781D01*
X25008Y604695D01*
X25052Y604612D01*
X25100Y604530D01*
X25152Y604450D01*
X25206Y604372D01*
X25264Y604297D01*
X25325Y604223D01*
X25388Y604153D01*
X25455Y604085D01*
X25524Y604020D01*
X25596Y603958D01*
X25670Y603899D01*
X25747Y603843D01*
X25825Y603790D01*
X25906Y603740D01*
X25989Y603693D01*
X26074Y603651D01*
X26160Y603611D01*
X26248Y603575D01*
X26338Y603543D01*
X26428Y603514D01*
X26520Y603489D01*
X26612Y603468D01*
X26706Y603451D01*
X26800Y603437D01*
X26894Y603428D01*
X26989Y603422D01*
X27084Y603420D01*
X27084Y603419D02*
X29413Y603419D01*
X26619Y603419D02*
X24756Y599694D01*
D14*
X886741Y286535D02*
X886741Y275535D01*
X886741Y286535D02*
X1014741Y286535D01*
X1014741Y104625D01*
X888741Y104625D01*
X888741Y115625D01*
D18*
X1006241Y195580D03*
D19*
X873506Y142748D02*
X865124Y142748D01*
X868849Y145542D02*
X873506Y142748D01*
X868849Y145542D02*
X873506Y148336D01*
X865124Y148336D01*
X869548Y155600D02*
X873506Y152806D01*
X869548Y155600D02*
X873506Y158394D01*
X869548Y155600D02*
X865124Y155600D01*
X865124Y162721D02*
X873506Y162721D01*
X865124Y167377D01*
X873506Y167377D01*
X873506Y173888D02*
X865124Y173888D01*
X873506Y171560D02*
X873506Y176217D01*
X864193Y179646D02*
X864193Y183371D01*
X865124Y186944D02*
X873506Y192532D01*
X873506Y186944D02*
X865124Y192532D01*
X865124Y196088D02*
X873506Y198882D01*
X865124Y201676D01*
X867220Y200977D02*
X867220Y196786D01*
X873506Y205232D02*
X865124Y208026D01*
X873506Y210820D01*
X873506Y215341D02*
X865124Y215341D01*
X865124Y216272D02*
X865124Y214409D01*
X873506Y214409D02*
X873506Y216272D01*
X865124Y220661D02*
X865124Y224387D01*
X865124Y220661D02*
X873506Y220661D01*
X873506Y224387D01*
X869781Y223455D02*
X869781Y220661D01*
X873506Y228651D02*
X865124Y228651D01*
X873506Y228651D02*
X873506Y230979D01*
X873504Y231074D01*
X873498Y231169D01*
X873489Y231263D01*
X873475Y231357D01*
X873458Y231451D01*
X873437Y231543D01*
X873412Y231635D01*
X873383Y231725D01*
X873351Y231815D01*
X873315Y231903D01*
X873275Y231989D01*
X873233Y232074D01*
X873186Y232157D01*
X873136Y232238D01*
X873083Y232316D01*
X873027Y232393D01*
X872968Y232467D01*
X872906Y232539D01*
X872841Y232608D01*
X872773Y232675D01*
X872703Y232738D01*
X872629Y232799D01*
X872554Y232857D01*
X872476Y232911D01*
X872396Y232963D01*
X872314Y233011D01*
X872231Y233055D01*
X872145Y233097D01*
X872058Y233134D01*
X871969Y233168D01*
X871879Y233199D01*
X871788Y233226D01*
X871696Y233249D01*
X871603Y233268D01*
X871509Y233283D01*
X871415Y233295D01*
X871320Y233303D01*
X871225Y233307D01*
X871131Y233307D01*
X871036Y233303D01*
X870941Y233295D01*
X870847Y233283D01*
X870753Y233268D01*
X870660Y233249D01*
X870568Y233226D01*
X870477Y233199D01*
X870387Y233168D01*
X870298Y233134D01*
X870211Y233097D01*
X870125Y233055D01*
X870042Y233011D01*
X869960Y232963D01*
X869880Y232911D01*
X869802Y232857D01*
X869727Y232799D01*
X869653Y232738D01*
X869583Y232675D01*
X869515Y232608D01*
X869450Y232539D01*
X869388Y232467D01*
X869329Y232393D01*
X869273Y232316D01*
X869220Y232238D01*
X869170Y232157D01*
X869123Y232074D01*
X869081Y231989D01*
X869041Y231903D01*
X869005Y231815D01*
X868973Y231725D01*
X868944Y231635D01*
X868919Y231543D01*
X868898Y231451D01*
X868881Y231357D01*
X868867Y231263D01*
X868858Y231169D01*
X868852Y231074D01*
X868850Y230979D01*
X868849Y230979D02*
X868849Y228651D01*
X868849Y231445D02*
X865124Y233308D01*
X864193Y237252D02*
X864193Y240978D01*
X865124Y245537D02*
X873506Y245537D01*
X873506Y247865D01*
X873504Y247960D01*
X873498Y248055D01*
X873489Y248149D01*
X873475Y248243D01*
X873458Y248337D01*
X873437Y248429D01*
X873412Y248521D01*
X873383Y248611D01*
X873351Y248701D01*
X873315Y248789D01*
X873275Y248875D01*
X873233Y248960D01*
X873186Y249043D01*
X873136Y249124D01*
X873083Y249202D01*
X873027Y249279D01*
X872968Y249353D01*
X872906Y249425D01*
X872841Y249494D01*
X872773Y249561D01*
X872703Y249624D01*
X872629Y249685D01*
X872554Y249743D01*
X872476Y249797D01*
X872396Y249849D01*
X872314Y249897D01*
X872231Y249941D01*
X872145Y249983D01*
X872058Y250020D01*
X871969Y250054D01*
X871879Y250085D01*
X871788Y250112D01*
X871696Y250135D01*
X871603Y250154D01*
X871509Y250169D01*
X871415Y250181D01*
X871320Y250189D01*
X871225Y250193D01*
X871131Y250193D01*
X871036Y250189D01*
X870941Y250181D01*
X870847Y250169D01*
X870753Y250154D01*
X870660Y250135D01*
X870568Y250112D01*
X870477Y250085D01*
X870387Y250054D01*
X870298Y250020D01*
X870211Y249983D01*
X870125Y249941D01*
X870042Y249897D01*
X869960Y249849D01*
X869880Y249797D01*
X869802Y249743D01*
X869727Y249685D01*
X869653Y249624D01*
X869583Y249561D01*
X869515Y249494D01*
X869450Y249425D01*
X869388Y249353D01*
X869329Y249279D01*
X869273Y249202D01*
X869220Y249124D01*
X869170Y249043D01*
X869123Y248960D01*
X869081Y248875D01*
X869041Y248789D01*
X869005Y248701D01*
X868973Y248611D01*
X868944Y248521D01*
X868919Y248429D01*
X868898Y248337D01*
X868881Y248243D01*
X868867Y248149D01*
X868858Y248055D01*
X868852Y247960D01*
X868850Y247865D01*
X868849Y247865D02*
X868849Y245537D01*
X865124Y254494D02*
X873506Y254494D01*
X865124Y254494D02*
X865124Y258219D01*
X865124Y263804D02*
X873506Y263804D01*
X873506Y266132D02*
X873506Y261475D01*
X873506Y272338D02*
X865124Y269544D01*
X865124Y275132D02*
X873506Y272338D01*
X867220Y270243D02*
X867220Y274434D01*
D20*
X739130Y383220D02*
X678190Y383220D01*
X678190Y317820D02*
X739130Y318520D01*
X678190Y336520D02*
X678190Y364520D01*
D21*
X670660Y310520D03*
D17*
X670598Y310522D01*
X670537Y310528D01*
X670476Y310537D01*
X670416Y310550D01*
X670357Y310567D01*
X670299Y310588D01*
X670242Y310612D01*
X670187Y310639D01*
X670134Y310670D01*
X670082Y310704D01*
X670033Y310741D01*
X669986Y310781D01*
X669942Y310824D01*
X669901Y310869D01*
X669862Y310917D01*
X669826Y310968D01*
X669794Y311020D01*
X669765Y311074D01*
X669739Y311130D01*
X669717Y311188D01*
X669698Y311246D01*
X669683Y311306D01*
X669672Y311367D01*
X669664Y311428D01*
X669660Y311489D01*
X669660Y311551D01*
X669664Y311612D01*
X669672Y311673D01*
X669683Y311734D01*
X669698Y311794D01*
X669717Y311852D01*
X669739Y311910D01*
X669765Y311966D01*
X669794Y312020D01*
X669826Y312072D01*
X669862Y312123D01*
X669901Y312171D01*
X669942Y312216D01*
X669986Y312259D01*
X670033Y312299D01*
X670082Y312336D01*
X670134Y312370D01*
X670187Y312401D01*
X670242Y312428D01*
X670299Y312452D01*
X670357Y312473D01*
X670416Y312490D01*
X670476Y312503D01*
X670537Y312512D01*
X670598Y312518D01*
X670660Y312520D01*
D21*
X670660Y312520D03*
D17*
X670722Y312518D01*
X670783Y312512D01*
X670844Y312503D01*
X670904Y312490D01*
X670963Y312473D01*
X671021Y312452D01*
X671078Y312428D01*
X671133Y312401D01*
X671186Y312370D01*
X671238Y312336D01*
X671287Y312299D01*
X671334Y312259D01*
X671378Y312216D01*
X671419Y312171D01*
X671458Y312123D01*
X671494Y312072D01*
X671526Y312020D01*
X671555Y311966D01*
X671581Y311910D01*
X671603Y311852D01*
X671622Y311794D01*
X671637Y311734D01*
X671648Y311673D01*
X671656Y311612D01*
X671660Y311551D01*
X671660Y311489D01*
X671656Y311428D01*
X671648Y311367D01*
X671637Y311306D01*
X671622Y311246D01*
X671603Y311188D01*
X671581Y311130D01*
X671555Y311074D01*
X671526Y311020D01*
X671494Y310968D01*
X671458Y310917D01*
X671419Y310869D01*
X671378Y310824D01*
X671334Y310781D01*
X671287Y310741D01*
X671238Y310704D01*
X671186Y310670D01*
X671133Y310639D01*
X671078Y310612D01*
X671021Y310588D01*
X670963Y310567D01*
X670904Y310550D01*
X670844Y310537D01*
X670783Y310528D01*
X670722Y310522D01*
X670660Y310520D01*
D12*
X647788Y351494D02*
X647788Y356686D01*
X647786Y356799D01*
X647780Y356912D01*
X647770Y357025D01*
X647756Y357138D01*
X647739Y357250D01*
X647717Y357361D01*
X647692Y357471D01*
X647662Y357581D01*
X647629Y357689D01*
X647592Y357796D01*
X647552Y357902D01*
X647507Y358006D01*
X647459Y358109D01*
X647408Y358210D01*
X647353Y358309D01*
X647295Y358406D01*
X647233Y358501D01*
X647168Y358594D01*
X647100Y358684D01*
X647029Y358772D01*
X646954Y358858D01*
X646877Y358941D01*
X646797Y359021D01*
X646714Y359098D01*
X646628Y359173D01*
X646540Y359244D01*
X646450Y359312D01*
X646357Y359377D01*
X646262Y359439D01*
X646165Y359497D01*
X646066Y359552D01*
X645965Y359603D01*
X645862Y359651D01*
X645758Y359696D01*
X645652Y359736D01*
X645545Y359773D01*
X645437Y359806D01*
X645327Y359836D01*
X645217Y359861D01*
X645106Y359883D01*
X644994Y359900D01*
X644881Y359914D01*
X644768Y359924D01*
X644655Y359930D01*
X644542Y359932D01*
X644429Y359930D01*
X644316Y359924D01*
X644203Y359914D01*
X644090Y359900D01*
X643978Y359883D01*
X643867Y359861D01*
X643757Y359836D01*
X643647Y359806D01*
X643539Y359773D01*
X643432Y359736D01*
X643326Y359696D01*
X643222Y359651D01*
X643119Y359603D01*
X643018Y359552D01*
X642919Y359497D01*
X642822Y359439D01*
X642727Y359377D01*
X642634Y359312D01*
X642544Y359244D01*
X642456Y359173D01*
X642370Y359098D01*
X642287Y359021D01*
X642207Y358941D01*
X642130Y358858D01*
X642055Y358772D01*
X641984Y358684D01*
X641916Y358594D01*
X641851Y358501D01*
X641789Y358406D01*
X641731Y358309D01*
X641676Y358210D01*
X641625Y358109D01*
X641577Y358006D01*
X641532Y357902D01*
X641492Y357796D01*
X641455Y357689D01*
X641422Y357581D01*
X641392Y357471D01*
X641367Y357361D01*
X641345Y357250D01*
X641328Y357138D01*
X641314Y357025D01*
X641304Y356912D01*
X641298Y356799D01*
X641296Y356686D01*
X641296Y351494D01*
X641298Y351381D01*
X641304Y351268D01*
X641314Y351155D01*
X641328Y351042D01*
X641345Y350930D01*
X641367Y350819D01*
X641392Y350709D01*
X641422Y350599D01*
X641455Y350491D01*
X641492Y350384D01*
X641532Y350278D01*
X641577Y350174D01*
X641625Y350071D01*
X641676Y349970D01*
X641731Y349871D01*
X641789Y349774D01*
X641851Y349679D01*
X641916Y349586D01*
X641984Y349496D01*
X642055Y349408D01*
X642130Y349322D01*
X642207Y349239D01*
X642287Y349159D01*
X642370Y349082D01*
X642456Y349007D01*
X642544Y348936D01*
X642634Y348868D01*
X642727Y348803D01*
X642822Y348741D01*
X642919Y348683D01*
X643018Y348628D01*
X643119Y348577D01*
X643222Y348529D01*
X643326Y348484D01*
X643432Y348444D01*
X643539Y348407D01*
X643647Y348374D01*
X643757Y348344D01*
X643867Y348319D01*
X643978Y348297D01*
X644090Y348280D01*
X644203Y348266D01*
X644316Y348256D01*
X644429Y348250D01*
X644542Y348248D01*
X644655Y348250D01*
X644768Y348256D01*
X644881Y348266D01*
X644994Y348280D01*
X645106Y348297D01*
X645217Y348319D01*
X645327Y348344D01*
X645437Y348374D01*
X645545Y348407D01*
X645652Y348444D01*
X645758Y348484D01*
X645862Y348529D01*
X645965Y348577D01*
X646066Y348628D01*
X646165Y348683D01*
X646262Y348741D01*
X646357Y348803D01*
X646450Y348868D01*
X646540Y348936D01*
X646628Y349007D01*
X646714Y349082D01*
X646797Y349159D01*
X646877Y349239D01*
X646954Y349322D01*
X647029Y349408D01*
X647100Y349496D01*
X647168Y349586D01*
X647233Y349679D01*
X647295Y349774D01*
X647353Y349871D01*
X647408Y349970D01*
X647459Y350071D01*
X647507Y350174D01*
X647552Y350278D01*
X647592Y350384D01*
X647629Y350491D01*
X647662Y350599D01*
X647692Y350709D01*
X647717Y350819D01*
X647739Y350930D01*
X647756Y351042D01*
X647770Y351155D01*
X647780Y351268D01*
X647786Y351381D01*
X647788Y351494D01*
X642595Y350844D02*
X639998Y348248D01*
X630153Y357011D02*
X630155Y357118D01*
X630161Y357224D01*
X630171Y357330D01*
X630184Y357436D01*
X630202Y357542D01*
X630223Y357646D01*
X630248Y357750D01*
X630277Y357853D01*
X630309Y357954D01*
X630346Y358054D01*
X630386Y358153D01*
X630429Y358251D01*
X630476Y358347D01*
X630527Y358441D01*
X630581Y358533D01*
X630638Y358623D01*
X630698Y358711D01*
X630762Y358796D01*
X630829Y358879D01*
X630899Y358960D01*
X630971Y359038D01*
X631047Y359114D01*
X631125Y359186D01*
X631206Y359256D01*
X631289Y359323D01*
X631374Y359387D01*
X631462Y359447D01*
X631552Y359504D01*
X631644Y359558D01*
X631738Y359609D01*
X631834Y359656D01*
X631932Y359699D01*
X632031Y359739D01*
X632131Y359776D01*
X632232Y359808D01*
X632335Y359837D01*
X632439Y359862D01*
X632543Y359883D01*
X632649Y359901D01*
X632755Y359914D01*
X632861Y359924D01*
X632967Y359930D01*
X633074Y359932D01*
X633195Y359930D01*
X633316Y359924D01*
X633436Y359914D01*
X633557Y359901D01*
X633676Y359883D01*
X633796Y359862D01*
X633914Y359837D01*
X634031Y359808D01*
X634148Y359775D01*
X634263Y359739D01*
X634377Y359698D01*
X634490Y359655D01*
X634602Y359607D01*
X634711Y359556D01*
X634819Y359501D01*
X634926Y359443D01*
X635030Y359382D01*
X635132Y359317D01*
X635232Y359249D01*
X635330Y359178D01*
X635426Y359104D01*
X635519Y359027D01*
X635609Y358946D01*
X635697Y358863D01*
X635782Y358777D01*
X635865Y358688D01*
X635944Y358597D01*
X636021Y358503D01*
X636094Y358407D01*
X636164Y358309D01*
X636231Y358208D01*
X636295Y358105D01*
X636356Y358000D01*
X636413Y357893D01*
X636466Y357785D01*
X636516Y357675D01*
X636562Y357563D01*
X636605Y357450D01*
X636644Y357335D01*
X631127Y354739D02*
X631048Y354817D01*
X630972Y354897D01*
X630899Y354980D01*
X630829Y355066D01*
X630762Y355153D01*
X630698Y355244D01*
X630638Y355336D01*
X630580Y355430D01*
X630526Y355527D01*
X630476Y355625D01*
X630429Y355725D01*
X630385Y355826D01*
X630345Y355929D01*
X630309Y356034D01*
X630277Y356139D01*
X630248Y356246D01*
X630223Y356353D01*
X630201Y356462D01*
X630184Y356571D01*
X630170Y356680D01*
X630161Y356790D01*
X630155Y356901D01*
X630153Y357011D01*
X631126Y354739D02*
X636644Y348248D01*
X630153Y348248D01*
D20*
X678190Y477200D02*
X739130Y477200D01*
X739130Y412500D02*
X678190Y411800D01*
X678190Y430500D02*
X678190Y458500D01*
D21*
X670660Y404500D03*
D17*
X670598Y404502D01*
X670537Y404508D01*
X670476Y404517D01*
X670416Y404530D01*
X670357Y404547D01*
X670299Y404568D01*
X670242Y404592D01*
X670187Y404619D01*
X670134Y404650D01*
X670082Y404684D01*
X670033Y404721D01*
X669986Y404761D01*
X669942Y404804D01*
X669901Y404849D01*
X669862Y404897D01*
X669826Y404948D01*
X669794Y405000D01*
X669765Y405054D01*
X669739Y405110D01*
X669717Y405168D01*
X669698Y405226D01*
X669683Y405286D01*
X669672Y405347D01*
X669664Y405408D01*
X669660Y405469D01*
X669660Y405531D01*
X669664Y405592D01*
X669672Y405653D01*
X669683Y405714D01*
X669698Y405774D01*
X669717Y405832D01*
X669739Y405890D01*
X669765Y405946D01*
X669794Y406000D01*
X669826Y406052D01*
X669862Y406103D01*
X669901Y406151D01*
X669942Y406196D01*
X669986Y406239D01*
X670033Y406279D01*
X670082Y406316D01*
X670134Y406350D01*
X670187Y406381D01*
X670242Y406408D01*
X670299Y406432D01*
X670357Y406453D01*
X670416Y406470D01*
X670476Y406483D01*
X670537Y406492D01*
X670598Y406498D01*
X670660Y406500D01*
D21*
X670660Y406500D03*
D17*
X670722Y406498D01*
X670783Y406492D01*
X670844Y406483D01*
X670904Y406470D01*
X670963Y406453D01*
X671021Y406432D01*
X671078Y406408D01*
X671133Y406381D01*
X671186Y406350D01*
X671238Y406316D01*
X671287Y406279D01*
X671334Y406239D01*
X671378Y406196D01*
X671419Y406151D01*
X671458Y406103D01*
X671494Y406052D01*
X671526Y406000D01*
X671555Y405946D01*
X671581Y405890D01*
X671603Y405832D01*
X671622Y405774D01*
X671637Y405714D01*
X671648Y405653D01*
X671656Y405592D01*
X671660Y405531D01*
X671660Y405469D01*
X671656Y405408D01*
X671648Y405347D01*
X671637Y405286D01*
X671622Y405226D01*
X671603Y405168D01*
X671581Y405110D01*
X671555Y405054D01*
X671526Y405000D01*
X671494Y404948D01*
X671458Y404897D01*
X671419Y404849D01*
X671378Y404804D01*
X671334Y404761D01*
X671287Y404721D01*
X671238Y404684D01*
X671186Y404650D01*
X671133Y404619D01*
X671078Y404592D01*
X671021Y404568D01*
X670963Y404547D01*
X670904Y404530D01*
X670844Y404517D01*
X670783Y404508D01*
X670722Y404502D01*
X670660Y404500D01*
D14*
X874041Y386080D02*
X874041Y375865D01*
X874041Y386080D02*
X1002041Y386080D01*
X1002041Y289560D01*
X876041Y289560D01*
X876041Y299775D01*
D18*
X993541Y337820D03*
D19*
X981489Y363643D02*
X979161Y365506D01*
X979161Y357124D01*
X981489Y357124D02*
X976833Y357124D01*
X969784Y365507D02*
X969695Y365505D01*
X969606Y365499D01*
X969518Y365490D01*
X969430Y365477D01*
X969342Y365460D01*
X969256Y365439D01*
X969170Y365415D01*
X969086Y365387D01*
X969002Y365356D01*
X968921Y365321D01*
X968840Y365283D01*
X968762Y365241D01*
X968685Y365196D01*
X968610Y365148D01*
X968538Y365096D01*
X968467Y365042D01*
X968399Y364984D01*
X968334Y364924D01*
X968271Y364861D01*
X968211Y364796D01*
X968153Y364728D01*
X968099Y364657D01*
X968047Y364585D01*
X967999Y364510D01*
X967954Y364433D01*
X967912Y364355D01*
X967874Y364274D01*
X967839Y364193D01*
X967808Y364109D01*
X967780Y364025D01*
X967756Y363939D01*
X967735Y363853D01*
X967718Y363765D01*
X967705Y363677D01*
X967696Y363589D01*
X967690Y363500D01*
X967688Y363411D01*
X969784Y365506D02*
X969887Y365504D01*
X969989Y365498D01*
X970091Y365488D01*
X970193Y365475D01*
X970294Y365457D01*
X970394Y365436D01*
X970494Y365411D01*
X970592Y365382D01*
X970689Y365349D01*
X970785Y365313D01*
X970880Y365273D01*
X970973Y365229D01*
X971064Y365182D01*
X971153Y365132D01*
X971240Y365078D01*
X971326Y365021D01*
X971409Y364961D01*
X971489Y364897D01*
X971567Y364831D01*
X971643Y364761D01*
X971716Y364689D01*
X971786Y364614D01*
X971853Y364536D01*
X971917Y364456D01*
X971978Y364374D01*
X972036Y364289D01*
X972090Y364202D01*
X972142Y364113D01*
X972189Y364023D01*
X972234Y363930D01*
X972274Y363836D01*
X972312Y363740D01*
X972345Y363643D01*
X968388Y361781D02*
X968323Y361845D01*
X968261Y361912D01*
X968201Y361981D01*
X968145Y362053D01*
X968092Y362126D01*
X968041Y362202D01*
X967994Y362280D01*
X967950Y362360D01*
X967909Y362441D01*
X967871Y362524D01*
X967837Y362609D01*
X967806Y362695D01*
X967779Y362782D01*
X967755Y362870D01*
X967735Y362958D01*
X967718Y363048D01*
X967706Y363138D01*
X967696Y363229D01*
X967691Y363320D01*
X967689Y363411D01*
X968387Y361781D02*
X972346Y357124D01*
X967689Y357124D01*
X960873Y357124D02*
X963667Y365506D01*
X958079Y365506D02*
X960873Y357124D01*
X954058Y359452D02*
X954058Y363178D01*
X954057Y363178D02*
X954055Y363273D01*
X954049Y363368D01*
X954040Y363462D01*
X954026Y363556D01*
X954009Y363650D01*
X953988Y363742D01*
X953963Y363834D01*
X953934Y363924D01*
X953902Y364014D01*
X953866Y364102D01*
X953826Y364188D01*
X953784Y364273D01*
X953737Y364356D01*
X953687Y364437D01*
X953634Y364515D01*
X953578Y364592D01*
X953519Y364666D01*
X953457Y364738D01*
X953392Y364807D01*
X953324Y364874D01*
X953254Y364937D01*
X953180Y364998D01*
X953105Y365056D01*
X953027Y365110D01*
X952947Y365162D01*
X952865Y365210D01*
X952782Y365254D01*
X952696Y365296D01*
X952609Y365333D01*
X952520Y365367D01*
X952430Y365398D01*
X952339Y365425D01*
X952247Y365448D01*
X952154Y365467D01*
X952060Y365482D01*
X951966Y365494D01*
X951871Y365502D01*
X951776Y365506D01*
X951682Y365506D01*
X951587Y365502D01*
X951492Y365494D01*
X951398Y365482D01*
X951304Y365467D01*
X951211Y365448D01*
X951119Y365425D01*
X951028Y365398D01*
X950938Y365367D01*
X950849Y365333D01*
X950762Y365296D01*
X950676Y365254D01*
X950593Y365210D01*
X950511Y365162D01*
X950431Y365110D01*
X950353Y365056D01*
X950278Y364998D01*
X950204Y364937D01*
X950134Y364874D01*
X950066Y364807D01*
X950001Y364738D01*
X949939Y364666D01*
X949880Y364592D01*
X949824Y364515D01*
X949771Y364437D01*
X949721Y364356D01*
X949674Y364273D01*
X949632Y364188D01*
X949592Y364102D01*
X949556Y364014D01*
X949524Y363924D01*
X949495Y363834D01*
X949470Y363742D01*
X949449Y363650D01*
X949432Y363556D01*
X949418Y363462D01*
X949409Y363368D01*
X949403Y363273D01*
X949401Y363178D01*
X949401Y359452D01*
X949403Y359357D01*
X949409Y359262D01*
X949418Y359168D01*
X949432Y359074D01*
X949449Y358980D01*
X949470Y358888D01*
X949495Y358796D01*
X949524Y358706D01*
X949556Y358616D01*
X949592Y358528D01*
X949632Y358442D01*
X949674Y358357D01*
X949721Y358274D01*
X949771Y358193D01*
X949824Y358115D01*
X949880Y358038D01*
X949939Y357964D01*
X950001Y357892D01*
X950066Y357823D01*
X950134Y357756D01*
X950204Y357693D01*
X950278Y357632D01*
X950353Y357574D01*
X950431Y357520D01*
X950511Y357468D01*
X950593Y357420D01*
X950676Y357376D01*
X950762Y357334D01*
X950849Y357297D01*
X950938Y357263D01*
X951028Y357232D01*
X951119Y357205D01*
X951211Y357182D01*
X951304Y357163D01*
X951398Y357148D01*
X951492Y357136D01*
X951587Y357128D01*
X951682Y357124D01*
X951776Y357124D01*
X951871Y357128D01*
X951966Y357136D01*
X952060Y357148D01*
X952154Y357163D01*
X952247Y357182D01*
X952339Y357205D01*
X952430Y357232D01*
X952520Y357263D01*
X952609Y357297D01*
X952696Y357334D01*
X952782Y357376D01*
X952865Y357420D01*
X952947Y357468D01*
X953027Y357520D01*
X953105Y357574D01*
X953180Y357632D01*
X953254Y357693D01*
X953324Y357756D01*
X953392Y357823D01*
X953457Y357892D01*
X953519Y357964D01*
X953578Y358038D01*
X953634Y358115D01*
X953687Y358193D01*
X953737Y358274D01*
X953784Y358357D01*
X953826Y358442D01*
X953866Y358528D01*
X953902Y358616D01*
X953934Y358706D01*
X953963Y358796D01*
X953988Y358888D01*
X954009Y358980D01*
X954026Y359074D01*
X954040Y359168D01*
X954049Y359262D01*
X954055Y359357D01*
X954057Y359452D01*
X944580Y357124D02*
X944580Y365506D01*
X944580Y357124D02*
X940855Y357124D01*
X935270Y357124D02*
X935270Y365506D01*
X937598Y365506D02*
X932942Y365506D01*
X929513Y356193D02*
X925788Y356193D01*
X919929Y357124D02*
X918066Y357124D01*
X919929Y357124D02*
X920013Y357126D01*
X920096Y357132D01*
X920179Y357141D01*
X920262Y357154D01*
X920344Y357171D01*
X920425Y357191D01*
X920505Y357215D01*
X920584Y357243D01*
X920661Y357274D01*
X920737Y357308D01*
X920812Y357346D01*
X920885Y357388D01*
X920955Y357432D01*
X921024Y357480D01*
X921091Y357530D01*
X921155Y357584D01*
X921216Y357640D01*
X921276Y357700D01*
X921332Y357761D01*
X921386Y357825D01*
X921436Y357892D01*
X921484Y357961D01*
X921528Y358031D01*
X921570Y358104D01*
X921608Y358179D01*
X921642Y358255D01*
X921673Y358332D01*
X921701Y358411D01*
X921725Y358491D01*
X921745Y358572D01*
X921762Y358654D01*
X921775Y358737D01*
X921785Y358820D01*
X921790Y358903D01*
X921792Y358987D01*
X921791Y358987D02*
X921791Y363643D01*
X921792Y363643D02*
X921790Y363729D01*
X921784Y363815D01*
X921774Y363900D01*
X921760Y363985D01*
X921743Y364070D01*
X921721Y364153D01*
X921695Y364235D01*
X921666Y364316D01*
X921633Y364395D01*
X921597Y364473D01*
X921557Y364550D01*
X921513Y364624D01*
X921466Y364696D01*
X921416Y364766D01*
X921362Y364833D01*
X921306Y364898D01*
X921246Y364960D01*
X921184Y365020D01*
X921119Y365076D01*
X921052Y365130D01*
X920982Y365180D01*
X920910Y365227D01*
X920836Y365271D01*
X920759Y365311D01*
X920682Y365347D01*
X920602Y365380D01*
X920521Y365409D01*
X920439Y365435D01*
X920356Y365457D01*
X920271Y365474D01*
X920186Y365488D01*
X920101Y365498D01*
X920015Y365504D01*
X919929Y365506D01*
X918066Y365506D01*
X914129Y363178D02*
X914129Y359452D01*
X914129Y363178D02*
X914127Y363273D01*
X914121Y363368D01*
X914112Y363462D01*
X914098Y363556D01*
X914081Y363650D01*
X914060Y363742D01*
X914035Y363834D01*
X914006Y363924D01*
X913974Y364014D01*
X913938Y364102D01*
X913898Y364188D01*
X913856Y364273D01*
X913809Y364356D01*
X913759Y364437D01*
X913706Y364515D01*
X913650Y364592D01*
X913591Y364666D01*
X913529Y364738D01*
X913464Y364807D01*
X913396Y364874D01*
X913326Y364937D01*
X913252Y364998D01*
X913177Y365056D01*
X913099Y365110D01*
X913019Y365162D01*
X912937Y365210D01*
X912854Y365254D01*
X912768Y365296D01*
X912681Y365333D01*
X912592Y365367D01*
X912502Y365398D01*
X912411Y365425D01*
X912319Y365448D01*
X912226Y365467D01*
X912132Y365482D01*
X912038Y365494D01*
X911943Y365502D01*
X911848Y365506D01*
X911754Y365506D01*
X911659Y365502D01*
X911564Y365494D01*
X911470Y365482D01*
X911376Y365467D01*
X911283Y365448D01*
X911191Y365425D01*
X911100Y365398D01*
X911010Y365367D01*
X910921Y365333D01*
X910834Y365296D01*
X910748Y365254D01*
X910665Y365210D01*
X910583Y365162D01*
X910503Y365110D01*
X910425Y365056D01*
X910350Y364998D01*
X910276Y364937D01*
X910206Y364874D01*
X910138Y364807D01*
X910073Y364738D01*
X910011Y364666D01*
X909952Y364592D01*
X909896Y364515D01*
X909843Y364437D01*
X909793Y364356D01*
X909746Y364273D01*
X909704Y364188D01*
X909664Y364102D01*
X909628Y364014D01*
X909596Y363924D01*
X909567Y363834D01*
X909542Y363742D01*
X909521Y363650D01*
X909504Y363556D01*
X909490Y363462D01*
X909481Y363368D01*
X909475Y363273D01*
X909473Y363178D01*
X909472Y363178D02*
X909472Y359452D01*
X909473Y359452D02*
X909475Y359357D01*
X909481Y359262D01*
X909490Y359168D01*
X909504Y359074D01*
X909521Y358980D01*
X909542Y358888D01*
X909567Y358796D01*
X909596Y358706D01*
X909628Y358616D01*
X909664Y358528D01*
X909704Y358442D01*
X909746Y358357D01*
X909793Y358274D01*
X909843Y358193D01*
X909896Y358115D01*
X909952Y358038D01*
X910011Y357964D01*
X910073Y357892D01*
X910138Y357823D01*
X910206Y357756D01*
X910276Y357693D01*
X910350Y357632D01*
X910425Y357574D01*
X910503Y357520D01*
X910583Y357468D01*
X910665Y357420D01*
X910748Y357376D01*
X910834Y357334D01*
X910921Y357297D01*
X911010Y357263D01*
X911100Y357232D01*
X911191Y357205D01*
X911283Y357182D01*
X911376Y357163D01*
X911470Y357148D01*
X911564Y357136D01*
X911659Y357128D01*
X911754Y357124D01*
X911848Y357124D01*
X911943Y357128D01*
X912038Y357136D01*
X912132Y357148D01*
X912226Y357163D01*
X912319Y357182D01*
X912411Y357205D01*
X912502Y357232D01*
X912592Y357263D01*
X912681Y357297D01*
X912768Y357334D01*
X912854Y357376D01*
X912937Y357420D01*
X913019Y357468D01*
X913099Y357520D01*
X913177Y357574D01*
X913252Y357632D01*
X913326Y357693D01*
X913396Y357756D01*
X913464Y357823D01*
X913529Y357892D01*
X913591Y357964D01*
X913650Y358038D01*
X913706Y358115D01*
X913759Y358193D01*
X913809Y358274D01*
X913856Y358357D01*
X913898Y358442D01*
X913938Y358528D01*
X913974Y358616D01*
X914006Y358706D01*
X914035Y358796D01*
X914060Y358888D01*
X914081Y358980D01*
X914098Y359074D01*
X914112Y359168D01*
X914121Y359262D01*
X914127Y359357D01*
X914129Y359452D01*
X904680Y357124D02*
X904680Y365506D01*
X900024Y357124D01*
X900024Y365506D01*
X894927Y365506D02*
X894927Y357124D01*
X890270Y357124D02*
X894927Y365506D01*
X890270Y365506D02*
X890270Y357124D01*
D12*
X623062Y286445D02*
X611378Y286445D01*
X623062Y286445D02*
X623062Y289690D01*
X623060Y289803D01*
X623054Y289916D01*
X623044Y290029D01*
X623030Y290142D01*
X623013Y290254D01*
X622991Y290365D01*
X622966Y290475D01*
X622936Y290585D01*
X622903Y290693D01*
X622866Y290800D01*
X622826Y290906D01*
X622781Y291010D01*
X622733Y291113D01*
X622682Y291214D01*
X622627Y291313D01*
X622569Y291410D01*
X622507Y291505D01*
X622442Y291598D01*
X622374Y291688D01*
X622303Y291776D01*
X622228Y291862D01*
X622151Y291945D01*
X622071Y292025D01*
X621988Y292102D01*
X621902Y292177D01*
X621814Y292248D01*
X621724Y292316D01*
X621631Y292381D01*
X621536Y292443D01*
X621439Y292501D01*
X621340Y292556D01*
X621239Y292607D01*
X621136Y292655D01*
X621032Y292700D01*
X620926Y292740D01*
X620819Y292777D01*
X620711Y292810D01*
X620601Y292840D01*
X620491Y292865D01*
X620380Y292887D01*
X620268Y292904D01*
X620155Y292918D01*
X620042Y292928D01*
X619929Y292934D01*
X619816Y292936D01*
X619703Y292934D01*
X619590Y292928D01*
X619477Y292918D01*
X619364Y292904D01*
X619252Y292887D01*
X619141Y292865D01*
X619031Y292840D01*
X618921Y292810D01*
X618813Y292777D01*
X618706Y292740D01*
X618600Y292700D01*
X618496Y292655D01*
X618393Y292607D01*
X618292Y292556D01*
X618193Y292501D01*
X618096Y292443D01*
X618001Y292381D01*
X617908Y292316D01*
X617818Y292248D01*
X617730Y292177D01*
X617644Y292102D01*
X617561Y292025D01*
X617481Y291945D01*
X617404Y291862D01*
X617329Y291776D01*
X617258Y291688D01*
X617190Y291598D01*
X617125Y291505D01*
X617063Y291410D01*
X617005Y291313D01*
X616950Y291214D01*
X616899Y291113D01*
X616851Y291010D01*
X616806Y290906D01*
X616766Y290800D01*
X616729Y290693D01*
X616696Y290585D01*
X616666Y290475D01*
X616641Y290365D01*
X616619Y290254D01*
X616602Y290142D01*
X616588Y290029D01*
X616578Y289916D01*
X616572Y289803D01*
X616570Y289690D01*
X616571Y289690D02*
X616571Y286445D01*
X616571Y290339D02*
X611378Y292936D01*
X620466Y297801D02*
X623062Y301046D01*
X611378Y301046D01*
X611378Y297801D02*
X611378Y304292D01*
X620466Y309231D02*
X623062Y312476D01*
X611378Y312476D01*
X611378Y309231D02*
X611378Y315722D01*
X564642Y294065D02*
X552958Y294065D01*
X564642Y294065D02*
X564642Y297310D01*
X564640Y297423D01*
X564634Y297536D01*
X564624Y297649D01*
X564610Y297762D01*
X564593Y297874D01*
X564571Y297985D01*
X564546Y298095D01*
X564516Y298205D01*
X564483Y298313D01*
X564446Y298420D01*
X564406Y298526D01*
X564361Y298630D01*
X564313Y298733D01*
X564262Y298834D01*
X564207Y298933D01*
X564149Y299030D01*
X564087Y299125D01*
X564022Y299218D01*
X563954Y299308D01*
X563883Y299396D01*
X563808Y299482D01*
X563731Y299565D01*
X563651Y299645D01*
X563568Y299722D01*
X563482Y299797D01*
X563394Y299868D01*
X563304Y299936D01*
X563211Y300001D01*
X563116Y300063D01*
X563019Y300121D01*
X562920Y300176D01*
X562819Y300227D01*
X562716Y300275D01*
X562612Y300320D01*
X562506Y300360D01*
X562399Y300397D01*
X562291Y300430D01*
X562181Y300460D01*
X562071Y300485D01*
X561960Y300507D01*
X561848Y300524D01*
X561735Y300538D01*
X561622Y300548D01*
X561509Y300554D01*
X561396Y300556D01*
X561283Y300554D01*
X561170Y300548D01*
X561057Y300538D01*
X560944Y300524D01*
X560832Y300507D01*
X560721Y300485D01*
X560611Y300460D01*
X560501Y300430D01*
X560393Y300397D01*
X560286Y300360D01*
X560180Y300320D01*
X560076Y300275D01*
X559973Y300227D01*
X559872Y300176D01*
X559773Y300121D01*
X559676Y300063D01*
X559581Y300001D01*
X559488Y299936D01*
X559398Y299868D01*
X559310Y299797D01*
X559224Y299722D01*
X559141Y299645D01*
X559061Y299565D01*
X558984Y299482D01*
X558909Y299396D01*
X558838Y299308D01*
X558770Y299218D01*
X558705Y299125D01*
X558643Y299030D01*
X558585Y298933D01*
X558530Y298834D01*
X558479Y298733D01*
X558431Y298630D01*
X558386Y298526D01*
X558346Y298420D01*
X558309Y298313D01*
X558276Y298205D01*
X558246Y298095D01*
X558221Y297985D01*
X558199Y297874D01*
X558182Y297762D01*
X558168Y297649D01*
X558158Y297536D01*
X558152Y297423D01*
X558150Y297310D01*
X558151Y297310D02*
X558151Y294065D01*
X558151Y297959D02*
X552958Y300556D01*
X562046Y305421D02*
X564642Y308666D01*
X552958Y308666D01*
X552958Y305421D02*
X552958Y311912D01*
X555554Y316851D02*
X564642Y319447D01*
X555554Y316851D02*
X555554Y323342D01*
X558151Y321395D02*
X552958Y321395D01*
X667258Y375158D02*
X678942Y375158D01*
X678942Y378404D01*
X678940Y378517D01*
X678934Y378630D01*
X678924Y378743D01*
X678910Y378856D01*
X678893Y378968D01*
X678871Y379079D01*
X678846Y379189D01*
X678816Y379299D01*
X678783Y379407D01*
X678746Y379514D01*
X678706Y379620D01*
X678661Y379724D01*
X678613Y379827D01*
X678562Y379928D01*
X678507Y380027D01*
X678449Y380124D01*
X678387Y380219D01*
X678322Y380312D01*
X678254Y380402D01*
X678183Y380490D01*
X678108Y380576D01*
X678031Y380659D01*
X677951Y380739D01*
X677868Y380816D01*
X677782Y380891D01*
X677694Y380962D01*
X677604Y381030D01*
X677511Y381095D01*
X677416Y381157D01*
X677319Y381215D01*
X677220Y381270D01*
X677119Y381321D01*
X677016Y381369D01*
X676912Y381414D01*
X676806Y381454D01*
X676699Y381491D01*
X676591Y381524D01*
X676481Y381554D01*
X676371Y381579D01*
X676260Y381601D01*
X676148Y381618D01*
X676035Y381632D01*
X675922Y381642D01*
X675809Y381648D01*
X675696Y381650D01*
X675583Y381648D01*
X675470Y381642D01*
X675357Y381632D01*
X675244Y381618D01*
X675132Y381601D01*
X675021Y381579D01*
X674911Y381554D01*
X674801Y381524D01*
X674693Y381491D01*
X674586Y381454D01*
X674480Y381414D01*
X674376Y381369D01*
X674273Y381321D01*
X674172Y381270D01*
X674073Y381215D01*
X673976Y381157D01*
X673881Y381095D01*
X673788Y381030D01*
X673698Y380962D01*
X673610Y380891D01*
X673524Y380816D01*
X673441Y380739D01*
X673361Y380659D01*
X673284Y380576D01*
X673209Y380490D01*
X673138Y380402D01*
X673070Y380312D01*
X673005Y380219D01*
X672943Y380124D01*
X672885Y380027D01*
X672830Y379928D01*
X672779Y379827D01*
X672731Y379724D01*
X672686Y379620D01*
X672646Y379514D01*
X672609Y379407D01*
X672576Y379299D01*
X672546Y379189D01*
X672521Y379079D01*
X672499Y378968D01*
X672482Y378856D01*
X672468Y378743D01*
X672458Y378630D01*
X672452Y378517D01*
X672450Y378404D01*
X672451Y378404D02*
X672451Y375158D01*
X672451Y379053D02*
X667258Y381649D01*
X676021Y393005D02*
X676128Y393003D01*
X676234Y392997D01*
X676340Y392987D01*
X676446Y392974D01*
X676552Y392956D01*
X676656Y392935D01*
X676760Y392910D01*
X676863Y392881D01*
X676964Y392849D01*
X677064Y392812D01*
X677163Y392772D01*
X677261Y392729D01*
X677357Y392682D01*
X677451Y392631D01*
X677543Y392577D01*
X677633Y392520D01*
X677721Y392460D01*
X677806Y392396D01*
X677889Y392329D01*
X677970Y392259D01*
X678048Y392187D01*
X678124Y392111D01*
X678196Y392033D01*
X678266Y391952D01*
X678333Y391869D01*
X678397Y391784D01*
X678457Y391696D01*
X678514Y391606D01*
X678568Y391514D01*
X678619Y391420D01*
X678666Y391324D01*
X678709Y391226D01*
X678749Y391127D01*
X678786Y391027D01*
X678818Y390926D01*
X678847Y390823D01*
X678872Y390719D01*
X678893Y390615D01*
X678911Y390509D01*
X678924Y390403D01*
X678934Y390297D01*
X678940Y390191D01*
X678942Y390084D01*
X678940Y389963D01*
X678934Y389842D01*
X678924Y389722D01*
X678911Y389601D01*
X678893Y389482D01*
X678872Y389362D01*
X678847Y389244D01*
X678818Y389127D01*
X678785Y389010D01*
X678749Y388895D01*
X678708Y388781D01*
X678665Y388668D01*
X678617Y388556D01*
X678566Y388447D01*
X678511Y388339D01*
X678453Y388232D01*
X678392Y388128D01*
X678327Y388026D01*
X678259Y387926D01*
X678188Y387828D01*
X678114Y387732D01*
X678037Y387639D01*
X677956Y387549D01*
X677873Y387461D01*
X677787Y387376D01*
X677698Y387293D01*
X677607Y387214D01*
X677513Y387137D01*
X677417Y387064D01*
X677319Y386994D01*
X677218Y386927D01*
X677115Y386863D01*
X677010Y386803D01*
X676903Y386746D01*
X676795Y386692D01*
X676685Y386642D01*
X676573Y386596D01*
X676460Y386553D01*
X676345Y386514D01*
X673749Y392032D02*
X673826Y392111D01*
X673907Y392187D01*
X673990Y392260D01*
X674075Y392330D01*
X674163Y392397D01*
X674253Y392461D01*
X674345Y392521D01*
X674440Y392578D01*
X674536Y392632D01*
X674634Y392683D01*
X674734Y392730D01*
X674836Y392774D01*
X674939Y392814D01*
X675043Y392850D01*
X675149Y392882D01*
X675255Y392911D01*
X675363Y392936D01*
X675471Y392958D01*
X675581Y392975D01*
X675690Y392989D01*
X675800Y392998D01*
X675911Y393004D01*
X676021Y393006D01*
X673749Y392032D02*
X667258Y386514D01*
X667258Y393005D01*
X673749Y397944D02*
X673749Y401839D01*
X673747Y401938D01*
X673741Y402038D01*
X673732Y402137D01*
X673719Y402235D01*
X673702Y402333D01*
X673681Y402431D01*
X673656Y402527D01*
X673628Y402622D01*
X673596Y402716D01*
X673561Y402809D01*
X673522Y402901D01*
X673479Y402991D01*
X673434Y403079D01*
X673384Y403166D01*
X673332Y403250D01*
X673276Y403333D01*
X673218Y403413D01*
X673156Y403491D01*
X673091Y403566D01*
X673023Y403639D01*
X672953Y403709D01*
X672880Y403777D01*
X672805Y403842D01*
X672727Y403904D01*
X672647Y403962D01*
X672564Y404018D01*
X672480Y404070D01*
X672393Y404120D01*
X672305Y404165D01*
X672215Y404208D01*
X672123Y404247D01*
X672030Y404282D01*
X671936Y404314D01*
X671841Y404342D01*
X671745Y404367D01*
X671647Y404388D01*
X671549Y404405D01*
X671451Y404418D01*
X671352Y404427D01*
X671252Y404433D01*
X671153Y404435D01*
X670504Y404435D01*
X670504Y404436D02*
X670391Y404434D01*
X670278Y404428D01*
X670165Y404418D01*
X670052Y404404D01*
X669940Y404387D01*
X669829Y404365D01*
X669719Y404340D01*
X669609Y404310D01*
X669501Y404277D01*
X669394Y404240D01*
X669288Y404200D01*
X669184Y404155D01*
X669081Y404107D01*
X668980Y404056D01*
X668881Y404001D01*
X668784Y403943D01*
X668689Y403881D01*
X668596Y403816D01*
X668506Y403748D01*
X668418Y403677D01*
X668332Y403602D01*
X668249Y403525D01*
X668169Y403445D01*
X668092Y403362D01*
X668017Y403276D01*
X667946Y403188D01*
X667878Y403098D01*
X667813Y403005D01*
X667751Y402910D01*
X667693Y402813D01*
X667638Y402714D01*
X667587Y402613D01*
X667539Y402510D01*
X667494Y402406D01*
X667454Y402300D01*
X667417Y402193D01*
X667384Y402085D01*
X667354Y401975D01*
X667329Y401865D01*
X667307Y401754D01*
X667290Y401642D01*
X667276Y401529D01*
X667266Y401416D01*
X667260Y401303D01*
X667258Y401190D01*
X667260Y401077D01*
X667266Y400964D01*
X667276Y400851D01*
X667290Y400738D01*
X667307Y400626D01*
X667329Y400515D01*
X667354Y400405D01*
X667384Y400295D01*
X667417Y400187D01*
X667454Y400080D01*
X667494Y399974D01*
X667539Y399870D01*
X667587Y399767D01*
X667638Y399666D01*
X667693Y399567D01*
X667751Y399470D01*
X667813Y399375D01*
X667878Y399282D01*
X667946Y399192D01*
X668017Y399104D01*
X668092Y399018D01*
X668169Y398935D01*
X668249Y398855D01*
X668332Y398778D01*
X668418Y398703D01*
X668506Y398632D01*
X668596Y398564D01*
X668689Y398499D01*
X668784Y398437D01*
X668881Y398379D01*
X668980Y398324D01*
X669081Y398273D01*
X669184Y398225D01*
X669288Y398180D01*
X669394Y398140D01*
X669501Y398103D01*
X669609Y398070D01*
X669719Y398040D01*
X669829Y398015D01*
X669940Y397993D01*
X670052Y397976D01*
X670165Y397962D01*
X670278Y397952D01*
X670391Y397946D01*
X670504Y397944D01*
X673749Y397944D01*
X673892Y397946D01*
X674035Y397952D01*
X674178Y397962D01*
X674320Y397976D01*
X674462Y397993D01*
X674604Y398015D01*
X674745Y398040D01*
X674885Y398070D01*
X675024Y398103D01*
X675162Y398140D01*
X675299Y398181D01*
X675435Y398225D01*
X675570Y398274D01*
X675703Y398326D01*
X675835Y398381D01*
X675965Y398441D01*
X676094Y398504D01*
X676221Y398570D01*
X676345Y398640D01*
X676468Y398713D01*
X676589Y398790D01*
X676708Y398870D01*
X676824Y398953D01*
X676939Y399039D01*
X677050Y399128D01*
X677160Y399221D01*
X677266Y399316D01*
X677370Y399415D01*
X677471Y399516D01*
X677570Y399620D01*
X677665Y399726D01*
X677758Y399836D01*
X677847Y399947D01*
X677933Y400062D01*
X678016Y400178D01*
X678096Y400297D01*
X678173Y400418D01*
X678246Y400540D01*
X678316Y400665D01*
X678382Y400792D01*
X678445Y400921D01*
X678505Y401051D01*
X678560Y401183D01*
X678612Y401316D01*
X678661Y401451D01*
X678705Y401587D01*
X678746Y401724D01*
X678783Y401862D01*
X678816Y402001D01*
X678846Y402141D01*
X678871Y402282D01*
X678893Y402424D01*
X678910Y402566D01*
X678924Y402708D01*
X678934Y402851D01*
X678940Y402994D01*
X678942Y403137D01*
M02*
