G04 EAGLE Gerber RS-274X export*
G75*
%MOMM*%
%FSLAX34Y34*%
%LPD*%
%INSoldermask Top*%
%IPPOS*%
%AMOC8*
5,1,8,0,0,1.08239X$1,22.5*%
G01*
%ADD10C,3.251200*%
%ADD11R,1.854200X6.553200*%
%ADD12P,2.969212X8X22.500000*%
%ADD13R,2.743200X2.743200*%
%ADD14C,3.203200*%
%ADD15R,1.473200X0.838200*%
%ADD16R,0.812800X2.413000*%
%ADD17R,2.209800X1.701800*%
%ADD18R,2.209800X4.013200*%
%ADD19R,3.203200X5.003200*%
%ADD20R,17.203200X13.903200*%
%ADD21R,1.303200X1.203200*%
%ADD22R,1.103200X0.553200*%
%ADD23R,1.203200X1.303200*%
%ADD24R,2.114200X2.114200*%
%ADD25C,2.114200*%
%ADD26C,2.939200*%
%ADD27R,1.503200X1.503200*%
%ADD28R,1.453200X1.403200*%
%ADD29R,2.453200X4.703200*%
%ADD30R,1.003200X1.103200*%
%ADD31R,2.703200X3.703200*%
%ADD32R,3.703200X2.703200*%
%ADD33R,0.990600X1.092200*%
%ADD34R,1.203200X3.603200*%
%ADD35R,7.003200X9.803200*%
%ADD36R,0.903200X0.903200*%
%ADD37R,1.003200X1.003200*%
%ADD38P,4.008307X8X202.500000*%
%ADD39R,3.703200X3.703200*%
%ADD40P,2.969212X8X202.500000*%
%ADD41R,2.303200X2.303200*%
%ADD42C,0.959600*%
%ADD43C,2.870200*%
%ADD44C,1.703200*%
%ADD45C,1.244600*%
%ADD46C,1.209600*%


D10*
X30480Y985520D03*
X985520Y985520D03*
D11*
X165815Y34230D03*
X191215Y34230D03*
X216615Y34230D03*
X242015Y34230D03*
X267415Y34230D03*
X292815Y34230D03*
X318215Y34230D03*
X343615Y34230D03*
X369015Y34230D03*
X394415Y34230D03*
X419815Y34230D03*
X445215Y34230D03*
X470615Y34230D03*
X496015Y34230D03*
X521415Y34230D03*
X546815Y34230D03*
X775415Y34230D03*
X800815Y34230D03*
X572215Y34230D03*
X597615Y34230D03*
X623015Y34230D03*
X648415Y34230D03*
X673815Y34230D03*
X699215Y34230D03*
X724615Y34230D03*
X750015Y34230D03*
X826215Y34230D03*
X851615Y34230D03*
D12*
X210058Y461645D03*
X210058Y419735D03*
X210058Y377825D03*
X210058Y335915D03*
X210058Y294005D03*
X210058Y252095D03*
X210058Y210185D03*
X210058Y168275D03*
X154940Y461645D03*
X154940Y419735D03*
X154940Y377825D03*
X154940Y335915D03*
X154940Y294005D03*
X154940Y252095D03*
X154940Y210185D03*
D13*
X154940Y168275D03*
D14*
X81940Y461645D03*
X81940Y168275D03*
D15*
X294640Y530860D03*
X294640Y521360D03*
X294640Y511860D03*
X321640Y530860D03*
X321640Y521360D03*
X321640Y511860D03*
X297180Y330200D03*
X297180Y320700D03*
X297180Y311200D03*
X324180Y330200D03*
X324180Y320700D03*
X324180Y311200D03*
D16*
X280670Y403098D03*
X293370Y403098D03*
X306070Y403098D03*
X318770Y403098D03*
X318770Y455422D03*
X306070Y455422D03*
X293370Y455422D03*
X280670Y455422D03*
X285750Y207518D03*
X298450Y207518D03*
X311150Y207518D03*
X323850Y207518D03*
X323850Y259842D03*
X311150Y259842D03*
X298450Y259842D03*
X285750Y259842D03*
D17*
X755396Y134874D03*
X755396Y157734D03*
X755396Y180594D03*
D18*
X692404Y157480D03*
D19*
X372220Y412820D03*
D20*
X426720Y539820D03*
D19*
X481220Y412820D03*
X372220Y158820D03*
D20*
X426720Y285820D03*
D19*
X481220Y158820D03*
D21*
X235340Y119380D03*
X252340Y119380D03*
X776360Y177800D03*
X793360Y177800D03*
X776360Y157480D03*
X793360Y157480D03*
D22*
X724710Y322690D03*
X724710Y329190D03*
X724710Y335690D03*
X724710Y342190D03*
X724710Y348690D03*
X724710Y355190D03*
X724710Y361690D03*
X724710Y368190D03*
X667210Y368190D03*
X667210Y361690D03*
X667210Y355190D03*
X667210Y348690D03*
X667210Y342190D03*
X667210Y335690D03*
X667210Y329190D03*
X667210Y322690D03*
D23*
X638420Y337820D03*
X621420Y337820D03*
D21*
X685800Y310760D03*
X685800Y293760D03*
X647700Y305680D03*
X647700Y288680D03*
X723020Y312420D03*
X740020Y312420D03*
X741680Y392040D03*
X741680Y375040D03*
X762000Y392040D03*
X762000Y375040D03*
D24*
X703780Y528520D03*
D25*
X703780Y604520D03*
X703780Y680520D03*
D26*
X982780Y680520D03*
D25*
X982780Y604520D03*
X982780Y566520D03*
D26*
X982780Y528520D03*
D27*
X939500Y619760D03*
D28*
X964750Y609760D03*
X964750Y629760D03*
D23*
X659520Y637540D03*
X676520Y637540D03*
D21*
X734060Y666360D03*
X734060Y649360D03*
D29*
X664670Y447040D03*
X732330Y447040D03*
D30*
X713080Y650080D03*
X694080Y650080D03*
X703580Y629080D03*
D31*
X789940Y518680D03*
X789940Y583680D03*
D21*
X961000Y520700D03*
X944000Y520700D03*
X961000Y541020D03*
X944000Y541020D03*
X961000Y561340D03*
X944000Y561340D03*
D24*
X703780Y764740D03*
D25*
X703780Y840740D03*
X703780Y916740D03*
D26*
X982780Y916740D03*
D25*
X982780Y840740D03*
X982780Y802740D03*
D26*
X982780Y764740D03*
D27*
X936960Y833120D03*
D28*
X962210Y823120D03*
X962210Y843120D03*
D21*
X647700Y783980D03*
X647700Y800980D03*
X731520Y907660D03*
X731520Y890660D03*
D29*
X654510Y726440D03*
X722170Y726440D03*
D30*
X715620Y886300D03*
X696620Y886300D03*
X706120Y865300D03*
D32*
X775220Y772160D03*
X840220Y772160D03*
D21*
X961000Y774700D03*
X944000Y774700D03*
X961000Y751840D03*
X944000Y751840D03*
X961000Y797560D03*
X944000Y797560D03*
D33*
X825754Y287020D03*
X845058Y287020D03*
X835406Y307340D03*
D21*
X835660Y321700D03*
X835660Y338700D03*
D33*
X660654Y220980D03*
X679958Y220980D03*
X670306Y241300D03*
D34*
X185420Y739180D03*
X236220Y739180D03*
D35*
X210820Y840180D03*
D34*
X340360Y739180D03*
X391160Y739180D03*
D35*
X365760Y840180D03*
D36*
X293520Y804270D03*
X280520Y804270D03*
X287020Y785770D03*
D21*
X287020Y770500D03*
X287020Y753500D03*
X287020Y737480D03*
X287020Y720480D03*
X571500Y781440D03*
X571500Y798440D03*
D37*
X647580Y922020D03*
X632580Y922020D03*
D21*
X612140Y920360D03*
X612140Y903360D03*
D37*
X713860Y119380D03*
X728860Y119380D03*
D21*
X698500Y100720D03*
X698500Y117720D03*
D37*
X751960Y281940D03*
X766960Y281940D03*
X749420Y241300D03*
X764420Y241300D03*
X749420Y200660D03*
X764420Y200660D03*
X749420Y220980D03*
X764420Y220980D03*
D23*
X776360Y220980D03*
X793360Y220980D03*
X776360Y241300D03*
X793360Y241300D03*
X778900Y281940D03*
X795900Y281940D03*
X776360Y200660D03*
X793360Y200660D03*
D12*
X210058Y525145D03*
X210058Y567055D03*
X154940Y525145D03*
D13*
X154940Y567055D03*
D14*
X81940Y546100D03*
D38*
X821182Y258445D03*
X821182Y216535D03*
X821182Y174625D03*
X821182Y132715D03*
X876300Y258445D03*
X876300Y216535D03*
X876300Y174625D03*
D39*
X876300Y132715D03*
D14*
X949300Y258445D03*
X949300Y132715D03*
D40*
X808482Y418465D03*
X808482Y460375D03*
X863600Y418465D03*
D13*
X863600Y460375D03*
D14*
X936600Y439420D03*
D40*
X808482Y358775D03*
X808482Y316865D03*
X863600Y358775D03*
D13*
X863600Y316865D03*
D14*
X936600Y337820D03*
D41*
X109220Y927100D03*
X54220Y927100D03*
X109220Y885100D03*
X54220Y885100D03*
X54220Y843100D03*
X109220Y843100D03*
X109220Y801100D03*
X54220Y801100D03*
X109220Y759100D03*
X109220Y717100D03*
X54220Y675100D03*
X109220Y675100D03*
X54220Y717100D03*
X54220Y759100D03*
D21*
X666750Y377580D03*
X666750Y394580D03*
D42*
X840740Y276860D03*
D43*
X873760Y772160D03*
D44*
X927100Y751840D03*
X927100Y797560D03*
D45*
X924560Y541020D03*
X927100Y589280D03*
X789940Y612140D03*
X266700Y119380D03*
D42*
X754380Y121920D03*
X703580Y220980D03*
X741680Y403860D03*
D44*
X815340Y673100D03*
X317500Y281940D03*
X271674Y299720D03*
X789940Y660400D03*
X845820Y668020D03*
X853440Y632460D03*
X817880Y619760D03*
X812800Y566420D03*
X861060Y576580D03*
X871220Y718820D03*
X828040Y749300D03*
D42*
X728980Y218440D03*
D46*
X746760Y109220D03*
X792480Y101600D03*
X736600Y96520D03*
X779780Y96520D03*
D42*
X736600Y195580D03*
X532356Y243840D03*
X411480Y187960D03*
X307340Y805180D03*
X264160Y480060D03*
X284480Y297180D03*
X474980Y106680D03*
X416560Y109220D03*
D45*
X294640Y152400D03*
D42*
X802640Y397200D03*
X778466Y335280D03*
X266700Y386080D03*
X419100Y398780D03*
X500380Y774700D03*
X524834Y806126D03*
X579076Y811864D03*
X622300Y866140D03*
X739140Y848360D03*
X718820Y802640D03*
X728980Y289560D03*
X434340Y431800D03*
X708660Y814296D03*
X726440Y833120D03*
X640080Y858520D03*
X592864Y798632D03*
X535940Y798632D03*
X520672Y774700D03*
X444500Y462280D03*
X743148Y299946D03*
X690502Y361764D03*
X681792Y389956D03*
X674994Y307340D03*
X693420Y271780D03*
X652780Y137160D03*
X909320Y380266D03*
X840740Y380266D03*
X853440Y83820D03*
X998220Y101600D03*
X909320Y389354D03*
X840740Y389354D03*
D45*
X629920Y802640D03*
X370840Y121920D03*
X490220Y83820D03*
X484709Y72448D03*
X327486Y76200D03*
X675640Y657860D03*
D42*
X815340Y284254D03*
X426720Y99060D03*
X645160Y78740D03*
X624840Y99060D03*
X629920Y134620D03*
X637540Y193040D03*
X447040Y878840D03*
X751840Y312420D03*
X703580Y299720D03*
D45*
X287020Y474980D03*
X492760Y368671D03*
X533146Y314960D03*
D42*
X647832Y325120D03*
D45*
X299720Y281940D03*
X469900Y363220D03*
X533400Y297180D03*
X637319Y322580D03*
X495300Y789940D03*
X604520Y805180D03*
X647700Y843280D03*
X683260Y840740D03*
X695960Y391160D03*
X706120Y312420D03*
X667365Y127655D03*
X686269Y111760D03*
D42*
X698500Y421640D03*
X845594Y436880D03*
X927100Y372420D03*
X533400Y210820D03*
X434340Y132080D03*
X490220Y121920D03*
X635000Y120241D03*
X721360Y93980D03*
X596900Y896620D03*
X708660Y805208D03*
X732866Y839546D03*
X633654Y864946D03*
X587784Y807720D03*
X535940Y807720D03*
X511584Y774700D03*
X631666Y361474D03*
X637695Y353063D03*
X825500Y307114D03*
X688340Y255146D03*
X637540Y241300D03*
X668020Y256540D03*
D45*
X454660Y792480D03*
X546100Y845820D03*
X477520Y792480D03*
X558800Y858520D03*
X546100Y871220D03*
D42*
X654710Y357530D03*
X655320Y368300D03*
M02*
