G04 EAGLE Gerber RS-274X export*
G75*
%MOMM*%
%FSLAX34Y34*%
%LPD*%
%INSoldermask Bottom*%
%IPPOS*%
%AMOC8*
5,1,8,0,0,1.08239X$1,22.5*%
G01*
%ADD10C,3.251200*%
%ADD11R,1.854200X6.553200*%
%ADD12P,2.969212X8X22.500000*%
%ADD13R,2.743200X2.743200*%
%ADD14C,3.203200*%
%ADD15R,1.203200X1.303200*%
%ADD16R,1.303200X1.203200*%
%ADD17R,2.114200X2.114200*%
%ADD18C,2.114200*%
%ADD19C,2.939200*%
%ADD20R,6.403200X5.603200*%
%ADD21R,1.803200X1.203200*%
%ADD22R,5.603200X6.403200*%
%ADD23R,1.203200X1.803200*%
%ADD24R,1.728200X0.853200*%
%ADD25P,4.008307X8X202.500000*%
%ADD26R,3.703200X3.703200*%
%ADD27R,3.053200X1.453200*%
%ADD28R,6.703200X5.753200*%
%ADD29P,2.969212X8X202.500000*%
%ADD30R,2.303200X2.303200*%
%ADD31C,0.959600*%
%ADD32C,2.870200*%
%ADD33C,1.703200*%
%ADD34C,1.244600*%
%ADD35C,1.209600*%


D10*
X30480Y985520D03*
X985520Y985520D03*
D11*
X165815Y34230D03*
X191215Y34230D03*
X216615Y34230D03*
X242015Y34230D03*
X267415Y34230D03*
X292815Y34230D03*
X318215Y34230D03*
X343615Y34230D03*
X369015Y34230D03*
X394415Y34230D03*
X419815Y34230D03*
X445215Y34230D03*
X470615Y34230D03*
X496015Y34230D03*
X572215Y34230D03*
X597615Y34230D03*
X623015Y34230D03*
X648415Y34230D03*
X673815Y34230D03*
X699215Y34230D03*
X724615Y34230D03*
X750015Y34230D03*
X775415Y34230D03*
X800815Y34230D03*
X826215Y34230D03*
X851615Y34230D03*
X546815Y34230D03*
X521415Y34230D03*
D12*
X210058Y461645D03*
X210058Y419735D03*
X210058Y377825D03*
X210058Y335915D03*
X210058Y294005D03*
X210058Y252095D03*
X210058Y210185D03*
X210058Y168275D03*
X154940Y461645D03*
X154940Y419735D03*
X154940Y377825D03*
X154940Y335915D03*
X154940Y294005D03*
X154940Y252095D03*
X154940Y210185D03*
D13*
X154940Y168275D03*
D14*
X81940Y461645D03*
X81940Y168275D03*
D15*
X451730Y388620D03*
X434730Y388620D03*
X615560Y360680D03*
X598560Y360680D03*
D16*
X635000Y372500D03*
X635000Y389500D03*
D17*
X703780Y528520D03*
D18*
X703780Y604520D03*
X703780Y680520D03*
D19*
X982780Y680520D03*
D18*
X982780Y604520D03*
X982780Y566520D03*
D19*
X982780Y528520D03*
D17*
X703780Y764740D03*
D18*
X703780Y840740D03*
X703780Y916740D03*
D19*
X982780Y916740D03*
D18*
X982780Y840740D03*
X982780Y802740D03*
D19*
X982780Y764740D03*
D20*
X472040Y154940D03*
D21*
X399040Y132140D03*
X399040Y177740D03*
D22*
X670560Y216300D03*
D23*
X647760Y289300D03*
X693360Y289300D03*
D16*
X614680Y258200D03*
X614680Y275200D03*
X680720Y292980D03*
X680720Y275980D03*
D15*
X660400Y275980D03*
X660400Y292980D03*
D24*
X526600Y820420D03*
X526600Y833120D03*
X526600Y845820D03*
X526600Y858520D03*
X526600Y871220D03*
X526600Y883920D03*
X526600Y896620D03*
X580840Y896620D03*
X580840Y883920D03*
X580840Y871220D03*
X580840Y858520D03*
X580840Y845820D03*
X580840Y833120D03*
X580840Y820420D03*
D16*
X431800Y856860D03*
X431800Y839860D03*
X452120Y856860D03*
X452120Y839860D03*
X337820Y425840D03*
X337820Y442840D03*
D15*
X471560Y840740D03*
X488560Y840740D03*
X479180Y861060D03*
X496180Y861060D03*
D16*
X360680Y425840D03*
X360680Y442840D03*
D15*
X620640Y848360D03*
X603640Y848360D03*
X603640Y828040D03*
X620640Y828040D03*
D16*
X495300Y897500D03*
X495300Y880500D03*
D12*
X210058Y525145D03*
X210058Y567055D03*
X154940Y525145D03*
D13*
X154940Y567055D03*
D14*
X81940Y546100D03*
D25*
X821182Y258445D03*
X821182Y216535D03*
X821182Y174625D03*
X821182Y132715D03*
X876300Y258445D03*
X876300Y216535D03*
X876300Y174625D03*
D26*
X876300Y132715D03*
D14*
X949300Y258445D03*
X949300Y132715D03*
D27*
X676660Y327720D03*
D28*
X740660Y350520D03*
D27*
X676660Y373320D03*
X676660Y421700D03*
D28*
X740660Y444500D03*
D27*
X676660Y467300D03*
D29*
X808482Y418465D03*
X808482Y460375D03*
X863600Y418465D03*
D13*
X863600Y460375D03*
D14*
X936600Y439420D03*
D29*
X808482Y358775D03*
X808482Y316865D03*
X863600Y358775D03*
D13*
X863600Y316865D03*
D14*
X936600Y337820D03*
D30*
X109220Y927100D03*
X54220Y927100D03*
X109220Y885100D03*
X54220Y885100D03*
X54220Y843100D03*
X109220Y843100D03*
X109220Y801100D03*
X54220Y801100D03*
X109220Y759100D03*
X109220Y717100D03*
X54220Y675100D03*
X109220Y675100D03*
X54220Y717100D03*
X54220Y759100D03*
D16*
X599440Y318380D03*
X599440Y301380D03*
X576580Y315840D03*
X576580Y298840D03*
X655320Y380120D03*
X655320Y397120D03*
D31*
X840740Y276860D03*
D32*
X873760Y772160D03*
D33*
X927100Y751840D03*
X927100Y797560D03*
D34*
X924560Y541020D03*
X927100Y589280D03*
X789940Y612140D03*
X266700Y119380D03*
D31*
X754380Y121920D03*
X703580Y220980D03*
X741680Y403860D03*
D33*
X815340Y673100D03*
X317500Y281940D03*
X271674Y299720D03*
X789940Y660400D03*
X845820Y668020D03*
X853440Y632460D03*
X817880Y619760D03*
X812800Y566420D03*
X861060Y576580D03*
X871220Y718820D03*
X828040Y749300D03*
D31*
X728980Y218440D03*
D35*
X746760Y109220D03*
X792480Y101600D03*
X736600Y96520D03*
X779780Y96520D03*
D31*
X736600Y195580D03*
X532356Y243840D03*
X411480Y187960D03*
X307340Y805180D03*
X264160Y480060D03*
X284480Y297180D03*
X474980Y106680D03*
X416560Y109220D03*
D34*
X294640Y152400D03*
D31*
X802640Y397200D03*
X778466Y335280D03*
X266700Y386080D03*
X419100Y398780D03*
X500380Y774700D03*
X524834Y806126D03*
X579076Y811864D03*
X622300Y866140D03*
X739140Y848360D03*
X718820Y802640D03*
X728980Y289560D03*
X434340Y431800D03*
X708660Y814296D03*
X726440Y833120D03*
X640080Y858520D03*
X592864Y798632D03*
X535940Y798632D03*
X520672Y774700D03*
X444500Y462280D03*
X743148Y299946D03*
X690502Y361764D03*
X681792Y389956D03*
X674994Y307340D03*
X693420Y271780D03*
X652780Y137160D03*
X909320Y380266D03*
X840740Y380266D03*
X853440Y83820D03*
X998220Y101600D03*
X909320Y389354D03*
X840740Y389354D03*
D34*
X629920Y802640D03*
X370840Y121920D03*
X490220Y83820D03*
X484709Y72448D03*
X327486Y76200D03*
X675640Y657860D03*
D31*
X815340Y284254D03*
X426720Y99060D03*
X645160Y78740D03*
X624840Y99060D03*
X629920Y134620D03*
X637540Y193040D03*
X447040Y878840D03*
X751840Y312420D03*
X703580Y299720D03*
D34*
X287020Y474980D03*
X492760Y368671D03*
X533146Y314960D03*
D31*
X647832Y325120D03*
D34*
X299720Y281940D03*
X469900Y363220D03*
X533400Y297180D03*
X637319Y322580D03*
X495300Y789940D03*
X604520Y805180D03*
X647700Y843280D03*
X683260Y840740D03*
X695960Y391160D03*
X706120Y312420D03*
X667365Y127655D03*
X686269Y111760D03*
D31*
X698500Y421640D03*
X845594Y436880D03*
X927100Y372420D03*
X533400Y210820D03*
X434340Y132080D03*
X490220Y121920D03*
X635000Y120241D03*
X721360Y93980D03*
X596900Y896620D03*
X708660Y805208D03*
X732866Y839546D03*
X633654Y864946D03*
X587784Y807720D03*
X535940Y807720D03*
X511584Y774700D03*
X631666Y361474D03*
X637695Y353063D03*
X825500Y307114D03*
X688340Y255146D03*
X637540Y241300D03*
X668020Y256540D03*
D34*
X454660Y792480D03*
X546100Y845820D03*
X477520Y792480D03*
X558800Y858520D03*
X546100Y871220D03*
D31*
X654710Y357530D03*
X655320Y368300D03*
M02*
