G04 EAGLE Gerber RS-274X export*
G75*
%MOMM*%
%FSLAX34Y34*%
%LPD*%
%INSolderpaste Bottom*%
%IPPOS*%
%AMOC8*
5,1,8,0,0,1.08239X$1,22.5*%
G01*
%ADD10R,1.651000X6.350000*%
%ADD11R,1.000000X1.100000*%
%ADD12R,1.100000X1.000000*%
%ADD13R,6.200000X5.400000*%
%ADD14R,1.600000X1.000000*%
%ADD15R,5.400000X6.200000*%
%ADD16R,1.000000X1.600000*%
%ADD17R,1.525000X0.650000*%
%ADD18R,2.850000X1.250000*%
%ADD19R,6.500000X5.550000*%


D10*
X165815Y34230D03*
X191215Y34230D03*
X216615Y34230D03*
X242015Y34230D03*
X267415Y34230D03*
X292815Y34230D03*
X318215Y34230D03*
X343615Y34230D03*
X369015Y34230D03*
X394415Y34230D03*
X419815Y34230D03*
X445215Y34230D03*
X470615Y34230D03*
X496015Y34230D03*
X572215Y34230D03*
X597615Y34230D03*
X623015Y34230D03*
X648415Y34230D03*
X673815Y34230D03*
X699215Y34230D03*
X724615Y34230D03*
X750015Y34230D03*
X775415Y34230D03*
X800815Y34230D03*
X826215Y34230D03*
X851615Y34230D03*
X546815Y34230D03*
X521415Y34230D03*
D11*
X451730Y388620D03*
X434730Y388620D03*
X615560Y360680D03*
X598560Y360680D03*
D12*
X635000Y372500D03*
X635000Y389500D03*
D13*
X472040Y154940D03*
D14*
X399040Y132140D03*
X399040Y177740D03*
D15*
X670560Y216300D03*
D16*
X647760Y289300D03*
X693360Y289300D03*
D12*
X614680Y258200D03*
X614680Y275200D03*
X680720Y292980D03*
X680720Y275980D03*
D11*
X660400Y275980D03*
X660400Y292980D03*
D17*
X526600Y820420D03*
X526600Y833120D03*
X526600Y845820D03*
X526600Y858520D03*
X526600Y871220D03*
X526600Y883920D03*
X526600Y896620D03*
X580840Y896620D03*
X580840Y883920D03*
X580840Y871220D03*
X580840Y858520D03*
X580840Y845820D03*
X580840Y833120D03*
X580840Y820420D03*
D12*
X431800Y856860D03*
X431800Y839860D03*
X452120Y856860D03*
X452120Y839860D03*
X337820Y425840D03*
X337820Y442840D03*
D11*
X471560Y840740D03*
X488560Y840740D03*
X479180Y861060D03*
X496180Y861060D03*
D12*
X360680Y425840D03*
X360680Y442840D03*
D11*
X620640Y848360D03*
X603640Y848360D03*
X603640Y828040D03*
X620640Y828040D03*
D12*
X495300Y897500D03*
X495300Y880500D03*
D18*
X676660Y327720D03*
D19*
X740660Y350520D03*
D18*
X676660Y373320D03*
X676660Y421700D03*
D19*
X740660Y444500D03*
D18*
X676660Y467300D03*
D12*
X599440Y318380D03*
X599440Y301380D03*
X576580Y315840D03*
X576580Y298840D03*
X655320Y380120D03*
X655320Y397120D03*
M02*
